<svg xmlns="http://www.w3.org/2000/svg" width="230.756" height="26.033" viewBox="0 0 230.756 26.033"><defs><style>.a{fill:#0f0f10;}</style></defs><g transform="translate(17906 -2596)"><g transform="translate(-18143.281 2178.233)"><g transform="translate(294.671 417.767)"><rect class="a" width="0.445" height="26.033"/></g><path class="a" d="M282.675,444.661v-20.71a.493.493,0,0,0-.985,0v2.144q-.833.109-1.584.251v-1.972a.493.493,0,0,0-.985,0v2.176q-.747.169-1.43.362V425.08a.493.493,0,0,0-.985,0v2.125q-.717.225-1.4.46v-1.64a.493.493,0,1,0-.985,0v1.984c-.454.159-.906.317-1.362.469v-1.44a.493.493,0,1,0-.985,0v1.754c-.419.127-.848.248-1.293.358v-1.256a.493.493,0,0,0-.985,0v1.479c-.382.077-.777.148-1.191.21v-1.139a.493.493,0,1,0-.985,0v1.264q-.531.057-1.1.094v-1.115a.493.493,0,0,0-.986,0V439.1a.493.493,0,0,0,.333.466l6.485,2.22a.533.533,0,0,0,.085.029l2.282.781.017.005,7.385,2.528a.493.493,0,0,0,.652-.466Zm-15.151-7.878-1.1-.289v-5.706q.571-.035,1.1-.09v6.086Zm0,2.34-1.1-.377v-1.234l1.1.289v1.323Zm2.176-1.769-1.191-.313v-6.464q.619-.088,1.191-.2v6.977Zm0,2.514-1.191-.408v-1.4l1.191.313v1.5Zm2.278-1.915-1.293-.34v-7.449c.445-.107.875-.222,1.293-.344v8.133Zm0,2.695-1.293-.443v-1.574l1.293.339v1.677Zm2.347-2.079-1.362-.357v-8.7c.458-.149.909-.3,1.362-.462v9.517Zm0,2.882-1.362-.466v-1.755l1.362.358v1.863Zm2.38-2.256-1.4-.366V428.708q.682-.238,1.4-.469V439.2Zm0,3.071-1.4-.478v-1.942l1.4.367v2.052Zm2.415-2.436-1.43-.376V427.938c.458-.133.93-.261,1.43-.379V439.83Zm0,3.263-1.43-.49v-2.131l1.43.376v2.245Zm2.569-2.589-1.584-.416V427.346c.5-.1,1.03-.183,1.584-.258V440.5Zm0,3.467-1.584-.542v-2.323l1.584.416v2.449ZM254.52,439.1V428.687a.493.493,0,0,0-.985,0V429.8q-.572-.037-1.1-.094v-1.264a.493.493,0,1,0-.985,0v1.139c-.413-.061-.809-.133-1.191-.21v-1.479a.493.493,0,0,0-.985,0v1.256c-.445-.111-.874-.232-1.293-.358v-1.754a.493.493,0,1,0-.985,0v1.44c-.456-.152-.908-.309-1.362-.469v-1.984a.493.493,0,1,0-.985,0v1.64q-.679-.235-1.4-.46V425.08a.493.493,0,0,0-.985,0v1.832q-.683-.193-1.43-.362v-2.176a.493.493,0,0,0-.985,0v1.972q-.751-.142-1.584-.251v-2.144a.493.493,0,0,0-.985,0v20.71a.492.492,0,0,0,.652.466l7.385-2.528.017-.005,2.282-.781a.533.533,0,0,0,.085-.029l6.485-2.22a.493.493,0,0,0,.333-.466Zm-14.67.99-1.584.416V427.088c.554.076,1.086.16,1.584.258v12.743Zm0,3.342-1.584.542v-2.449l1.584-.416v2.323Zm2.415-3.976-1.43.376V427.558c.5.118.972.246,1.43.379v11.517Zm0,3.149-1.43.49v-2.245l1.43-.376V442.6Zm2.38-3.774-1.4.366V428.239q.715.23,1.4.469v10.121Zm0,2.959-1.4.478v-2.052l1.4-.367v1.942Zm2.347-3.576-1.362.357v-9.517c.453.158.9.313,1.362.462v8.7Zm0,2.773-1.362.466v-1.863l1.362-.358v1.755Zm2.278-3.372-1.293.34v-8.133c.418.122.848.237,1.293.344v7.449Zm0,2.592-1.293.443v-1.677l1.293-.339v1.574Zm2.176-3.164-1.191.313v-6.977q.573.112,1.191.2v6.464Zm0,2.419-1.191.408v-1.5l1.191-.313v1.4Zm2.088-2.967-1.1.289V430.7q.531.055,1.1.09v5.706Zm0,2.252-1.1.377V437.8l1.1-.289v1.234Z" transform="translate(0 -3.161)"/><g transform="translate(305.512 419.173)"><path class="a" d="M396.338,420.93a5.244,5.244,0,0,1,5.612,5.436,5.591,5.591,0,0,1-11.18,0A5.232,5.232,0,0,1,396.338,420.93Zm.015,9.271a3.829,3.829,0,1,0-3.57-3.835A3.566,3.566,0,0,0,396.353,430.2Z" transform="translate(-390.77 -420.93)"/><path class="a" d="M429.761,431.053a8.848,8.848,0,0,1-3.923.808,5.469,5.469,0,1,1-.044-10.931,5.954,5.954,0,0,1,3.952,1.308l-1.279,1.381a3.693,3.693,0,0,0-2.659-1.058,3.824,3.824,0,0,0,.088,7.64,5.381,5.381,0,0,0,2.072-.367v-2.645h-2.189v-1.528h3.981Z" transform="translate(-407.091 -420.93)"/><path class="a" d="M455.028,423.634a2.947,2.947,0,0,0-2.365-1.073,3.584,3.584,0,0,0-3.6,3.805c0,2.263,1.381,3.835,3.526,3.835a3.054,3.054,0,0,0,2.527-1.2l1.484,1.043a4.915,4.915,0,0,1-4.025,1.822,5.467,5.467,0,1,1,.088-10.931,4.857,4.857,0,0,1,3.776,1.587Z" transform="translate(-422.015 -420.93)"/></g><g transform="translate(332.562 437.56)"><path class="a" d="M453.482,462.582a2.957,2.957,0,0,1,2.059.662,2.393,2.393,0,0,1,.731,1.869,2.843,2.843,0,0,1-.238,1.194,2.255,2.255,0,0,1-.706.876,2.108,2.108,0,0,1-.749.36,4.482,4.482,0,0,1-1.1.109h-1.863v-.31l.428-.037.129-.107v-4.162l-.129-.107-.428-.044v-.3Zm-.628.347v4.376h.6a2.02,2.02,0,0,0,1.544-.545,2.913,2.913,0,0,0,0-3.291,2.028,2.028,0,0,0-1.548-.541Z" transform="translate(-451.619 -462.453)"/><path class="a" d="M468.008,462.44h.5l1.811,4.731.454.092v.31h-1.715v-.31l.469-.037.055-.107-.546-1.443h-1.783l-.538,1.443.077.107.491.037v.31H465.8v-.31l.436-.092Zm.118.794-.745,2.1H468.9Z" transform="translate(-459.497 -462.374)"/><path class="a" d="M478.606,462.582h4.269v1.162h-.417l-.1-.7-.107-.115h-1.155V467.2l.125.107.509.037v.31h-1.974v-.31l.505-.037.129-.107v-4.269h-1.155l-.107.115-.107.7h-.413Z" transform="translate(-466.609 -462.453)"/><path class="a" d="M492.091,462.44h.5l1.812,4.731.454.092v.31h-1.716v-.31l.469-.037.056-.107-.546-1.443h-1.782l-.539,1.443.077.107.491.037v.31h-1.479v-.31l.435-.092Zm.118.794-.745,2.1h1.524Z" transform="translate(-472.874 -462.374)"/><path class="a" d="M506.044,471.979a.456.456,0,0,1,.337.14.469.469,0,0,1,.139.343.455.455,0,0,1-.141.338.46.46,0,0,1-.336.139.473.473,0,0,1-.343-.137.454.454,0,0,1-.14-.34.469.469,0,0,1,.14-.341A.463.463,0,0,1,506.044,471.979Z" transform="translate(-481.582 -467.673)"/><path class="a" d="M517.726,467.652v-.31l.483-.037.129-.107v-4.162l-.129-.107-.483-.044v-.3h1.919v.3l-.483.044-.129.107V467.2l.129.107.483.037v.31Z" transform="translate(-488.339 -462.453)"/><path class="a" d="M526.5,467.652v-.31l.461-.059.137-.144v-4.1l-.137-.107-.483-.044v-.3H527.9v.188l2.579,3.871v-3.553l-.136-.137-.454-.066v-.3h1.586v.3l-.454.066-.136.137v4.564h-.5l-2.878-4.292v3.779l.136.144.454.059v.31Z" transform="translate(-493.202 -462.453)"/><path class="a" d="M542.58,467.385v-1.328h.446l.089.867.1.129a1.481,1.481,0,0,0,.38.129,2.278,2.278,0,0,0,.465.044,1.305,1.305,0,0,0,.836-.245.8.8,0,0,0,.308-.662q0-.579-1.085-1.041l-.181-.077a3.007,3.007,0,0,1-1.026-.625,1.107,1.107,0,0,1-.251-.751,1.3,1.3,0,0,1,.477-1.05,1.911,1.911,0,0,1,1.268-.4,3.858,3.858,0,0,1,.637.054,4.569,4.569,0,0,1,.651.16v1.17H545.3l-.115-.72-.111-.125a1.166,1.166,0,0,0-.313-.121,1.69,1.69,0,0,0-.369-.039,1.088,1.088,0,0,0-.749.245.846.846,0,0,0-.277.666.7.7,0,0,0,.194.507,2.907,2.907,0,0,0,.865.485l.188.074a2.845,2.845,0,0,1,.952.546,1.069,1.069,0,0,1,.249.372,1.244,1.244,0,0,1,.083.457,1.332,1.332,0,0,1-.535,1.1,2.241,2.241,0,0,1-1.421.418,4.252,4.252,0,0,1-.744-.062A2.757,2.757,0,0,1,542.58,467.385Z" transform="translate(-502.145 -462.338)"/><path class="a" d="M555.012,467.652v-.31l.483-.037.129-.107v-4.162l-.129-.107-.483-.044v-.3h1.919v.3l-.483.044-.129.107V467.2l.129.107.483.037v.31Z" transform="translate(-509.05 -462.453)"/><path class="a" d="M566.883,465.1h1.885v.31l-.417.037-.125.1v1.808a7.777,7.777,0,0,1-.846.2,4.307,4.307,0,0,1-.718.066,3.057,3.057,0,0,1-.705-.077,2.314,2.314,0,0,1-.6-.225,2.5,2.5,0,0,1-.957-.967,2.729,2.729,0,0,1-.348-1.362,2.538,2.538,0,0,1,.734-1.913,2.719,2.719,0,0,1,1.976-.711,4.723,4.723,0,0,1,.708.056,5.732,5.732,0,0,1,.745.166v1.2H567.8l-.114-.686-.106-.136a2.053,2.053,0,0,0-.426-.148,1.93,1.93,0,0,0-.433-.048,1.73,1.73,0,0,0-1.378.58,2.34,2.34,0,0,0-.5,1.59,2.487,2.487,0,0,0,.522,1.67,1.77,1.77,0,0,0,1.419.611,2.986,2.986,0,0,0,.367-.024,3.349,3.349,0,0,0,.4-.076v-1.571l-.129-.1-.535-.037Z" transform="translate(-514.074 -462.338)"/><path class="a" d="M579.085,462.582h1.834v.3l-.469.044-.129.107v1.782h2.6v-1.782l-.129-.107-.469-.044v-.3h1.837v.3l-.432.044-.129.107V467.2l.129.107.432.037v.31h-1.837v-.31l.469-.037.129-.107v-2.033h-2.6V467.2l.129.107.469.037v.31h-1.834v-.31l.428-.037.129-.107v-4.162l-.129-.107-.428-.044Z" transform="translate(-522.422 -462.453)"/><path class="a" d="M594.737,462.582h4.269v1.162h-.417l-.1-.7-.107-.115h-1.155V467.2l.125.107.509.037v.31h-1.974v-.31l.505-.037.129-.107v-4.269h-1.155l-.107.115-.107.7h-.413Z" transform="translate(-531.116 -462.453)"/><path class="a" d="M607.278,471.979a.456.456,0,0,1,.338.14.469.469,0,0,1,.138.343.476.476,0,0,1-.476.477.474.474,0,0,1-.343-.137.454.454,0,0,1-.14-.34.481.481,0,0,1,.483-.483Z" transform="translate(-537.814 -467.673)"/><path class="a" d="M620.437,462.44h.5l1.812,4.731.454.092v.31h-1.716v-.31l.469-.037.055-.107-.546-1.443H619.68l-.539,1.443.077.107.491.037v.31h-1.48v-.31l.436-.092Zm.118.794-.745,2.1h1.524Z" transform="translate(-544.166 -462.374)"/><path class="a" d="M637.477,467.363a4.944,4.944,0,0,1-.76.2,4.367,4.367,0,0,1-.764.068,2.982,2.982,0,0,1-.7-.077,2.332,2.332,0,0,1-.59-.225,2.5,2.5,0,0,1-.957-.969,2.734,2.734,0,0,1-.349-1.36,2.479,2.479,0,0,1,2.624-2.624,4.2,4.2,0,0,1,.714.065,5.8,5.8,0,0,1,.781.194v1.162h-.421l-.115-.686-.1-.136a2.158,2.158,0,0,0-.424-.148,1.832,1.832,0,0,0-.421-.048,1.7,1.7,0,0,0-1.358.583,2.349,2.349,0,0,0-.5,1.587,2.477,2.477,0,0,0,.524,1.674,1.814,1.814,0,0,0,1.45.607,2.246,2.246,0,0,0,.326-.024,2.068,2.068,0,0,0,.33-.076l.118-.118.185-.842h.406Z" transform="translate(-552.569 -462.338)"/><path class="a" d="M647.044,462.582h4.269v1.162H650.9l-.1-.7-.107-.115h-1.155V467.2l.125.107.509.037v.31h-1.974v-.31l.506-.037.129-.107v-4.269h-1.155l-.107.115-.107.7h-.413Z" transform="translate(-560.171 -462.453)"/><path class="a" d="M660.919,467.652v-.31l.484-.037.129-.107v-4.162l-.129-.107-.484-.044v-.3h1.919v.3l-.484.044-.129.107V467.2l.129.107.484.037v.31Z" transform="translate(-567.878 -462.453)"/><path class="a" d="M672.407,462.292a2.41,2.41,0,0,1,.9.166,2.319,2.319,0,0,1,.76.5,2.451,2.451,0,0,1,.581.878,3.051,3.051,0,0,1,.2,1.118,3.174,3.174,0,0,1-.1.794,2.755,2.755,0,0,1-.288.7,2.3,2.3,0,0,1-.864.858,2.371,2.371,0,0,1-1.192.308,2.482,2.482,0,0,1-.909-.166,2.251,2.251,0,0,1-.755-.484,2.448,2.448,0,0,1-.581-.882,3.32,3.32,0,0,1,0-2.251,2.417,2.417,0,0,1,.576-.874,2.319,2.319,0,0,1,.762-.5A2.438,2.438,0,0,1,672.407,462.292Zm0,.409a1.426,1.426,0,0,0-1.209.607,3.231,3.231,0,0,0,0,3.29,1.481,1.481,0,0,0,2.4,0,3.219,3.219,0,0,0,0-3.284A1.413,1.413,0,0,0,672.407,462.7Z" transform="translate(-572.902 -462.292)"/><path class="a" d="M685.522,467.652v-.31l.461-.059.137-.144v-4.1l-.137-.107-.483-.044v-.3h1.421v.188l2.579,3.871v-3.553l-.136-.137-.454-.066v-.3H690.5v.3l-.454.066-.137.137v4.564h-.5l-2.878-4.292v3.779l.136.144.454.059v.31Z" transform="translate(-581.532 -462.453)"/></g></g><path class="a" d="M1.328.339v-10.9h1.75V.339ZM11.6-8.516h1.422v9h-.483L7.15-5.645V.339H5.728v-9h.483L11.6-2.532Zm6.883,9-3.9-9h1.6l2.549,6.158,2.549-6.158h1.6l-3.9,9ZM25.84-7.242v2.267h3.3V-3.74h-3.3v2.8H30.4V.339H24.418V-8.516h5.823v1.275Zm9.016-1.422a3.273,3.273,0,0,1,1.717.443,3.312,3.312,0,0,1,1.14,1.14l-.993.765a2.643,2.643,0,0,0-.818-.792,2,2,0,0,0-1.047-.282,1.718,1.718,0,0,0-.939.255.916.916,0,0,0-.4.818.9.9,0,0,0,.094.429.992.992,0,0,0,.255.322,1.543,1.543,0,0,0,.389.255l.5.255.993.456a7.647,7.647,0,0,1,.9.483,3.247,3.247,0,0,1,.671.55,2.4,2.4,0,0,1,.416.671,2.153,2.153,0,0,1,.148.818,2.4,2.4,0,0,1-.228,1.06,2.239,2.239,0,0,1-.631.805,2.8,2.8,0,0,1-.939.51A3.63,3.63,0,0,1,34.9.486a3.714,3.714,0,0,1-1.972-.523,3.794,3.794,0,0,1-1.369-1.4L32.562-2.2a4.032,4.032,0,0,0,.429.537,2.667,2.667,0,0,0,.51.443,2.179,2.179,0,0,0,.631.309,2.207,2.207,0,0,0,.751.121A1.756,1.756,0,0,0,36-1.124a1.072,1.072,0,0,0,.416-.9,1.067,1.067,0,0,0-.094-.456,1.059,1.059,0,0,0-.268-.335,2.891,2.891,0,0,0-.4-.282q-.242-.121-.537-.255l-.979-.456a8.509,8.509,0,0,1-.805-.429,3.194,3.194,0,0,1-.657-.523,2.244,2.244,0,0,1-.443-.671,2.03,2.03,0,0,1-.161-.832,2.136,2.136,0,0,1,.228-.993,2.268,2.268,0,0,1,.6-.765,2.816,2.816,0,0,1,.886-.483A3.46,3.46,0,0,1,34.856-8.664Zm8.466,1.422V.339H41.9V-7.242H38.922V-8.516H46.3v1.275Zm8.292-1.422a4.7,4.7,0,0,1,1.811.349,4.59,4.59,0,0,1,1.476.966A4.731,4.731,0,0,1,55.908-5.9a4.549,4.549,0,0,1,.362,1.811,4.487,4.487,0,0,1-.362,1.811A4.525,4.525,0,0,1,54.9-.828a4.59,4.59,0,0,1-1.476.966,4.7,4.7,0,0,1-1.811.349A4.7,4.7,0,0,1,49.8.138a4.4,4.4,0,0,1-1.476-.966,4.505,4.505,0,0,1-.993-1.462,4.454,4.454,0,0,1-.362-1.8A4.549,4.549,0,0,1,47.334-5.9a4.544,4.544,0,0,1,.993-1.449A4.59,4.59,0,0,1,49.8-8.315,4.7,4.7,0,0,1,51.614-8.664Zm.013,1.3a3.234,3.234,0,0,0-1.261.242,3.085,3.085,0,0,0-1.006.684A3.035,3.035,0,0,0,48.689-5.4a3.472,3.472,0,0,0-.242,1.3,3.508,3.508,0,0,0,.242,1.315,3.035,3.035,0,0,0,.671,1.033,2.832,2.832,0,0,0,1.006.684,3.086,3.086,0,0,0,1.261.255,3.086,3.086,0,0,0,1.261-.255A3,3,0,0,0,53.9-1.754a3.035,3.035,0,0,0,.671-1.033A3.508,3.508,0,0,0,54.808-4.1a3.472,3.472,0,0,0-.242-1.3A3.218,3.218,0,0,0,53.9-6.437a3.287,3.287,0,0,0-1.006-.684A3.234,3.234,0,0,0,51.628-7.363Zm9.7-1.154a3.928,3.928,0,0,1,1.248.188,2.891,2.891,0,0,1,.953.563,2.532,2.532,0,0,1,.6.858,2.741,2.741,0,0,1,.215,1.1,2.575,2.575,0,0,1-.456,1.529,2.64,2.64,0,0,1-1.261.966L65.3.339H63.676L61.14-3.083H59.53V.339H58.108V-8.516Zm-1.8,4.159H61.3a1.638,1.638,0,0,0,1.181-.4,1.4,1.4,0,0,0,.4-1.037,1.441,1.441,0,0,0-.4-1.05,1.638,1.638,0,0,0-1.181-.4H59.53Zm16.18-6.2a4.835,4.835,0,0,1,1.536.231,3.559,3.559,0,0,1,1.172.694,3.118,3.118,0,0,1,.743,1.057,3.377,3.377,0,0,1,.264,1.354,3.377,3.377,0,0,1-.264,1.354,3.118,3.118,0,0,1-.743,1.057,3.559,3.559,0,0,1-1.172.694,4.539,4.539,0,0,1-1.536.248H73.5V.339h-1.75v-10.9ZM73.5-5.441h2.2a1.957,1.957,0,0,0,1.437-.491,1.718,1.718,0,0,0,.5-1.276,1.774,1.774,0,0,0-.5-1.293,1.957,1.957,0,0,0-1.437-.491H73.5ZM85.389-8.664a4.7,4.7,0,0,1,1.811.349,4.59,4.59,0,0,1,1.476.966A4.731,4.731,0,0,1,89.682-5.9a4.549,4.549,0,0,1,.362,1.811,4.487,4.487,0,0,1-.362,1.811A4.525,4.525,0,0,1,88.676-.828,4.59,4.59,0,0,1,87.2.138a4.7,4.7,0,0,1-1.811.349A4.7,4.7,0,0,1,83.577.138,4.4,4.4,0,0,1,82.1-.828a4.505,4.505,0,0,1-.993-1.462,4.454,4.454,0,0,1-.362-1.8A4.549,4.549,0,0,1,81.108-5.9,4.544,4.544,0,0,1,82.1-7.349a4.59,4.59,0,0,1,1.476-.966A4.7,4.7,0,0,1,85.389-8.664Zm.013,1.3a3.234,3.234,0,0,0-1.261.242,3.085,3.085,0,0,0-1.006.684A3.035,3.035,0,0,0,82.464-5.4a3.472,3.472,0,0,0-.242,1.3,3.508,3.508,0,0,0,.242,1.315,3.035,3.035,0,0,0,.671,1.033,2.832,2.832,0,0,0,1.006.684A3.086,3.086,0,0,0,85.4-.815a3.086,3.086,0,0,0,1.261-.255,3,3,0,0,0,1.006-.684,3.035,3.035,0,0,0,.671-1.033A3.508,3.508,0,0,0,88.582-4.1a3.472,3.472,0,0,0-.242-1.3,3.218,3.218,0,0,0-.671-1.033,3.287,3.287,0,0,0-1.006-.684A3.234,3.234,0,0,0,85.4-7.363Zm9.7-1.154a3.928,3.928,0,0,1,1.248.188,2.891,2.891,0,0,1,.953.563,2.532,2.532,0,0,1,.6.858,2.741,2.741,0,0,1,.215,1.1,2.575,2.575,0,0,1-.456,1.529,2.64,2.64,0,0,1-1.261.966L99.074.339H97.451L94.915-3.083H93.3V.339H91.882V-8.516ZM93.3-4.357h1.771a1.638,1.638,0,0,0,1.181-.4,1.4,1.4,0,0,0,.4-1.037,1.441,1.441,0,0,0-.4-1.05,1.638,1.638,0,0,0-1.181-.4H93.3Zm10.345-2.885V.339h-1.422V-7.242H99.248V-8.516h7.379v1.275ZM113.041.339l-.631-1.476h-3.985L107.8.339h-1.516l3.9-9h.483l3.9,9Zm-1.154-2.7-1.462-3.663-1.489,3.663Zm9.7,1.422V.339h-5.474V-8.516h1.422V-.936Z" transform="translate(-17796.832 2608)"/></g></svg>