<svg xmlns="http://www.w3.org/2000/svg" width="36" height="45" viewBox="0 0 36 45"><defs><style>.a,.c{fill:#d7d6db;}.b,.g{fill:none;}.b,.c{stroke:#fff;}.d{fill:#b7b7ba;}.e{fill:#c2c1c8;}.f{stroke:none;}</style></defs><g transform="translate(-390 -2244)"><g transform="translate(15 1202)"><path class="a" d="M0,45V0H28.471L36,7.5V45Z" transform="translate(375 1042)"/><g transform="translate(381.792 1058.981)"><path class="b" d="M7409.76,1352.141l5.69-7.555,4.967,7.951,9.929-13.347" transform="translate(-7409.132 -1338.536)"/><g class="c" transform="translate(-0.792 13.019)"><circle class="f" cx="1" cy="1" r="1"/><circle class="g" cx="1" cy="1" r="0.5"/></g><g class="c" transform="translate(20.208 0.019)"><circle class="f" cx="1" cy="1" r="1"/><circle class="g" cx="1" cy="1" r="0.5"/></g><g class="c" transform="translate(5.208 5.019)"><circle class="f" cx="1" cy="1" r="1"/><circle class="g" cx="1" cy="1" r="0.5"/></g><g class="c" transform="translate(10.208 13.019)"><circle class="f" cx="1" cy="1" r="1"/><circle class="g" cx="1" cy="1" r="0.5"/></g><g class="c" transform="translate(10.208 13.019)"><circle class="f" cx="1" cy="1" r="1"/><circle class="g" cx="1" cy="1" r="0.5"/></g></g><path class="d" d="M6.076,6.8H0V0L6.076,6.063V6.8Z" transform="translate(404.585 1043.372)"/><path class="e" d="M0,0,7.446,7.436H0Z" transform="translate(403.214 1042)"/></g></g></svg>