<svg xmlns="http://www.w3.org/2000/svg" width="237" height="237" viewBox="0 0 237 237">
  <g id="Group_2547" data-name="Group 2547" transform="translate(-1042 -2157)">
    <path id="Path_2906" data-name="Path 2906" d="M0,0H237V237H0Z" transform="translate(1042 2157)" fill="#fff"/>
    <g id="Group_2264" data-name="Group 2264" transform="translate(1069 2267)">
      <path id="Path_275" data-name="Path 275" d="M0,8.965C0,4.013,7.245,0,16.21,0S32.42,4.013,32.42,8.965,25.175,17.93,16.21,17.93C7.245,17.878,0,13.864,0,8.965Z" fill="#304d9d"/>
      <path id="Path_276" data-name="Path 276" d="M16.1,9.966a7.977,7.977,0,0,1,15.949,0,7.977,7.977,0,0,1-15.949,0Z" transform="translate(-7.708 -1.053)" fill="#fff"/>
      <path id="Path_277" data-name="Path 277" d="M25.606,7.6s-.521,1.355-.678,1.668-.313.208-.365.052a2.95,2.95,0,0,0-2.033-1.459c-1.876-.156-2.867,1.772-3.284,3.44-.886,3.857,1.928,7.245,4.587,7.245a2.1,2.1,0,0,0,1.876-.938A17.014,17.014,0,0,0,26.8,15.522c.1-.1.261-.208.365-.1.261.208,1.824,2.189,2.137,2.554a.241.241,0,0,0,.417,0c.156-.208.365-.365.521-.573a.563.563,0,0,0,0-.573c-.156-.313-1.981-2.554-2.085-2.919a1.017,1.017,0,0,1-.052-1.095c.1-.313,2.4-5.16,2.4-5.16h-4.9Z" transform="translate(-9.136 -3.639)"/>
      <path id="Path_278" data-name="Path 278" d="M23.807,17.173c-.365.73-.573.678-1.095.313-.469-.313-.782-1.981-.573-3.232a3.965,3.965,0,0,1,1.095-2.4.634.634,0,0,1,.834,0c.417.365.938.99,1.042,1.095.365.469.261.886,0,1.512-.417.834-.938,1.981-1.3,2.71Z" transform="translate(-10.569 -5.602)" fill="#fff"/>
      <path id="Path_279" data-name="Path 279" d="M79.21,13.822l1.251,2.085c.469.782.417,1.042-1.2,1.042v.521h5.316V16.95A1.79,1.79,0,0,1,82.7,15.907L76.448,5.9H75.3L69.568,16.064c-.417.73-.73.834-1.668.834v.521h4.274V16.9c-1.564,0-1.668-.156-1.147-1.147l.99-1.928H79.21Zm-.417-.625H72.382l2.971-5.473h.1L78.793,13.2Z" transform="translate(-32.51 -2.825)" fill-rule="evenodd"/>
      <path id="Path_280" data-name="Path 280" d="M115.735,15.056h-1.042c-.73,1.772-.99,1.928-2.5,1.928h-4.535c-.678,0-.834-.1-.834-.73V8.02c0-1.147.1-1.2,2.085-1.2V6.3H102.6v.521c1.876,0,2.033.1,2.033,1.2v7.87c0,1.147-.156,1.2-2.033,1.2v.521h12.2l.938-2.554Z" transform="translate(-49.123 -3.016)"/>
      <path id="Path_281" data-name="Path 281" d="M141.124,10h-.99c0,1.355-.261,1.564-1.355,1.564h-3.753V7.707c0-.678.1-.782.938-.782h4.482c1.407,0,1.668.156,2.345,1.824h1.042l-.886-2.45H130.7v.521c1.928,0,2.085.1,2.085,1.2v7.922c0,1.095-.156,1.2-2.085,1.2v.521h6.828v-.521c-2.4,0-2.5-.1-2.5-1.2V12.19h3.753c1.147,0,1.355.1,1.355,1.564h.99V10Z" transform="translate(-62.577 -3.016)"/>
      <path id="Path_282" data-name="Path 282" d="M165.858,13.822l1.251,2.085c.469.782.417,1.042-1.2,1.042v.521h5.316V16.95a1.79,1.79,0,0,1-1.876-1.042L163.1,5.9h-1.147l-5.681,10.164c-.417.73-.73.834-1.668.834v.521h4.274V16.9c-1.564,0-1.668-.156-1.147-1.147l.99-1.928h7.141Zm-.417-.625H159.03L162,7.724h.1l3.336,5.473Z" transform="translate(-74.02 -2.825)" fill-rule="evenodd"/>
      <path id="Path_283" data-name="Path 283" d="M192.579,6.978h2.762c1.459,0,1.668.052,2.241,1.876h.99L198,6.3H185.073L184.5,8.854h.99c.521-1.824.73-1.876,2.189-1.876h2.762V15.89c0,1.095-.1,1.2-2.293,1.2v.521h6.828v-.521c-2.189,0-2.293-.1-2.293-1.2V6.978Z" transform="translate(-88.336 -3.016)"/>
      <path id="Path_284" data-name="Path 284" d="M229.019,8.02c0-1.095.156-1.2,2.033-1.2V6.3h-6.046v.521c1.668,0,1.824.1,1.824,1.2v3.388h-8.809V8.02c0-1.095.156-1.2,1.824-1.2V6.3H213.8v.521c1.876,0,2.033.1,2.033,1.2v7.922c0,1.095-.156,1.2-2.033,1.2v.521h6.046v-.521c-1.668,0-1.824-.1-1.824-1.2V12.033h8.809v3.909c0,1.095-.156,1.2-1.824,1.2v.521h6.046v-.521c-1.876,0-2.033-.1-2.033-1.2V8.02Z" transform="translate(-102.364 -3.016)"/>
      <path id="Path_285" data-name="Path 285" d="M263.947,17.61l.938-2.5h-1.042c-.73,1.772-.99,1.824-2.5,1.824h-5.733c-.521,0-.73-.052-.73-.678V11.981h4.274c1.147,0,1.355.1,1.355,1.564h.99V9.792h-.99c0,1.407-.156,1.564-1.355,1.564h-4.274V7.707c0-.678.1-.73.938-.73h4.8c1.407,0,1.668.052,2.345,1.772H264l-.834-2.45H250.5v.521c1.928,0,2.137.1,2.137,1.2v7.922c0,1.095-.156,1.2-2.137,1.2v.521h13.447Z" transform="translate(-119.936 -3.016)"/>
      <path id="Path_286" data-name="Path 286" d="M290.782,12.29a10.346,10.346,0,0,0,3.8-.938A2.436,2.436,0,0,0,296.1,9.267c0-.938-.678-1.668-1.876-2.137A13.935,13.935,0,0,0,288.7,6.4h-7.3v.521c1.981,0,2.137.1,2.137,1.2v7.922c0,1.095-.156,1.2-2.137,1.2v.521h6.463v-.521c-2.033,0-2.137-.052-2.137-1.2v-3.6h2.815l5.629,5.212h3.648v-.521A3.227,3.227,0,0,1,295,16.042l-4.222-3.753Zm-5-4.326c0-.834.052-.938.73-.938H288.7a8.572,8.572,0,0,1,3.909.625,1.862,1.862,0,0,1,1.251,1.616,1.984,1.984,0,0,1-1.3,1.824,10.159,10.159,0,0,1-4.43.73h-2.345V7.964Z" transform="translate(-134.73 -3.064)" fill-rule="evenodd"/>
      <path id="Path_287" data-name="Path 287" d="M329.446,6.3l-5.108,9.33h-.052L318.97,6.3H314.8v.521c1.772,0,1.876.1,1.876,1.147V15.89c0,1.095-.1,1.2-1.876,1.2v.521h4.743v-.521c-1.616,0-1.72-.1-1.72-1.2V7.916h.052l5.577,9.8h.834l5.368-9.747h.052v7.975c0,1.095-.1,1.2-1.772,1.2v.521h5.89v-.521c-1.772,0-1.929-.1-1.929-1.2V8.02c0-1.095.1-1.2,1.876-1.2V6.3Z" transform="translate(-150.722 -3.016)"/>
    </g>
  </g>
</svg>
