<svg xmlns="http://www.w3.org/2000/svg" width="237" height="237" viewBox="0 0 237 237">
  <g id="Group_2550" data-name="Group 2550" transform="translate(-1042 -2424)">
    <rect id="Rectangle_949" data-name="Rectangle 949" width="237" height="237" transform="translate(1042 2424)" fill="#fff"/>
    <g id="SIGLE__x2B__Filet_Final_1_" transform="translate(1072.648 2513.894)">
      <rect id="Rectangle_466" data-name="Rectangle 466" width="63.317" height="1.541" transform="translate(111.352 35.31)" fill="#ee3124"/>
      <rect id="Rectangle_467" data-name="Rectangle 467" width="63.317" height="1.541" transform="translate(0 35.31)" fill="#ee3124"/>
      <g id="Group_52" data-name="Group 52" transform="translate(67.693)">
        <g id="Group_51" data-name="Group 51">
          <g id="Group_50" data-name="Group 50">
            <g id="Group_49" data-name="Group 49">
              <rect id="Rectangle_468" data-name="Rectangle 468" width="39.315" height="36.85" fill="#ee3124"/>
            </g>
          </g>
        </g>
      </g>
      <g id="Group_57" data-name="Group 57" transform="translate(72.068 4.437)">
        <g id="Group_56" data-name="Group 56">
          <g id="Group_55" data-name="Group 55">
            <g id="Group_53" data-name="Group 53" transform="translate(0 3.697)">
              <path id="Path_288" data-name="Path 288" d="M233.9,36.6V48.276h5.269v-9.49l4.93-4.93,4.93,4.961v9.459H254.3V36.6L244.1,26.4Z" transform="translate(-233.9 -26.4)" fill="#fff"/>
            </g>
            <g id="Group_54" data-name="Group 54" transform="translate(15.529)">
              <path id="Path_289" data-name="Path 289" d="M290.555,14.4,284.3,16.187l9.243,9.243V38.186l5.7-2.9v-12.2Z" transform="translate(-284.3 -14.4)" fill="#fff"/>
            </g>
          </g>
        </g>
      </g>
      <path id="Path_290" data-name="Path 290" d="M0,155.226V141.7H4.529c2.126,0,3.6.863,3.6,3.482a2.82,2.82,0,0,1-1.479,2.8v.062c1.91.246,2.65,1.541,2.65,3.451,0,2.865-2.126,3.7-4.406,3.7Zm3.05-8.1h.462c.986,0,1.879-.277,1.879-1.417,0-1.263-.924-1.448-2-1.448H3.05Zm0,5.577h.524c1.2,0,2.711-.031,2.711-1.541,0-1.664-1.417-1.633-2.773-1.6H3.02Z" transform="translate(0 -98.04)" fill="#141006"/>
      <path id="Path_291" data-name="Path 291" d="M49.719,147.263c0,4.437-2.927,7.456-6.809,7.456-3.851,0-6.809-3.02-6.809-7.456a6.811,6.811,0,1,1,13.619,0Zm-10.476,0c0,2.372,1.571,4.19,3.636,4.19,2.034,0,3.636-1.818,3.636-4.19a3.768,3.768,0,0,0-3.636-3.759A3.811,3.811,0,0,0,39.243,147.263Z" transform="translate(-24.977 -97.072)"/>
      <path id="Path_292" data-name="Path 292" d="M90.55,155.226H87.5V141.7h3.05Z" transform="translate(-60.54 -98.04)"/>
      <path id="Path_293" data-name="Path 293" d="M112.071,144.2a3.266,3.266,0,0,0-2.126-.863,1.393,1.393,0,0,0-1.51,1.263c0,.8.739,1.14,1.479,1.387l.863.277c1.633.524,3.02,1.448,3.02,3.667a4.865,4.865,0,0,1-1.263,3.6,5.183,5.183,0,0,1-3.482,1.263,7.484,7.484,0,0,1-4.252-1.479l1.294-2.65A4.237,4.237,0,0,0,108.96,152a1.524,1.524,0,0,0,1.695-1.479c0-1.109-1.325-1.448-2.034-1.664-1.879-.616-3.328-1.109-3.328-3.759a4.165,4.165,0,0,1,4.19-4.5,7.7,7.7,0,0,1,3.759,1.078Z" transform="translate(-72.51 -97.279)"/>
      <path id="Path_294" data-name="Path 294" d="M168.427,153a7.584,7.584,0,0,1-4.314,1.664,3.712,3.712,0,0,1-3.913-3.821c0-2.064,1.14-3.02,2.619-3.728l.4-.216-.308-.493a3.725,3.725,0,0,1-.894-2.342,3.6,3.6,0,0,1,3.759-3.667,3.675,3.675,0,0,1,3.821,3.636c0,1.725-1.078,2.527-2.372,3.266l1.725,2a10.889,10.889,0,0,0,1.664-1.91l1.695,1.756-1.725,2.034h0l2.711,3.112h-3.759Zm-3.759-4.437a2.307,2.307,0,0,0-1.294,1.787,1.423,1.423,0,0,0,1.51,1.356,3.375,3.375,0,0,0,1.91-.647Zm2.588-4.529a1.272,1.272,0,0,0-1.2-1.387,1.176,1.176,0,0,0-1.171,1.263,3.908,3.908,0,0,0,1.078,1.972A2.338,2.338,0,0,0,167.256,144.036Z" transform="translate(-110.84 -97.141)"/>
      <path id="Path_295" data-name="Path 295" d="M228.934,141.7h3.02l2.619,7.549,2.773-7.549h3.05l1.879,13.5h-3.02l-.924-8.042h-.123l-3.05,8.042h-1.14l-2.927-8.042h-.154l-1.048,8.042H226.9Z" transform="translate(-156.989 -98.04)"/>
      <path id="Path_296" data-name="Path 296" d="M284.1,152.892l-.863,2.4H280l4.745-13.5h3.389l4.652,13.5h-3.235l-.8-2.4Zm2.4-7.179h-.154L284.93,150.4h2.989Z" transform="translate(-193.728 -98.11)"/>
      <path id="Path_297" data-name="Path 297" d="M326.7,155.226h-3.05V144.5H321v-2.8h8.411v2.8h-2.681v10.722Z" transform="translate(-222.096 -98.04)"/>
      <path id="Path_298" data-name="Path 298" d="M357.52,144.573v2.5h3.667v2.8H357.52v2.588H361.4V155.3h-6.9V141.8h6.9v2.8H357.52Z" transform="translate(-245.274 -98.11)"/>
      <path id="Path_299" data-name="Path 299" d="M360.371,128.682l-1.171-.924,2.188-2.958,1.664,1.294Z" transform="translate(-248.526 -86.347)"/>
      <path id="Path_300" data-name="Path 300" d="M395.775,155.3h-3.759l-3.143-5.392h-.154V155.3H385.7V141.8h4.714c2.465,0,4.283,1.2,4.283,4.129a3.545,3.545,0,0,1-2.8,3.79Zm-7.056-7.364h.431c1.14,0,2.372-.308,2.372-1.787s-1.109-1.849-2.372-1.849h-.431Z" transform="translate(-266.861 -98.11)"/>
      <path id="Path_301" data-name="Path 301" d="M427.02,155.3H424V141.8h3.02Z" transform="translate(-293.36 -98.11)"/>
      <path id="Path_302" data-name="Path 302" d="M443.7,152.892l-.863,2.4H439.6l4.745-13.5h3.389l4.653,13.5h-3.235l-.8-2.372Zm2.4-7.179h-.154L444.5,150.4h3.02Z" transform="translate(-304.153 -98.11)"/>
      <path id="Path_303" data-name="Path 303" d="M497.292,141.8v7.61c0,1.571-.031,3.42-1.263,4.745a6.282,6.282,0,0,1-8.134.031c-1.232-1.325-1.294-3.174-1.294-4.776V141.8h3.019v7.117c0,2.1.246,3.821,2.342,3.821s2.311-1.818,2.311-3.821V141.8Z" transform="translate(-336.672 -98.11)"/>
      <path id="Path_304" data-name="Path 304" d="M527.624,141.8h3.728l1.972,3.667L535.3,141.8h3.728l-3.913,6.286,4.56,7.21H536l-2.68-4.591L530.4,155.3h-3.7l4.837-7.21Z" transform="translate(-364.417 -98.11)"/>
    </g>
  </g>
</svg>
