<?xml version="1.0" encoding="utf-8"?>
<!-- Generator: Adobe Illustrator 24.0.0, SVG Export Plug-In . SVG Version: 6.00 Build 0)  -->
<svg version="1.1" id="Layer_1" xmlns="http://www.w3.org/2000/svg" xmlns:xlink="http://www.w3.org/1999/xlink" x="0px" y="0px"
	 viewBox="0 0 237 237" style="enable-background:new 0 0 237 237;" xml:space="preserve">
<style type="text/css">
	.st0{fill:#FFFFFF;}
	.st1{fill:#F59228;}
	.st2{fill:#050608;}
</style>
<path id="Path_2906" class="st0" d="M0,0h237v237H0V0z"/>
<g>
	<path class="st1" d="M63.6,109.9c0-6.4,0-12.9,0-19.4c0-0.2,0-0.5,0-0.7c0-0.2,0.1-0.4,0.3-0.4c0.5-0.1,1.1-0.1,1.6,0
		c0.2,0.1,0.4,0.2,0.4,0.5c0,0.2,0,0.4,0,0.6c0,9.4,0,18.8,0,28.2c0,3.3,0,6.6,0,9.8c-0.1,3.3-0.9,6.4-2.5,9.3
		c-1.8,3.1-4.2,5.5-7.2,7.3c-1.4,0.8-2.8,1.4-4.4,1.8c-2.5,0.8-5,0.8-7.6,0.7c-1-0.1-2-0.4-2.9-0.6c-2.4-0.6-4.5-1.7-6.5-3.2
		c-3.2-2.4-5.4-5.5-6.7-9.3c-0.7-2-1-4.1-1-6.2c0-2.4,0.5-4.7,1.3-6.9c1.5-3.9,4-7,7.4-9.2c1.9-1.2,3.9-2.2,6.2-2.6
		c1.5-0.3,3-0.5,4.5-0.5c0.8,0,0.8,0.1,0.9,0.8c0.1,1.5,0.1,1.5-1.4,1.4c-0.3,0-0.6,0.1-1,0.1c-1.2,0.1-2.4,0.3-3.5,0.6
		c-2.2,0.8-4.3,1.8-6,3.4c-1.8,1.6-3.3,3.4-4.3,5.6c-0.9,1.8-1.4,3.7-1.6,5.7c-0.3,2.3,0,4.6,0.7,6.8c1.1,3.5,3.1,6.4,6,8.6
		c1.4,1.1,2.9,1.9,4.4,2.5c0.7,0.3,1.4,0.4,2.1,0.6c1.8,0.5,3.5,0.3,5.3,0.3c1.4,0,2.8-0.4,4.2-0.9c3.1-1.1,5.7-3,7.7-5.6
		c1.6-2,2.6-4.2,3.2-6.7c0.3-1.2,0.5-2.5,0.5-3.8C63.6,122.3,63.6,116.1,63.6,109.9L63.6,109.9z"/>
	<path class="st2" d="M198.8,107.8c1.5,0,3,0,4.5,0c0.9,0,1.9,0.1,2.8,0.4c2.1,0.6,3.3,1.9,3.6,4.1c0.1,0.8,0.2,1.7,0.1,2.5
		c-0.1,1.9,0.1,3.7-0.1,5.6c-0.3,2.6-1.7,4.1-4.3,4.5c-0.9,0.1-1.8,0.2-2.7,0.2c-2.7,0-5.4,0-8.2,0c-1.1,0-2.1-0.1-3.1-0.4
		c-2-0.5-3.2-1.8-3.5-3.9c-0.1-0.7-0.2-1.4-0.2-2.2c0-1.6,0-3.1,0-4.7c0-0.7,0.1-1.4,0.2-2.1c0.4-2.2,1.9-3.5,4.2-3.8
		c1.4-0.2,2.7-0.2,4.1-0.2C197.1,107.8,197.9,107.8,198.8,107.8z M198.8,120.7C198.8,120.7,198.8,120.7,198.8,120.7
		c1.2,0,2.4,0.1,3.6,0c1.6-0.1,2.1-0.6,2.2-2.2c0.1-1,0.1-2.1,0.1-3.1c0-2.4-0.8-3.2-3.2-3.2c-1.5,0-2.9,0-4.4,0
		c-0.6,0-1.2,0-1.9,0.1c-1.2,0.1-2.2,0.7-2.3,2.3c-0.1,1.3-0.1,2.6,0,3.9c0.2,1.6,0.7,2.1,2.3,2.2
		C196.4,120.8,197.6,120.7,198.8,120.7z"/>
	<path class="st2" d="M71.5,116.5c0-2.6,0-5.1,0-7.7c0-0.9,0-0.8,0.7-0.8c5,0,10,0,15,0c0.8,0,1.6,0.1,2.4,0.4
		c1.9,0.6,3.1,1.9,3.3,3.9c0.2,2.7,0.2,5.5,0,8.2c-0.2,2.3-1.5,3.6-3.9,4.1c-0.8,0.2-1.6,0.2-2.4,0.2c-4.7,0-9.4,0-14.1,0
		c-1,0-0.9,0.1-0.9-0.9C71.5,121.5,71.5,119,71.5,116.5z M76.4,112.4c0,2.4,0,4.9,0,7.4c0,0.7,0,0.7,0.7,0.7c2.3,0,4.7,0,7,0
		c0.6,0,1.2,0,1.8-0.1c1.4-0.1,2-0.7,2.1-2c0.1-1.4,0.1-2.8,0-4.1c-0.1-1.5-1.1-2-2.1-2c-0.2,0-0.4,0-0.6,0c-2.6,0-5.3,0-8,0
		C77,112.3,76.7,112.2,76.4,112.4z"/>
	<path class="st1" d="M59.3,110.1c0-6.5,0-13,0-19.6c0-1,0.1-1.1,1.1-1.1c0.2,0,0.4,0,0.6,0c0.5,0,0.7,0.2,0.6,0.7
		c0,0.2,0,0.5,0,0.7c0,12.6,0,25.2,0,37.7c0,4.1-1.6,7.7-4.5,10.6c-1.7,1.7-3.7,2.8-5.9,3.6c-2.4,0.8-4.7,0.9-7.1,0.6
		c-1.6-0.2-3.2-0.8-4.7-1.6c-3.2-1.8-5.5-4.3-6.8-7.6c-1.1-2.8-1.5-5.6-0.8-8.6c0.6-3,2-5.6,4-7.8c1.6-1.6,3.5-2.8,5.6-3.6
		c1.8-0.7,3.7-1.1,5.6-0.9c0.4,0,0.5,0.2,0.5,0.5c0.1,1.8,0.1,1.7-1.7,1.8c-2.9,0.1-5.5,1.2-7.7,3.2c-1.2,1.1-2.3,2.4-3,3.9
		c-1.3,2.6-1.7,5.4-1.1,8.3c0.4,2,1.3,3.9,2.6,5.5c1.5,1.8,3.3,3.1,5.5,4c2.1,0.8,4.2,0.9,6.3,0.7c1.4-0.1,2.8-0.6,4.1-1.3
		c2.6-1.4,4.5-3.4,5.7-6.1c0.7-1.6,1.1-3.2,1.1-4.9C59.3,122.5,59.4,116.3,59.3,110.1C59.3,110.1,59.3,110.1,59.3,110.1z"/>
	<path class="st2" d="M135.8,118.3c1.8,0.6,2.3,2,2.2,3.7c0,0.8,0,1.6,0,2.4c0,0.4-0.1,0.7-0.6,0.6c-1.3,0-2.6,0-3.8,0
		c-0.5,0-0.6-0.2-0.5-0.6c0-0.6,0-1.2,0-1.9c-0.1-1.4-0.5-1.9-1.9-1.9c-2.4,0-4.8,0-7.2,0c-0.5,0-0.7,0.2-0.7,0.7c0,1,0,2,0,3.1
		c0,0.5-0.1,0.7-0.6,0.7c-1.2-0.1-2.4-0.1-3.6,0c-0.6,0-0.6-0.2-0.6-0.7c0-3.1,0-6.3,0-9.4c0-2,0-4.1,0-6.1c0-0.7,0-0.7,0.7-0.7
		c4.9,0,9.8,0,14.6,0c0.7,0,1.4,0.1,2,0.4c1.3,0.5,2,1.6,2.2,2.9c0.2,1.2,0.2,2.3,0.1,3.5C138.1,116.5,137.5,117.7,135.8,118.3z
		 M127.8,116.3c1.2,0,2.5,0,3.7,0c1.3,0,1.8-0.5,1.9-1.8c0-0.1,0-0.3,0-0.4c-0.1-1.4-0.5-1.8-1.8-1.9c-2.5,0-5,0-7.6,0
		c-0.4,0-0.6,0.1-0.6,0.5c0,1,0,2,0,2.9c0,0.4,0.1,0.6,0.6,0.6C125.3,116.3,126.5,116.3,127.8,116.3z"/>
	<path class="st2" d="M180.7,114.3c-0.2-0.2-0.1-0.4-0.2-0.6c-0.1-0.9-0.4-1.2-1.4-1.4c-0.3-0.1-0.7-0.1-1.1-0.1c-1.7,0-3.3,0-5,0
		c-2.4,0-3.3,0.9-3.3,3.3c0,1.2-0.1,2.4,0.1,3.5c0.3,1.1,0.8,1.6,1.9,1.6c1.5,0.1,2.9,0.1,4.4,0.1c0.9,0,1.8,0,2.7-0.1
		c1.1-0.1,1.5-0.5,1.7-1.6c0.1-0.7,0.1-0.7,0.8-0.7c1.2,0,2.4,0,3.6,0c0.4,0,0.6,0.1,0.6,0.6c0,0.7,0,1.5-0.1,2.2
		c-0.3,2.1-1.4,3.4-3.6,3.7c-0.8,0.1-1.6,0.2-2.3,0.2c-2.7,0-5.4,0-8.2,0c-1.1,0-2.2-0.1-3.2-0.4c-1.8-0.5-2.9-1.6-3.4-3.5
		c-0.1-0.6-0.2-1.3-0.2-2c0-1.9,0-3.8,0-5.7c0-0.7,0.1-1.4,0.3-2c0.5-2,1.9-3.1,3.9-3.5c0.8-0.2,1.7-0.2,2.5-0.2c2.4,0,4.7,0,7.1,0
		c1.4,0,2.8,0.1,4.2,0.5c1.4,0.4,2.3,1.4,2.6,2.8c0.2,0.9,0.2,1.8,0.2,2.6c0,0.3-0.1,0.5-0.5,0.5
		C183.5,114.3,182.1,114.3,180.7,114.3z"/>
	<path class="st2" d="M163.6,124.9c-1.6,0-3.3,0-5,0c-0.4,0-0.5-0.2-0.6-0.5c-0.3-0.6-0.7-1.3-1-1.9c-0.2-0.4-0.4-0.6-0.9-0.6
		c-2.9,0-5.8,0-8.7,0c-0.5,0-0.7,0.2-0.9,0.6c-0.3,0.7-0.7,1.4-1,2c-0.1,0.3-0.3,0.4-0.6,0.4c-1.7,0-3.3,0-5.1,0
		c0.3-0.6,0.5-1.1,0.8-1.6c2.5-4.8,5-9.7,7.5-14.5c0.3-0.5,0.6-0.7,1.2-0.7c1.7,0,3.3,0,5,0c0.5,0,0.8,0.1,1,0.6
		c2.7,5.3,5.4,10.5,8.2,15.7C163.6,124.5,163.7,124.7,163.6,124.9z M151.8,112c-1,2.1-2,4.1-3,6.2c2.1,0,4.1,0,6.1,0
		C153.8,116.1,152.8,114.2,151.8,112z"/>
	<path class="st2" d="M95.4,114.1c0-1.8,0-3.6,0-5.4c0-0.7,0-0.7,0.7-0.7c1.2,0,2.4,0,3.5,0c0.8,0,0.7-0.1,0.7,0.8
		c0,2.9,0,5.9,0,8.8c0,0.5,0,1,0.1,1.5c0.3,0.9,0.8,1.4,1.8,1.6c0.2,0,0.4,0.1,0.6,0.1c1.8,0,3.5,0,5.3,0c1.4,0,2.4-0.6,2.5-2.3
		c0.1-1,0.1-2.1,0.1-3.1c0-2.2,0-4.5,0-6.7c0-0.4,0.1-0.6,0.5-0.6c1.3,0,2.6,0,3.8,0c0.4,0,0.6,0.1,0.6,0.5c0,3.7,0,7.4,0,11.1
		c0,0.7-0.2,1.5-0.4,2.2c-0.7,1.7-2,2.6-3.7,3c-0.7,0.2-1.4,0.3-2.1,0.3c-2.6,0-5.1,0-7.7,0c-0.9,0-1.7-0.1-2.5-0.4
		c-2-0.5-3.1-1.8-3.5-3.8c-0.1-0.6-0.2-1.3-0.2-2C95.4,117.4,95.4,115.8,95.4,114.1z"/>
	<path class="st1" d="M57.4,110c0,6,0,12,0,18c0,1.6-0.2,3.1-0.7,4.6c-0.6,1.5-1.5,2.6-2.6,3.7c-1.3,1.3-2.9,2.2-4.7,2.6
		c-1.3,0.3-2.5,0.4-3.9,0.2c-2-0.2-3.6-0.9-5.2-2c-2.4-1.8-3.9-4.3-4.2-7.4c-0.4-3.4,0.7-6.2,2.9-8.7c1.3-1.4,3-2.4,4.9-2.9
		c1-0.3,1.9-0.3,2.9-0.3c0.4,0,0.6,0.1,0.6,0.6c0,1.7,0.1,1.7-1.6,1.8c-2.3,0.1-4.1,1.2-5.6,2.9c-0.7,0.9-1.3,1.9-1.6,3
		c-0.3,0.9-0.4,1.9-0.3,2.9c0.2,2.9,1.5,5.3,4.1,6.8c0.9,0.5,1.8,0.8,2.9,1.1c2.8,0.6,5.1-0.3,7.1-2c1.6-1.4,2.5-3.3,2.7-5.4
		c0.2-4,0.1-8,0.1-12c0-1.6-0.1-3.3-0.1-4.9c0.1-1.8,0-3.6,0-5.4c0-1,0.1-2.1,0.1-3.1c0-1.2-0.1-2.3-0.1-3.4
		c0.1-3.5,0.1-6.9,0.1-10.4c0-0.7,0.1-0.8,0.7-0.9c0.2,0,0.3,0,0.5,0c1,0,1,0.1,1,1C57.4,96.8,57.4,103.4,57.4,110z"/>
	<path class="st1" d="M53,109.7c0,6.4,0,12.8,0,19.3c0,2.4-1.3,4.2-3.5,5.4c-1,0.5-2.1,0.8-3.3,0.8c-2.7-0.2-5.4-2.4-5.9-5.1
		c-0.3-1.5-0.2-2.8,0.4-4.2c0.8-1.8,2.1-2.9,3.9-3.5c0.7-0.2,1.4-0.2,2.1-0.3c0.4,0,0.7,0.2,0.7,0.6c0,0.1,0,0.3,0,0.4
		c0,1.2,0,1.2-1.2,1.3c-2.7,0.2-4.3,3-3.7,5.2c0.5,1.7,1.6,2.8,3.2,3.2c1.5,0.4,2.9-0.2,4-1.4c0.7-0.7,1-1.6,0.9-2.6
		c0-3.1-0.1-6.3,0-9.4c0.2-9.3,0-18.5,0.1-27.8c0-0.5,0-0.9,0-1.4c0-0.7,0-0.8,0.8-0.8c1.7,0,1.4-0.2,1.4,1.4
		C53,97.1,53,103.4,53,109.7L53,109.7z"/>
</g>
</svg>
