<svg xmlns="http://www.w3.org/2000/svg" width="237" height="237" viewBox="0 0 237 237">
  <g id="Group_2549" data-name="Group 2549" transform="translate(-1308 -2424)">
    <rect id="Rectangle_950" data-name="Rectangle 950" width="237" height="237" transform="translate(1308 2424)" fill="#fff"/>
    <g id="Group_58" data-name="Group 58" transform="translate(1335.705 2526.79)">
      <path id="Path_305" data-name="Path 305" d="M257.2,154.338V150.1h2.345v.649h-1.605v1.226H259.4v.649h-1.461v1.713Z" transform="translate(-210.812 -123.028)" fill="#1e1645"/>
      <path id="Path_306" data-name="Path 306" d="M291.615,153.689v.649H289V150.1h2.579v.649H289.7v1.136h1.731v.631H289.7v1.172Z" transform="translate(-236.877 -123.028)" fill="#1e1645"/>
      <path id="Path_307" data-name="Path 307" d="M326.068,153.238V150.1h.7v4.238h-.7l-2.164-3.1v3.1h-.7V150.1h.739Z" transform="translate(-264.909 -123.028)" fill="#1e1645"/>
      <path id="Path_308" data-name="Path 308" d="M366.315,153.689v.649H363.7V150.1h2.579v.649h-1.858v1.136h1.713v.631h-1.713v1.172Z" transform="translate(-298.104 -123.028)" fill="#1e1645"/>
      <path id="Path_309" data-name="Path 309" d="M429.956,154.338h-.721v-3.589H427.9V150.1h3.391v.649h-1.335Z" transform="translate(-350.725 -123.028)" fill="#1e1645"/>
      <path id="Path_310" data-name="Path 310" d="M501.092,150.867l-.721,1.948h1.443Zm-.956,2.561-.361.992H499l1.641-4.22h.884l1.641,4.22h-.794l-.361-.992Z" transform="translate(-409.002 -123.11)" fill="#1e1645"/>
      <path id="Path_311" data-name="Path 311" d="M537.556,154.338h-.721v-3.589H535.5V150.1h3.391v.649h-1.335Z" transform="translate(-438.919 -123.028)" fill="#1e1645"/>
      <rect id="Rectangle_469" data-name="Rectangle 469" width="0.721" height="4.22" transform="translate(103.255 27.072)" fill="#1e1645"/>
      <path id="Path_312" data-name="Path 312" d="M642.25,153.238V150.1h.7v4.238h-.685l-2.164-3.1v3.1h-.7V150.1h.74Z" transform="translate(-524.079 -123.028)" fill="#1e1645"/>
      <path id="Path_313" data-name="Path 313" d="M784.9,150.1h.721v3.589h1.731v.649H784.9Z" transform="translate(-643.338 -123.028)" fill="#1e1645"/>
      <path id="Path_314" data-name="Path 314" d="M854.956,154.338h-.721v-3.589H852.9V150.1h3.391v.649h-1.335Z" transform="translate(-699.073 -123.028)" fill="#1e1645"/>
      <rect id="Rectangle_470" data-name="Rectangle 470" width="0.721" height="4.22" transform="translate(160.5 27.072)" fill="#1e1645"/>
      <path id="Path_315" data-name="Path 315" d="M959.649,153.238V150.1h.7v4.238h-.685l-2.164-3.1v3.1h-.7V150.1h.74Z" transform="translate(-784.234 -123.028)" fill="#1e1645"/>
      <path id="Path_316" data-name="Path 316" d="M27.022,31.049H7.2V28.524H23.974L27,20.588V31.049ZM3.431,27.334l2.579-6.727v6.727ZM7.2,2.39H27V4.843H10.772L7.2,14.15ZM27.022,17.252l-3.86,10.064H7.2V17.486L11.584,6.034H27V17.252ZM31.315,6.016l-3.1,8.134V6.016Zm1.731-1.19H28.194V1.2H6.011V17.27L1.7,28.524H6.011v3.733H28.194V17.486Z" transform="translate(-1.393 -0.984)" fill="#1e1645"/>
      <path id="Path_317" data-name="Path 317" d="M27.018,5.248v6.763l2.6-6.763h-2.6ZM26.6,14.3V4.834h3.625ZM6.024,1.623V12.03l3.21-8.387H25.412V1.623Zm-.415,12.7V1.19H25.845V4.058H9.523ZM2.345,26.134H4.4V20.759Zm2.489.415h-3.1l3.1-8.1v8.1Zm1.19-.415h15.6l3.788-9.9V5.248H10.353L6.024,16.539Zm15.889.415H5.609l.018-10.136,4.437-11.6H25.845L25.827,16.34Zm-15.889,3.3H25.412V20.741l-2.687,7.016H6.024Zm19.8.433H5.609V27.324H22.454l3.391-8.856V30.282Zm-20.994.776H26.6l.018-14.627L31.364,4.076H26.621V.415H4.834L4.816,16.34.613,27.324h4.22Zm22.184.415H4.4V27.739H0L4.4,16.232V0H27.018V3.643h4.942l-4.942,12.9Z" fill="#1e1645"/>
      <path id="Path_318" data-name="Path 318" d="M27.022,31.049H7.2V28.524H23.974L27,20.588V31.049ZM3.431,27.334l2.579-6.727v6.727ZM7.2,2.39H27V4.843H10.772L7.2,14.15ZM27.022,17.252l-3.86,10.064H7.2V17.486L11.584,6.034H27V17.252ZM31.315,6.016l-3.1,8.134V6.016Zm1.731-1.19H28.194V1.2H6.011V17.27L1.7,28.524H6.011v3.733H28.194V17.486Z" transform="translate(-1.393 -0.984)" fill="#1e1645"/>
      <path id="Path_319" data-name="Path 319" d="M27.018,5.248v6.763l2.6-6.763h-2.6ZM26.6,14.3V4.834h3.625ZM6.024,1.623V12.03l3.21-8.387H25.412V1.623Zm-.415,12.7V1.19H25.845V4.058H9.523ZM2.345,26.134H4.4V20.759Zm2.489.415h-3.1l3.1-8.1v8.1Zm1.19-.415h15.6l3.788-9.9V5.248H10.353L6.024,16.539Zm15.889.415H5.609l.018-10.136,4.437-11.6H25.845L25.827,16.34Zm-15.889,3.3H25.412V20.741l-2.687,7.016H6.024Zm19.8.433H5.609V27.324H22.454l3.391-8.856V30.282Zm-20.994.776H26.6l.018-14.627L31.364,4.076H26.621V.415H4.834L4.816,16.34.613,27.324h4.22Zm22.184.415H4.4V27.739H0L4.4,16.232V0H27.018V3.643h4.942l-4.942,12.9Z" fill="#1e1645"/>
      <path id="Path_320" data-name="Path 320" d="M265.713,33.015v2.074H257.2V21.4h8.369v2.074h-6.042v3.679h5.609v2.038h-5.609v3.824Z" transform="translate(-210.812 -17.54)" fill="#1e1645"/>
      <path id="Path_321" data-name="Path 321" d="M407.188,31.518V21.4h2.273V35.089h-2.254l-7.034-10.028V35.089H397.9V21.4h2.4Z" transform="translate(-326.136 -17.54)" fill="#1e1645"/>
      <path id="Path_322" data-name="Path 322" d="M567.295,33.015v2.074H558.8V21.4h8.351v2.074h-6.024v3.679h5.591v2.038h-5.591v3.824Z" transform="translate(-458.016 -17.54)" fill="#1e1645"/>
      <rect id="Rectangle_471" data-name="Rectangle 471" width="2.345" height="13.689" transform="translate(179.816 3.86)" fill="#1e1645"/>
      <path id="Path_323" data-name="Path 323" d="M701.845,27.224H703c1.858,0,3.066-.812,3.066-2.579,0-1.569-1.082-2.489-3.156-2.489a10.25,10.25,0,0,0-1.064.054Zm0,6.8H699.5V20.352a23.717,23.717,0,0,1,3.409-.253c3.589,0,5.555,1.587,5.555,4.473a4.176,4.176,0,0,1-2.723,4.058l4.13,5.393h-2.832l-3.643-4.87h-1.551Z" transform="translate(-573.34 -16.475)" fill="#1e1645"/>
      <path id="Path_324" data-name="Path 324" d="M849.274,23.735A5.727,5.727,0,0,0,845.4,22.31a4.637,4.637,0,0,0-4.761,4.96A4.708,4.708,0,0,0,845.4,32.3a4.986,4.986,0,0,0,2.02-.325V29.272h-2.525V27.306h4.87V33.33a8.848,8.848,0,0,1-4.419,1.01c-4.256,0-7.142-2.8-7.142-7.07a6.8,6.8,0,0,1,7.07-7.07,7.412,7.412,0,0,1,3.986,1.046v2.489Z" transform="translate(-687.024 -16.557)" fill="#1e1645"/>
      <path id="Path_325" data-name="Path 325" d="M708.954,153.019a1.757,1.757,0,0,0,1.118.433c.415,0,.775-.162.775-.6,0-.4-.307-.541-.775-.685-.812-.253-1.172-.577-1.172-1.281a1.211,1.211,0,0,1,1.353-1.19,1.835,1.835,0,0,1,1.082.325v.721a1.635,1.635,0,0,0-1.064-.433c-.4,0-.649.216-.649.541,0,.343.234.487.776.649.83.252,1.172.6,1.172,1.317,0,.848-.667,1.226-1.479,1.226a2.006,2.006,0,0,1-1.118-.307v-.721Z" transform="translate(-581.045 -122.701)" fill="#1e1645"/>
      <path id="Path_326" data-name="Path 326" d="M743.582,150.367a1.536,1.536,0,1,0,1.443,1.533,1.437,1.437,0,0,0-1.443-1.533m0-.667a2.182,2.182,0,1,1-2.182,2.182,2.123,2.123,0,0,1,2.182-2.182" transform="translate(-607.683 -122.701)" fill="#1e1645"/>
      <path id="Path_327" data-name="Path 327" d="M816.118,150.1h.721v2.651c0,.812.433,1.028,1.046,1.028a5.466,5.466,0,0,0,.83-.072V150.1h.721v4.112a6.742,6.742,0,0,1-1.551.2c-.956,0-1.786-.343-1.786-1.515v-2.8Z" transform="translate(-668.91 -123.028)" fill="#1e1645"/>
      <path id="Path_328" data-name="Path 328" d="M995.872,153.019a1.757,1.757,0,0,0,1.118.433c.415,0,.776-.162.776-.6,0-.4-.307-.541-.776-.685-.812-.253-1.19-.577-1.19-1.281a1.211,1.211,0,0,1,1.353-1.19,1.835,1.835,0,0,1,1.082.325v.721a1.635,1.635,0,0,0-1.064-.433c-.4,0-.649.216-.649.541,0,.343.234.487.776.649.83.252,1.172.6,1.172,1.317,0,.848-.667,1.226-1.479,1.226a2.005,2.005,0,0,1-1.118-.307Z" transform="translate(-816.2 -122.701)" fill="#1e1645"/>
      <path id="Path_329" data-name="Path 329" d="M915.382,150.367a1.536,1.536,0,1,0,1.443,1.533,1.437,1.437,0,0,0-1.443-1.533m0-.667a2.182,2.182,0,1,1-2.182,2.182,2.123,2.123,0,0,1,2.182-2.182" transform="translate(-748.498 -122.701)" fill="#1e1645"/>
      <path id="Path_330" data-name="Path 330" d="M597.982,150.367a1.536,1.536,0,1,0,1.443,1.533,1.437,1.437,0,0,0-1.443-1.533m0-.667a2.182,2.182,0,1,1-2.182,2.182,2.123,2.123,0,0,1,2.182-2.182" transform="translate(-488.343 -122.701)" fill="#1e1645"/>
      <path id="Path_331" data-name="Path 331" d="M396.454,153.019a1.758,1.758,0,0,0,1.118.433c.415,0,.776-.162.776-.6,0-.4-.307-.541-.776-.685-.812-.253-1.172-.577-1.172-1.281a1.211,1.211,0,0,1,1.353-1.19,1.835,1.835,0,0,1,1.082.325v.721a1.635,1.635,0,0,0-1.064-.433c-.4,0-.649.216-.649.541,0,.343.234.487.776.649.83.252,1.172.6,1.172,1.317,0,.848-.667,1.226-1.479,1.226a2.006,2.006,0,0,1-1.118-.307v-.721Z" transform="translate(-324.906 -122.701)" fill="#1e1645"/>
      <path id="Path_332" data-name="Path 332" d="M465.621,151.982h.361c.577,0,.938-.253.938-.794,0-.487-.343-.776-.974-.776a1.854,1.854,0,0,0-.325.018Zm0,2.11H464.9v-4.22a8.661,8.661,0,0,1,1.046-.072c1.118,0,1.713.487,1.713,1.389a1.306,1.306,0,0,1-.848,1.263l1.281,1.659h-.866l-1.118-1.5h-.469v1.479Z" transform="translate(-381.052 -122.782)" fill="#1e1645"/>
    </g>
  </g>
</svg>
