<svg xmlns="http://www.w3.org/2000/svg" width="237" height="237" viewBox="0 0 237 237">
  <g id="Group_2553" data-name="Group 2553" transform="translate(-775 -2691)">
    <rect id="Rectangle_951" data-name="Rectangle 951" width="237" height="237" transform="translate(775 2691)" fill="#fff"/>
    <g id="Group_61" data-name="Group 61" transform="translate(804.148 2778.839)">
      <g id="Group_59" data-name="Group 59" transform="translate(0.074 54.994)">
        <path id="Path_333" data-name="Path 333" d="M2.473,73.545v5.933H1.954V73.545H.1V73.1H4.327v.445Z" transform="translate(-0.1 -72.952)" fill="#226195"/>
        <path id="Path_334" data-name="Path 334" d="M14.618,79.4v-2.67a1.114,1.114,0,0,0-1.187-1.261,1.114,1.114,0,0,0-1.187,1.261V79.4H11.8V73.1h.445v2.521a1.584,1.584,0,0,1,1.261-.593,1.464,1.464,0,0,1,1.557,1.632V79.4Z" transform="translate(-3.123 -72.952)" fill="#226195"/>
        <path id="Path_335" data-name="Path 335" d="M22.945,78.1c0,1.112.519,1.706,1.409,1.706a1.476,1.476,0,0,0,1.187-.519l.371.3a1.915,1.915,0,0,1-1.557.667c-1.187,0-1.854-.742-1.854-2.225,0-1.409.667-2.225,1.706-2.225s1.706.816,1.706,2.077V78.1H22.945Zm2.373-1.187a1.205,1.205,0,0,0-2.225,0,2.289,2.289,0,0,0-.148.816h2.521C25.466,77.283,25.466,77.135,25.318,76.912Z" transform="translate(-5.888 -73.649)" fill="#226195"/>
        <path id="Path_336" data-name="Path 336" d="M44.582,78.685a2.382,2.382,0,0,1-1.632.742,2.02,2.02,0,0,1-1.557-.667c-.593-.593-.593-1.112-.593-2.6,0-1.409,0-2,.593-2.6a2.134,2.134,0,0,1,1.557-.667,2.25,2.25,0,0,1,1.854.89l-.3.3a2.087,2.087,0,0,0-1.557-.742,1.476,1.476,0,0,0-1.187.519c-.445.445-.519.964-.519,2.3s0,1.854.519,2.3a1.75,1.75,0,0,0,1.187.519,1.857,1.857,0,0,0,1.335-.593,1.823,1.823,0,0,0,.371-1.261v-.593H42.951v-.445H45.1v1.038A2.089,2.089,0,0,1,44.582,78.685Z" transform="translate(-10.616 -72.9)" fill="#226195"/>
        <path id="Path_337" data-name="Path 337" d="M54.138,79.4A1,1,0,0,1,53.1,78.291V73.1h.445v5.191c0,.445.148.742.667.742h.3V79.4Z" transform="translate(-13.795 -72.952)" fill="#226195"/>
        <path id="Path_338" data-name="Path 338" d="M63.292,79.756a1.8,1.8,0,0,1-2.373,0,3.062,3.062,0,0,1,0-3.411,1.8,1.8,0,0,1,2.373,0,3.062,3.062,0,0,1,0,3.411ZM63,76.567a1.253,1.253,0,0,0-1.78,0,1.945,1.945,0,0,0-.371,1.409c0,.519,0,1.112.371,1.409a1.253,1.253,0,0,0,1.78,0,1.945,1.945,0,0,0,.371-1.409A2.372,2.372,0,0,0,63,76.567Z" transform="translate(-15.681 -73.675)" fill="#226195"/>
        <path id="Path_339" data-name="Path 339" d="M74.144,79.107a1.467,1.467,0,0,1-1.038.371,1.377,1.377,0,0,1-1.261-.593V79.4H71.4V73.1h.445v2.6a1.377,1.377,0,0,1,1.261-.593,1.467,1.467,0,0,1,1.038.371,2.516,2.516,0,0,1,.519,1.854A2.223,2.223,0,0,1,74.144,79.107Zm-1.112-3.634c-1.038,0-1.187.89-1.187,1.78s.148,1.78,1.187,1.78,1.187-.89,1.187-1.78S74.07,75.473,73.032,75.473Z" transform="translate(-18.523 -72.952)" fill="#226195"/>
        <path id="Path_340" data-name="Path 340" d="M84.592,80.1v-.445a1.555,1.555,0,0,1-1.335.445c-.667,0-.964-.074-1.261-.371a1.115,1.115,0,0,1-.3-.816c0-.816.593-1.261,1.483-1.261h1.409v-.445c0-.667-.371-1.038-1.187-1.038a1.3,1.3,0,0,0-1.187.519l-.3-.222a1.592,1.592,0,0,1,1.483-.667c1.112,0,1.632.519,1.632,1.409v2.966h-.445Zm0-2H83.257q-1.112,0-1.112.89c0,.593.371.816,1.112.816a1.329,1.329,0,0,0,1.038-.3,1.193,1.193,0,0,0,.222-.816V78.1Z" transform="translate(-21.184 -73.649)" fill="#226195"/>
        <path id="Path_341" data-name="Path 341" d="M93.938,79.4A1,1,0,0,1,92.9,78.291V73.1h.445v5.191c0,.445.148.742.667.742h.3V79.4Z" transform="translate(-24.078 -72.952)" fill="#226195"/>
        <path id="Path_342" data-name="Path 342" d="M107.8,79.378v-.519l3.337-5.414h-3.189V73h3.708v.445l-3.337,5.488h3.337v.445Z" transform="translate(-27.928 -72.926)" fill="#226195"/>
        <path id="Path_343" data-name="Path 343" d="M119.471,73.667a.336.336,0,1,1,.3-.371A.339.339,0,0,1,119.471,73.667Zm-.3,5.71v-4.3h.445v4.3Z" transform="translate(-30.848 -72.926)" fill="#226195"/>
        <path id="Path_344" data-name="Path 344" d="M129.418,80.076v-2.67a1.189,1.189,0,1,0-2.373,0v2.67H126.6v-4.3h.445v.519a1.584,1.584,0,0,1,1.261-.593,1.4,1.4,0,0,1,1.112.445,1.566,1.566,0,0,1,.445,1.187v2.744h-.445Z" transform="translate(-32.786 -73.623)" fill="#226195"/>
        <path id="Path_345" data-name="Path 345" d="M139.254,80.15c-1.187,0-1.854-.816-1.854-2.225,0-1.335.742-2.225,1.854-2.225a1.619,1.619,0,0,1,1.409.667l-.3.3a1.232,1.232,0,0,0-1.112-.519,1.308,1.308,0,0,0-1.112.593,1.983,1.983,0,0,0-.3,1.261,2.122,2.122,0,0,0,.3,1.261,1.308,1.308,0,0,0,1.112.593,1.433,1.433,0,0,0,1.112-.519l.3.3A2.08,2.08,0,0,1,139.254,80.15Z" transform="translate(-35.577 -73.623)" fill="#226195"/>
        <path id="Path_346" data-name="Path 346" d="M155.5,79.4V73.1h3.856v.445h-3.337v2.447h2.892v.445h-2.892v2.521h3.337V79.4Z" transform="translate(-40.253 -72.952)" fill="#226195"/>
        <path id="Path_347" data-name="Path 347" d="M169.144,80.1l-1.112-1.78-1.112,1.78H166.4l1.483-2.225L166.474,75.8h.519l1.112,1.706,1.038-1.706h.519l-1.409,2.077,1.483,2.225Z" transform="translate(-43.07 -73.649)" fill="#226195"/>
        <path id="Path_348" data-name="Path 348" d="M179.644,79.8a1.467,1.467,0,0,1-1.038.371,1.377,1.377,0,0,1-1.261-.593v2.6H176.9v-6.3h.445v.519a1.377,1.377,0,0,1,1.261-.593,1.467,1.467,0,0,1,1.038.371,3.438,3.438,0,0,1,0,3.634Zm-1.112-3.634c-1.038,0-1.187.89-1.187,1.78s.148,1.78,1.187,1.78,1.187-.89,1.187-1.78S179.57,76.171,178.532,76.171Z" transform="translate(-45.783 -73.649)" fill="#226195"/>
        <path id="Path_349" data-name="Path 349" d="M187.845,78.1c0,1.112.519,1.706,1.409,1.706a1.476,1.476,0,0,0,1.187-.519l.371.3a1.916,1.916,0,0,1-1.557.667c-1.187,0-1.854-.742-1.854-2.225,0-1.409.667-2.225,1.706-2.225s1.706.816,1.706,2.077V78.1h-2.966Zm2.373-1.187a1.205,1.205,0,0,0-2.225,0,2.289,2.289,0,0,0-.148.816h2.521A1.984,1.984,0,0,0,190.218,76.912Z" transform="translate(-48.496 -73.649)" fill="#226195"/>
        <path id="Path_350" data-name="Path 350" d="M200.773,76.567a1.062,1.062,0,0,0-.816-.371c-.742,0-1.112.593-1.112,1.335V80.2H198.4V75.9h.445v.593a1.484,1.484,0,0,1,1.261-.593,1.14,1.14,0,0,1,1.038.445Z" transform="translate(-51.338 -73.675)" fill="#226195"/>
        <path id="Path_351" data-name="Path 351" d="M208.632,79.636a1,1,0,0,1-1.038-1.112V75.706H207v-.371h.593V74h.445v1.335H209v.371h-.964v2.818c0,.445.222.742.667.742h.3v.371Z" transform="translate(-53.56 -73.184)" fill="#226195"/>
      </g>
      <g id="Group_60" data-name="Group 60" transform="translate(0 17.023)">
        <path id="Path_352" data-name="Path 352" d="M0,23.4H16.167v2.744H2.818v8.9H16.167v2.744H2.818V48.911H16.167v2.744H0Z" transform="translate(0 -22.139)" fill="#0f4372"/>
        <path id="Path_353" data-name="Path 353" d="M25.2,33.4h2.892l7.045,15.2,6.971-15.2H45L35.286,54.313h-.445Z" transform="translate(-6.511 -24.723)" fill="#226194"/>
        <path id="Path_354" data-name="Path 354" d="M57.644,43.9c.148,4.746,3.411,8.306,7.861,8.306,4.376,0,6.452-2.447,8.009-4.969l2.225,1.187c-2.151,4.153-5.414,6.23-9.938,6.23a10.588,10.588,0,0,1-10.9-10.9A10.772,10.772,0,0,1,65.653,32.7c5.933,0,10.753,4.3,10.828,11.2H57.644Zm15.871-2.373a7.7,7.7,0,0,0-7.861-6.23c-3.708,0-6.526,2-7.787,6.23Z" transform="translate(-14.185 -24.542)" fill="#226194"/>
        <path id="Path_355" data-name="Path 355" d="M95.318,36.26c1.557-2.3,3.263-3.56,5.414-3.56a3.741,3.741,0,0,1,2.373.742l-1.409,2.3a3.222,3.222,0,0,0-1.409-.371c-2,0-3.708,1.706-4.524,4.6a27.667,27.667,0,0,0-.445,6.378v7.935H92.5V33.219h2.818Z" transform="translate(-23.901 -24.542)" fill="#226194"/>
        <path id="Path_356" data-name="Path 356" d="M111.761,26.144V23.4h14.906L114.876,48.911h11.2v2.744H110.5l11.866-25.511H111.761Z" transform="translate(-28.552 -22.139)" fill="#0f4372"/>
        <path id="Path_357" data-name="Path 357" d="M141.35,23.925a2.225,2.225,0,0,1-4.45,0,2.225,2.225,0,0,1,4.45,0Zm-3.486,6.452h2.67V51.29h-2.67Z" transform="translate(-35.373 -21.7)" fill="#226193"/>
        <path id="Path_358" data-name="Path 358" d="M155.222,36.9c2.151-2.818,4.746-4.3,7.861-4.3,4.6,0,7.787,3.189,7.787,9.715V54.033H168.2V42.686c0-4.895-1.557-7.639-5.562-7.639a6.652,6.652,0,0,0-5.488,2.818c-1.557,2.077-1.78,4.079-1.78,7.416v8.751H152.7V33.193h2.67V36.9Z" transform="translate(-39.456 -24.516)" fill="#226193"/>
        <path id="Path_359" data-name="Path 359" d="M204.884,49.88c-2.077,3.115-5.562,4.746-9.789,4.746-6.9,0-11.495-4.969-11.495-10.828,0-6.155,4.82-11.2,11.717-11.2,4,0,7.713,1.632,9.641,4.895l-2.151,1.335a9.046,9.046,0,0,0-7.564-3.634,8.464,8.464,0,1,0,.074,16.909,9.1,9.1,0,0,0,7.49-3.634Z" transform="translate(-47.44 -24.516)" fill="#226193"/>
      </g>
      <path id="Path_360" data-name="Path 360" d="M222.476,3.6l2.151,8.751,8.825,2.151-8.825,2.225-2.151,8.751-2.225-8.751L211.5,14.5l8.751-2.151Z" transform="translate(-54.649 0)" fill="none" stroke="#226193" stroke-miterlimit="10" stroke-width="1.7"/>
    </g>
  </g>
</svg>
