<?xml version="1.0" encoding="utf-8"?>
<!-- Generator: Adobe Illustrator 22.1.0, SVG Export Plug-In . SVG Version: 6.00 Build 0)  -->
<svg version="1.1" id="Layer_1" xmlns="http://www.w3.org/2000/svg" xmlns:xlink="http://www.w3.org/1999/xlink" x="0px" y="0px"
	 viewBox="0 0 237 237" style="enable-background:new 0 0 237 237;" xml:space="preserve">
<style type="text/css">
	.st0{fill:#FFFFFF;}
	.st1{fill:#143158;}
	.st2{fill:#818386;}
</style>
<title>opengate-portfolio-logos-nakan</title>
<rect id="Rectangle_951" class="st0" width="237" height="237"/>
<g>
	<path class="st1" d="M147,106.2v-8.1h-21.6l-0.1,38.8H147v-8.1h-12.2v-7.5h11.6v-8h-11.6v-7.2H147z M99.2,107.9l-3.8-6.8l13-3H83.9
		l11.4,21.7l39.8-38.2L99.2,107.9z M103.8,136.9l16.7-30.7l-19.3,25.4L103.8,136.9z M72.3,137.1h10v-39h-10L72.3,137.1z M44.3,137
		h10v-15.6h11.1v-7.9H54.3v-7.3h12.2v-8.2H44.4L44.3,137z"/>
	<path class="st2" d="M182.5,98.1v24.1L163.8,98h-10v39h9.8v-24.3l18.7,24.3h10.4V98.1H182.5z M100.2,129.1l33.1-43l-36.5,36.3
		L100.2,129.1z"/>
</g>
</svg>
