<svg xmlns="http://www.w3.org/2000/svg" width="237" height="237" viewBox="0 0 237 237">
  <g id="Group_2566" data-name="Group 2566" transform="translate(-1042 -3225)">
    <rect id="Rectangle_958" data-name="Rectangle 958" width="237" height="237" transform="translate(1042 3225)" fill="#fff"/>
    <g id="Group_74" data-name="Group 74" transform="translate(1072.551 3324.187)">
      <path id="Path_395" data-name="Path 395" d="M74.1,21.532H66.769V14.2H62V32.922h4.769V25.8H74.1v7.119h4.769V14.2H74.1Z" transform="translate(-17.865 -4.092)" fill="#77787b"/>
      <path id="Path_396" data-name="Path 396" d="M126.5,14.2h14.522v4.2H130.985v3.2h8.969v4.2h-8.969v7.119H126.5Z" transform="translate(-36.45 -4.092)" fill="#77787b"/>
      <path id="Path_397" data-name="Path 397" d="M162.11,17.9a4.787,4.787,0,0,1,4.271,3.275h5.054a9.43,9.43,0,0,0-9.254-7.474h-.142a9.556,9.556,0,0,0-9.539,9.681,9.58,9.58,0,0,0,9.539,9.752h.214a9.342,9.342,0,0,0,9.183-7.4h-5.054a4.762,4.762,0,0,1-4.271,3.132c-2.99-.071-4.769-2.776-4.769-5.552,0-2.563,1.708-5.339,4.769-5.41" transform="translate(-43.942 -3.948)" fill="#77787b"/>
      <path id="Path_398" data-name="Path 398" d="M203.591,23.481a9.6,9.6,0,0,1-9.61,9.752h-.142a9.518,9.518,0,0,1-9.539-9.468,10.286,10.286,0,0,1,.712-3.986,9.429,9.429,0,0,1,8.827-5.98h.214a9.438,9.438,0,0,1,9.539,9.681m-9.539,5.481c3.2-.071,4.769-3.132,4.769-5.481,0-2.42-1.566-5.481-4.769-5.552a5.223,5.223,0,0,0-4.912,5.481c0,2.847,1.851,5.481,4.912,5.552" transform="translate(-53.105 -3.976)" fill="#77787b"/>
      <path id="Path_399" data-name="Path 399" d="M16.373,0,0,6.478V32.532L16.373,39.01l16.373-6.478V6.478Zm12.6,29.9-8.827,3.488V22.139l-3.773-1.495h0L12.6,22.139V33.386L3.773,29.9V9.041L12.6,5.552V16.8l3.773,1.495L20.145,16.8V5.552l8.827,3.488V29.9Z" fill="#d71920"/>
      <path id="Path_400" data-name="Path 400" d="M0,6.478V32.461l16.373,6.478V20.644L12.6,22.139V33.386L3.773,29.9V9.041L12.6,5.552V16.8l3.773,1.495V0Z" fill="#9e0b0f"/>
      <path id="Path_401" data-name="Path 401" d="M30.5,32.145l-8.827,3.488V24.386L17.9,22.891l-3.773,1.495V35.633L5.3,32.145V11.288L14.127,7.8V19.047L17.9,20.542l3.773-1.495V7.8L30.5,11.288Z" transform="translate(-1.527 -2.248)" fill="#fff"/>
      <g id="Group_71" data-name="Group 71" transform="translate(67.128 10.108)">
        <path id="Path_402" data-name="Path 402" d="M106.33,14.2v9.824a13.823,13.823,0,0,1-.142,2.349,3.061,3.061,0,0,1-1.353,2.064,3.552,3.552,0,0,1-2.064.5,3.22,3.22,0,0,1-3.2-1.922,8.187,8.187,0,0,1-.5-2.99V14.2H94.3v9.681a12.614,12.614,0,0,0,.427,3.986,8.069,8.069,0,0,0,1.78,2.919c1.78,1.922,4.7,2.349,6.336,2.349a8.127,8.127,0,0,0,6.193-2.42c1.424-1.424,2.136-2.99,2.136-6.834V14.2H106.33Z" transform="translate(-94.3 -14.2)" fill="#77787b"/>
      </g>
      <path id="Path_403" data-name="Path 403" d="M229.176,26.586h0a5.1,5.1,0,0,0,1.78-1.139,6.631,6.631,0,0,0,1.993-4.912,6.292,6.292,0,0,0-2.207-4.983c-1-.854-2.278-1.353-5.695-1.353H218V32.922h4.556V27.013h2.207l3.559,5.908h4.769Zm-6.62-8.186h2.705c1,0,3.132,0,3.132,2.207,0,2.278-2.064,2.278-2.99,2.278h-2.847Z" transform="translate(-62.816 -4.092)" fill="#77787b"/>
      <g id="Group_73" data-name="Group 73" transform="translate(171.842 10.393)">
        <g id="Group_72" data-name="Group 72">
          <path id="Path_404" data-name="Path 404" d="M242.112,14.814H241.4V14.6h1.637v.214h-.712v1.78h-.285v-1.78Z" transform="translate(-241.4 -14.6)" fill="#77787b"/>
          <path id="Path_405" data-name="Path 405" d="M244.271,14.6h.356l.641,1.708.641-1.708h.356v2.064h-.285V14.956h0l-.641,1.708h-.214l-.641-1.708h0v1.708H244.2V14.6Z" transform="translate(-242.207 -14.6)" fill="#77787b"/>
        </g>
      </g>
    </g>
  </g>
</svg>
