<svg xmlns="http://www.w3.org/2000/svg" width="237" height="237" viewBox="0 0 237 237">
  <g id="Group_2556" data-name="Group 2556" transform="translate(-775 -3492)">
    <rect id="Rectangle_960" data-name="Rectangle 960" width="237" height="237" transform="translate(775 3492)" fill="#fff"/>
    <g id="Group_150" data-name="Group 150" transform="translate(834.877 3569.667)">
      <path id="Path_930" data-name="Path 930" d="M50.417,92.766a12.108,12.108,0,0,1,.458,4.057c0,1.178,0,5.1-2.225,7.722a5.375,5.375,0,0,1-4.123,2.029,4.015,4.015,0,0,1-3.927-2.683Zm6.741-7.722c.2-.2.393-.393.262-.589-.327-.393-2.552-.2-2.749-.131a1.19,1.19,0,0,0-.524.393l-1.178,1.374A12.758,12.758,0,0,0,45.116,83.8c-8.442,0-13.416,6.152-13.416,14a12.39,12.39,0,0,0,3.338,9.031l-2.487,2.88c-.131.131-.327.327-.262.458.065.327,2.618.2,2.814.131.327-.065.393-.2.654-.458L37,108.407a12.55,12.55,0,0,0,8.05,2.487c7.788,0,13.285-5.628,13.285-14.07a12.46,12.46,0,0,0-3.4-9.1ZM39.488,101.47c-.327-.785-.654-1.767-.654-4.712,0-6.217,3.207-9.358,6.479-9.358A4.252,4.252,0,0,1,49.3,90.148Z" transform="translate(-10.954 -28.958)"/>
      <path id="Path_931" data-name="Path 931" d="M89.57,90.1v19.568c0,.654-.2.982-1.047.982h-5.3c-.916,0-1.178-.2-1.178-.982V90.1h-5.5c-.785,0-1.047-.131-1.047-.916V85.651c0-.524.131-.851.982-.851H95.068c.589,0,1.047.065,1.047.785v3.6c0,.458-.065.916-.982.916H89.57Z" transform="translate(-26.09 -29.304)"/>
      <path id="Path_932" data-name="Path 932" d="M134.165,102.893c-.065,2.029-.131,4.319-2.618,6.152-1.243.982-3.73,2.16-8.115,2.16a14.077,14.077,0,0,1-7.657-1.832c-2.88-1.832-3.076-4.188-3.076-6.675V85.485c0-.589.262-.785.916-.785h5.628c.72,0,1.047.065,1.047.851v16.623c.065,1.636.065,4.123,4.123,4.123,3.73,0,3.8-2.683,3.861-4.123V85.551c0-.654.2-.785.916-.785h3.927c.785,0,1.047.065,1.047.851Z" transform="translate(-38.945 -29.269)"/>
      <path id="Path_933" data-name="Path 933" d="M82.451,28.533c-.589,3.534-1.767,4.843-6.872,10.536a13.038,13.038,0,0,0-3.534,10.078C60.593,44.24,58.434,32.133,58.434,32.133c-3.534,5.759-1.047,13.547-1.047,13.547-2.749-1.636-7.722-3.6-10.994-5.3-4.974-2.749-5.235-5.628-5.235-5.628a13.473,13.473,0,0,0,.393,10.078S30.293,41.164,31.733,29.58a20.508,20.508,0,0,1,9.162-14.4s-.72,8.311,6.021,11.387c0,0-.654-8.639,3.73-15.51C55.881,2.88,64.193.262,67.858,0a10.569,10.569,0,0,0-3.01,9.162c.654,5.1,3.141,7.133,2.814,13.612a13.755,13.755,0,0,0,7-7.657,18.857,18.857,0,0,0,.851-9.947S85.92,7.2,90.37,15.248a27.571,27.571,0,0,1,3.01,11.322c6.413-2.945,5.366-11.191,5.366-11.191a20.508,20.508,0,0,1,9.162,14.4c1.44,11.583-9.751,15.117-9.751,15.117a12.876,12.876,0,0,0,.654-10.078s-2.618,7-16.557,10.078A17.494,17.494,0,0,0,82.451,28.533Z" transform="translate(-10.922)" fill="#ed1b2e"/>
      <path id="Path_934" data-name="Path 934" d="M160.691,105.153h8.18c.524,0,.916,0,.916.785v3.8c0,.785-.458.851-.916.851h-14.79c-.654,0-.916-.131-.982-.982V85.651c.065-.851.524-.851.916-.851h5.694c.589,0,.916.065.982.851Z" transform="translate(-52.906 -29.304)"/>
      <path id="Path_935" data-name="Path 935" d="M16.819,85.651c-.065-.851-.524-.851-.916-.851H10.209c-.589,0-.916.065-.982.851v16.426c0,3.338-1.178,4.123-3.73,4.319a7.638,7.638,0,0,1-4.385-1.243c-.72-.458-1.113-.327-1.113.327v3.73c0,1.047,3.4,2.16,5.824,2.16,3.927,0,6.544-.785,8.377-2.16,1.7-1.243,2.618-2.749,2.618-5.824Z" transform="translate(0 -29.304)"/>
      <path id="Path_936" data-name="Path 936" d="M173.03,86.991c0,.262-.2.524-.785.524h-.327V86.467h.524C172.834,86.532,173.03,86.663,173.03,86.991Zm.72,2.487-.72-1.113a6.04,6.04,0,0,1-.327-.524.951.951,0,0,0,.916-.982c0-.524-.327-.851-1.178-.851h-1.113v3.468h.589V87.972h.262l.982,1.505Zm-1.374-4.319a2.682,2.682,0,0,1,2.618,2.683,2.584,2.584,0,0,1-2.618,2.618,2.682,2.682,0,0,1-2.618-2.683A2.714,2.714,0,0,1,172.376,85.158Zm0-.458a3.072,3.072,0,0,0-3.076,3.076,3.031,3.031,0,0,0,3.076,3.076,3.115,3.115,0,0,0,3.076-3.076A2.955,2.955,0,0,0,172.376,84.7Z" transform="translate(-58.504 -29.269)"/>
    </g>
  </g>
</svg>
