<svg xmlns="http://www.w3.org/2000/svg" width="237" height="237" viewBox="0 0 237 237">
  <g id="Group_2557" data-name="Group 2557" transform="translate(-775 -3759)">
    <rect id="Rectangle_963" data-name="Rectangle 963" width="237" height="237" transform="translate(775 3759)" fill="#fff"/>
    <g id="Group_121" data-name="Group 121" transform="translate(803.05 3843.547)">
      <g id="Group_118" data-name="Group 118" transform="translate(0 0)">
        <path id="Path_463" data-name="Path 463" d="M33.517,67.027A33.5,33.5,0,0,1,9.821,9.821a33.506,33.506,0,0,1,57.212,23.7c0,.721-.025,1.454-.07,2.175l-5.148-.329c.038-.607.057-1.233.057-1.847a28.338,28.338,0,1,0-3.541,13.735l4.509,2.5A33.475,33.475,0,0,1,33.517,67.027Z" transform="translate(0 0)" fill="#6c3"/>
      </g>
      <path id="Path_464" data-name="Path 464" d="M274.023,356.983a8.667,8.667,0,0,1,2.131,6.172v13.7h-5.375V364.717a5.074,5.074,0,0,0-1.29-3.674,4.67,4.67,0,0,0-3.51-1.334,5.275,5.275,0,0,0-4.041,1.847,6.669,6.669,0,0,0-1.5,4.471v10.833h-5.375V364.717a5.12,5.12,0,0,0-1.271-3.674,4.6,4.6,0,0,0-3.484-1.334,5.306,5.306,0,0,0-4.079,1.847,6.669,6.669,0,0,0-1.5,4.471v10.833H239.4v-21.95h5.331v4.06q2.172-4.183,7.715-4.269a8.135,8.135,0,0,1,4.819,1.372,7.2,7.2,0,0,1,2.726,3.877q2.1-5.17,8.164-5.249A7.686,7.686,0,0,1,274.023,356.983Z" transform="translate(-224.261 -332.269)" fill="#333"/>
      <circle id="Ellipse_270" data-name="Ellipse 270" cx="2.58" cy="2.58" r="2.58" transform="translate(60.583 39.436)" fill="#333"/>
      <g id="Group_119" data-name="Group 119" transform="translate(81.875 18.889)">
        <path id="Path_465" data-name="Path 465" d="M1316.422,300.422a5.451,5.451,0,0,1,1.341,3.877v8.6h-3.371v-7.62a3.173,3.173,0,0,0-.809-2.3,2.927,2.927,0,0,0-2.2-.835,3.332,3.332,0,0,0-2.536,1.157,4.2,4.2,0,0,0-.942,2.808v6.8h-3.371v-7.627a3.194,3.194,0,0,0-.8-2.3,2.887,2.887,0,0,0-2.188-.835,3.355,3.355,0,0,0-2.561,1.157,4.2,4.2,0,0,0-.942,2.808v6.8H1294.7v-13.78h3.345v2.549a5.064,5.064,0,0,1,4.844-2.675,5.153,5.153,0,0,1,3.023.86,4.525,4.525,0,0,1,1.714,2.435,5.094,5.094,0,0,1,5.122-3.295A4.779,4.779,0,0,1,1316.422,300.422Z" transform="translate(-1294.7 -298.98)" fill="#333"/>
        <path id="Path_466" data-name="Path 466" d="M1710.646,301.369a7.706,7.706,0,0,1,1.663,5.28c0,.449-.006.784-.025,1.005h-10.169a3.835,3.835,0,0,0,3.94,3.137,5.271,5.271,0,0,0,2.024-.4,4.9,4.9,0,0,0,1.688-1.145l1.8,1.878a7.024,7.024,0,0,1-2.51,1.752,8.456,8.456,0,0,1-3.282.62,7.655,7.655,0,0,1-3.719-.873,6.087,6.087,0,0,1-2.485-2.46,7.987,7.987,0,0,1,.019-7.3,6.345,6.345,0,0,1,2.485-2.485,7.313,7.313,0,0,1,3.63-.885A6.185,6.185,0,0,1,1710.646,301.369Zm-1.4,4.041a3.321,3.321,0,0,0-1.005-2.422,3.525,3.525,0,0,0-2.523-.9,3.571,3.571,0,0,0-2.46.885,3.9,3.9,0,0,0-1.22,2.435h7.209Z" transform="translate(-1673.151 -299.447)" fill="#333"/>
        <path id="Path_467" data-name="Path 467" d="M1964.742,299.634a5.552,5.552,0,0,1,2.8-.734v3.244a4.552,4.552,0,0,0-3.415.993,3.835,3.835,0,0,0-1.277,3.023v6.646H1959.5V299.033h3.345v2.65A5.006,5.006,0,0,1,1964.742,299.634Z" transform="translate(-1917.459 -298.887)" fill="#333"/>
        <path id="Path_468" data-name="Path 468" d="M2106.458,301.653a6.721,6.721,0,0,0-1.973-.335,2.667,2.667,0,0,0-1.353.3.983.983,0,0,0-.5.917,1.084,1.084,0,0,0,.633.993,10.063,10.063,0,0,0,2,.734,20.117,20.117,0,0,1,2.371.86,4.358,4.358,0,0,1,1.606,1.265,3.366,3.366,0,0,1,.683,2.2,3.544,3.544,0,0,1-1.543,3.092,6.626,6.626,0,0,1-3.889,1.081,10.051,10.051,0,0,1-3.117-.5,7.3,7.3,0,0,1-2.574-1.429l1.157-2.346a6.869,6.869,0,0,0,2.213,1.252,7.342,7.342,0,0,0,2.447.449,2.917,2.917,0,0,0,1.48-.322,1.056,1.056,0,0,0,.557-.968,1.165,1.165,0,0,0-.645-1.081,11.384,11.384,0,0,0-2.087-.8,17.19,17.19,0,0,1-2.264-.809,4.138,4.138,0,0,1-1.518-1.208,3.3,3.3,0,0,1-.645-2.125,3.6,3.6,0,0,1,1.48-3.105,6.174,6.174,0,0,1,3.718-1.069,9.535,9.535,0,0,1,2.694.386,8.5,8.5,0,0,1,2.359,1.081l-1.208,2.422A9.526,9.526,0,0,0,2106.458,301.653Z" transform="translate(-2047.95 -298.7)" fill="#333"/>
        <path id="Path_469" data-name="Path 469" d="M2319.9,301h3.345v13.78H2319.9Z" transform="translate(-2255.068 -300.855)" fill="#333"/>
        <path id="Path_470" data-name="Path 470" d="M2405,301.025l3.5-.025,3.6,10.479L2415.637,301h3.371l-5.255,13.78H2410.3Z" transform="translate(-2334.786 -300.855)" fill="#333"/>
        <path id="Path_471" data-name="Path 471" d="M2641.546,301.369a7.706,7.706,0,0,1,1.663,5.28c0,.449-.006.784-.025,1.005h-10.169a3.836,3.836,0,0,0,3.94,3.137,5.271,5.271,0,0,0,2.024-.4,4.9,4.9,0,0,0,1.688-1.145l1.8,1.878a7.025,7.025,0,0,1-2.511,1.752,8.455,8.455,0,0,1-3.282.62,7.654,7.654,0,0,1-3.718-.873,6.089,6.089,0,0,1-2.485-2.46,7.989,7.989,0,0,1,.019-7.3,6.351,6.351,0,0,1,2.485-2.485,7.314,7.314,0,0,1,3.63-.885A6.194,6.194,0,0,1,2641.546,301.369Zm-1.4,4.041a3.321,3.321,0,0,0-1.005-2.422,3.524,3.524,0,0,0-2.523-.9,3.571,3.571,0,0,0-2.46.885,3.9,3.9,0,0,0-1.221,2.435h7.209Z" transform="translate(-2545.183 -299.447)" fill="#333"/>
      </g>
      <g id="Group_120" data-name="Group 120" transform="translate(81.869 35.097)">
        <path id="Path_472" data-name="Path 472" d="M1298.565,581.787a2.668,2.668,0,0,1-1.429.481,1.529,1.529,0,0,1-1.17-.455,1.9,1.9,0,0,1-.43-1.366V576.6h-.923l-.013-.639h.936V574.3h.828v1.663l2.1-.013v.651h-2.1v3.712c0,.8.3,1.2.885,1.2a2.1,2.1,0,0,0,1.075-.348Z" transform="translate(-1294.6 -573.079)" fill="#333"/>
        <path id="Path_473" data-name="Path 473" d="M1374.183,598.237a3.676,3.676,0,0,1,.727,2.574h-5.388a2.464,2.464,0,0,0,.765,1.669,2.352,2.352,0,0,0,1.676.632,2.979,2.979,0,0,0,1.145-.221,2.632,2.632,0,0,0,.911-.626l.468.468a3.225,3.225,0,0,1-1.126.784,3.742,3.742,0,0,1-1.448.278,3.326,3.326,0,0,1-1.663-.411,2.931,2.931,0,0,1-1.138-1.151,3.374,3.374,0,0,1-.411-1.688,3.433,3.433,0,0,1,.411-1.682,2.947,2.947,0,0,1,1.138-1.157,3.233,3.233,0,0,1,1.638-.411A2.772,2.772,0,0,1,1374.183,598.237Zm-.013,1.935a2.372,2.372,0,0,0-.67-1.606,2.191,2.191,0,0,0-1.6-.6,2.281,2.281,0,0,0-1.625.607,2.41,2.41,0,0,0-.753,1.606h4.648Z" transform="translate(-1364.014 -594.62)" fill="#333"/>
        <path id="Path_474" data-name="Path 474" d="M1486.744,598.108a2.439,2.439,0,0,0-1.246.323,2.258,2.258,0,0,0-.866.892,2.7,2.7,0,0,0-.31,1.315,2.738,2.738,0,0,0,.31,1.322,2.157,2.157,0,0,0,.866.9,2.439,2.439,0,0,0,1.246.323,2.962,2.962,0,0,0,1.151-.221,2.291,2.291,0,0,0,.879-.639l.468.493a2.891,2.891,0,0,1-1.088.8,3.618,3.618,0,0,1-1.455.285,3.294,3.294,0,0,1-1.65-.411,2.945,2.945,0,0,1-1.138-1.157,3.382,3.382,0,0,1-.411-1.682,3.432,3.432,0,0,1,.411-1.682,2.946,2.946,0,0,1,1.138-1.157,3.263,3.263,0,0,1,1.65-.411,3.682,3.682,0,0,1,1.373.247,3.085,3.085,0,0,1,1.069.689l-.468.557A2.6,2.6,0,0,0,1486.744,598.108Z" transform="translate(-1471.555 -594.719)" fill="#333"/>
        <path id="Path_475" data-name="Path 475" d="M1609.717,558.339a2.509,2.509,0,0,1,.658,1.846v3.971h-.841v-3.782a1.961,1.961,0,0,0-.506-1.429,1.856,1.856,0,0,0-1.4-.519,2.155,2.155,0,0,0-1.682.708,2.711,2.711,0,0,0-.613,1.847v3.168h-.828V555h.828v4.218a2.565,2.565,0,0,1,2.568-1.556A2.433,2.433,0,0,1,1609.717,558.339Z" transform="translate(-1584.902 -555)" fill="#333"/>
        <path id="Path_476" data-name="Path 476" d="M1737.4,597.868a2.509,2.509,0,0,1,.658,1.847v3.971h-.841V599.9a1.962,1.962,0,0,0-.506-1.429,1.856,1.856,0,0,0-1.4-.519,2.193,2.193,0,0,0-1.6.62,2.539,2.539,0,0,0-.683,1.625v3.478h-.828v-6.463h.828v1.505a2.4,2.4,0,0,1,.98-1.132,3.121,3.121,0,0,1,1.575-.392A2.4,2.4,0,0,1,1737.4,597.868Z" transform="translate(-1704.527 -594.529)" fill="#333"/>
        <path id="Path_477" data-name="Path 477" d="M1854.326,597.608a2.978,2.978,0,0,1,1.157,1.151,3.345,3.345,0,0,1,.417,1.676,3.417,3.417,0,0,1-.417,1.695,2.913,2.913,0,0,1-1.157,1.157,3.343,3.343,0,0,1-1.676.411,3.41,3.41,0,0,1-1.676-.411,3,3,0,0,1-1.157-1.157,3.417,3.417,0,0,1-.417-1.695,3.345,3.345,0,0,1,.417-1.676,2.937,2.937,0,0,1,1.157-1.151,3.341,3.341,0,0,1,1.676-.411A3.277,3.277,0,0,1,1854.326,597.608Zm-2.934.62a2.235,2.235,0,0,0-.866.9,2.737,2.737,0,0,0-.31,1.322,2.77,2.77,0,0,0,.31,1.334,2.159,2.159,0,0,0,.866.9,2.617,2.617,0,0,0,2.517,0,2.221,2.221,0,0,0,.86-.9,2.827,2.827,0,0,0,.31-1.334,2.74,2.74,0,0,0-.31-1.322,2.222,2.222,0,0,0-.86-.9,2.617,2.617,0,0,0-2.517,0Z" transform="translate(-1814.315 -594.528)" fill="#333"/>
        <path id="Path_478" data-name="Path 478" d="M1981,555h.828v9.151H1981Z" transform="translate(-1937.593 -555)" fill="#333"/>
        <path id="Path_479" data-name="Path 479" d="M2027.726,597.608a2.976,2.976,0,0,1,1.157,1.151,3.345,3.345,0,0,1,.417,1.676,3.417,3.417,0,0,1-.417,1.695,2.91,2.91,0,0,1-1.157,1.157,3.342,3.342,0,0,1-1.676.411,3.41,3.41,0,0,1-1.676-.411,2.992,2.992,0,0,1-1.157-1.157,3.417,3.417,0,0,1-.417-1.695,3.345,3.345,0,0,1,.417-1.676,2.934,2.934,0,0,1,1.157-1.151,3.341,3.341,0,0,1,1.676-.411A3.276,3.276,0,0,1,2027.726,597.608Zm-2.934.62a2.221,2.221,0,0,0-.86.9,2.737,2.737,0,0,0-.31,1.322,2.77,2.77,0,0,0,.31,1.334,2.182,2.182,0,0,0,.86.9,2.617,2.617,0,0,0,2.517,0,2.236,2.236,0,0,0,.866-.9,2.826,2.826,0,0,0,.31-1.334,2.738,2.738,0,0,0-.31-1.322,2.2,2.2,0,0,0-.866-.9,2.617,2.617,0,0,0-2.517,0Z" transform="translate(-1976.75 -594.528)" fill="#333"/>
        <path id="Path_480" data-name="Path 480" d="M2149.148,597.032v5.786a3.324,3.324,0,0,1-.392,1.638,2.694,2.694,0,0,1-1.126,1.081,3.636,3.636,0,0,1-1.695.373,4.116,4.116,0,0,1-2.65-.987l.392-.594a3.733,3.733,0,0,0,1.037.651,3.148,3.148,0,0,0,1.183.221,2.43,2.43,0,0,0,1.771-.645,2.308,2.308,0,0,0,.658-1.733v-1.05a2.539,2.539,0,0,1-.987,1.062,2.862,2.862,0,0,1-1.479.379,2.962,2.962,0,0,1-1.537-.4,2.783,2.783,0,0,1-1.05-1.113,3.362,3.362,0,0,1-.373-1.606,3.416,3.416,0,0,1,.373-1.606,2.762,2.762,0,0,1,1.056-1.1,2.98,2.98,0,0,1,1.543-.392,2.841,2.841,0,0,1,1.467.373,2.645,2.645,0,0,1,.987,1.069v-1.417h.822Zm-1.948,5.211a2.227,2.227,0,0,0,.828-.866,2.608,2.608,0,0,0,.3-1.246,2.66,2.66,0,0,0-.3-1.258,2.143,2.143,0,0,0-.828-.866,2.417,2.417,0,0,0-2.391,0,2.245,2.245,0,0,0-.835.866,2.748,2.748,0,0,0,0,2.511,2.273,2.273,0,0,0,.829.866,2.3,2.3,0,0,0,1.2.316A2.379,2.379,0,0,0,2147.2,602.242Z" transform="translate(-2089.254 -594.344)" fill="#333"/>
        <path id="Path_481" data-name="Path 481" d="M2275.78,559.064a.57.57,0,0,1,.158.411.587.587,0,0,1-.164.417.565.565,0,0,1-.809,0,.6.6,0,0,1,0-.828.547.547,0,0,1,.411-.164A.559.559,0,0,1,2275.78,559.064Zm-.829,2.277h.829V567.8h-.829Z" transform="translate(-2212.813 -558.653)" fill="#333"/>
        <path id="Path_482" data-name="Path 482" d="M2323.083,598.237a3.674,3.674,0,0,1,.727,2.574h-5.388a2.465,2.465,0,0,0,.765,1.669,2.351,2.351,0,0,0,1.676.632,2.976,2.976,0,0,0,1.145-.221,2.634,2.634,0,0,0,.911-.626l.468.468a3.222,3.222,0,0,1-1.126.784,3.741,3.741,0,0,1-1.448.278,3.327,3.327,0,0,1-1.663-.411,2.93,2.93,0,0,1-1.138-1.151,3.372,3.372,0,0,1-.411-1.688,3.433,3.433,0,0,1,.411-1.682,2.948,2.948,0,0,1,1.138-1.157,3.234,3.234,0,0,1,1.638-.411A2.772,2.772,0,0,1,2323.083,598.237Zm-.013,1.935a2.371,2.371,0,0,0-.67-1.606,2.19,2.19,0,0,0-1.6-.6,2.282,2.282,0,0,0-1.625.607,2.409,2.409,0,0,0-.753,1.606h4.648Z" transform="translate(-2252.907 -594.62)" fill="#333"/>
        <path id="Path_483" data-name="Path 483" d="M2432.6,597.816a3.206,3.206,0,0,0-.9-.127,1.846,1.846,0,0,0-.993.24.787.787,0,0,0-.373.721.762.762,0,0,0,.2.544,1.553,1.553,0,0,0,.506.342,7.431,7.431,0,0,0,.848.291,9.416,9.416,0,0,1,1.088.386,1.906,1.906,0,0,1,.714.556,1.472,1.472,0,0,1,.3.955,1.538,1.538,0,0,1-.664,1.341,2.834,2.834,0,0,1-1.663.462,3.967,3.967,0,0,1-1.36-.234,3.085,3.085,0,0,1-1.1-.664l.335-.594a3.273,3.273,0,0,0,2.156.828,1.9,1.9,0,0,0,1.069-.272.88.88,0,0,0,.411-.791.836.836,0,0,0-.208-.588,1.492,1.492,0,0,0-.525-.36c-.208-.089-.5-.19-.866-.3a9.692,9.692,0,0,1-1.062-.379,1.91,1.91,0,0,1-.689-.538,1.407,1.407,0,0,1-.285-.917,1.45,1.45,0,0,1,.633-1.284,2.776,2.776,0,0,1,1.587-.43,4.043,4.043,0,0,1,1.075.146,3.61,3.61,0,0,1,.923.4l-.323.626A3.533,3.533,0,0,0,2432.6,597.816Z" transform="translate(-2357.449 -594.344)" fill="#333"/>
        <path id="Path_484" data-name="Path 484" d="M2582.88,559.064a.568.568,0,0,1,.158.411.587.587,0,0,1-.165.417.565.565,0,0,1-.809,0,.6.6,0,0,1,0-.828.588.588,0,0,1,.816,0Zm-.829,2.277h.829V567.8h-.829Z" transform="translate(-2500.492 -558.653)" fill="#333"/>
        <path id="Path_485" data-name="Path 485" d="M2640.5,597.868a2.509,2.509,0,0,1,.657,1.847v3.971h-.841V599.9a1.961,1.961,0,0,0-.506-1.429,1.857,1.857,0,0,0-1.4-.519,2.193,2.193,0,0,0-1.6.62,2.54,2.54,0,0,0-.683,1.625v3.478h-.828v-6.463h.828v1.505a2.4,2.4,0,0,1,.98-1.132,3.122,3.122,0,0,1,1.574-.392A2.4,2.4,0,0,1,2640.5,597.868Z" transform="translate(-2550.516 -594.529)" fill="#333"/>
        <path id="Path_486" data-name="Path 486" d="M2755.444,598.108a2.44,2.44,0,0,0-1.246.323,2.26,2.26,0,0,0-.866.892,2.7,2.7,0,0,0-.31,1.315,2.737,2.737,0,0,0,.31,1.322,2.159,2.159,0,0,0,.866.9,2.422,2.422,0,0,0,1.246.323,2.962,2.962,0,0,0,1.151-.221,2.291,2.291,0,0,0,.879-.639l.468.493a2.893,2.893,0,0,1-1.087.8,3.619,3.619,0,0,1-1.455.285,3.294,3.294,0,0,1-1.651-.411,2.947,2.947,0,0,1-1.138-1.157,3.385,3.385,0,0,1-.411-1.682,3.433,3.433,0,0,1,.411-1.682,2.948,2.948,0,0,1,1.138-1.157,3.263,3.263,0,0,1,1.651-.411,3.678,3.678,0,0,1,1.372.247,3.084,3.084,0,0,1,1.069.689l-.468.557A2.6,2.6,0,0,0,2755.444,598.108Z" transform="translate(-2660.023 -594.719)" fill="#333"/>
      </g>
    </g>
  </g>
</svg>
