<?xml version="1.0" encoding="utf-8"?>
<!-- Generator: Adobe Illustrator 22.1.0, SVG Export Plug-In . SVG Version: 6.00 Build 0)  -->
<svg version="1.1" id="Layer_1" xmlns="http://www.w3.org/2000/svg" xmlns:xlink="http://www.w3.org/1999/xlink" x="0px" y="0px"
	 viewBox="0 0 237 237" style="enable-background:new 0 0 237 237;" xml:space="preserve">
<style type="text/css">
	.st0{fill:#FFFFFF;}
	.st1{fill:#111111;}
</style>
<title>opengate-portfolio-logos-nakan</title>
<rect id="Rectangle_951" class="st0" width="237" height="237"/>
<g id="Group_2552" transform="translate(-76.907 -111.442)">
	<path id="Path_3122" class="st1" d="M196,187c6.9,0,13.7,0.9,20.3,2.9c4.4,1.3,8.6,3.3,12.4,5.8c3.2,2.1,5.9,4.9,8,8.1
		c1.7,2.7,2.7,5.9,2.7,9.1c0,4.1-1.3,8.2-3.8,11.4c-2.8,3.7-6.4,6.8-10.5,8.9c-5.5,3-11.4,5-17.6,6c-3.3,0.6-6.6,0.9-10,1
		c-5.3,0.2-10.7-0.3-15.9-1.4c-6.4-1.2-12.4-3.7-17.9-7.2c-3.6-2.3-6.7-5.3-8.9-9c-2.2-3.6-3.1-7.8-2.5-12c0.5-3.3,1.9-6.5,4.1-9.1
		c3.1-3.7,6.9-6.6,11.2-8.7c5.4-2.6,11.1-4.4,17-5.2C188.4,187.2,192.2,186.9,196,187z M196.9,234.8c4.3,0,8.6-0.6,12.8-1.5
		c5.1-1.1,10-3.1,14.5-5.8c3.1-1.9,5.8-4.5,7.8-7.5c2-3.1,2.5-6.9,1.3-10.4c-0.9-2.4-2.3-4.5-4.2-6.3c-3.3-3.1-7.3-5.5-11.6-7
		c-6.2-2.3-12.7-3.5-19.3-3.6c-5-0.2-10.1,0.2-15,1.2c-5.7,1-11.2,3.1-16.1,6c-2.7,1.6-5,3.7-6.8,6.2c-3.1,4.4-3.4,8.9-0.8,13.6
		c1.5,2.5,3.4,4.7,5.8,6.4c3.6,2.7,7.7,4.7,12,6.1C183.6,233.9,190.3,234.9,196.9,234.8L196.9,234.8z"/>
	<path id="Path_3123" class="st1" d="M133.1,266.5c-0.8,0-1.5,0-2.2,0c-0.1,0-0.2-0.2-0.3-0.3c-0.3-1.6-0.6-3.1-0.9-4.7
		c0-0.1-0.1-0.2-0.1-0.3c0-0.2-0.2-0.4-0.4-0.4c0,0-0.1,0-0.1,0c-0.3,0-0.3,0.2-0.3,0.4c0,1.1,0,2.2,0,3.2c0,0.5,0,1.1,0,1.6
		c0,0.3-0.1,0.4-0.4,0.4c-0.5,0-1.1,0-1.6,0c-0.4,0-0.5-0.1-0.5-0.5c0-2.3,0-4.6,0-6.9c0-1.7,0-3.5,0-5.2c0-0.4,0.1-0.5,0.5-0.5
		c1.2,0.1,2.4,0,3.6,0.1c1.3,0.1,2.3,1,2.5,2.3c0.2,0.9,0.2,1.8-0.1,2.7c-0.2,0.5-0.5,1-0.9,1.4c-0.2,0.2-0.3,0.6-0.2,0.9
		c0.4,1.8,0.8,3.5,1.2,5.3C133.1,266.2,133.1,266.4,133.1,266.5z M128.9,257.2L128.9,257.2c0,0.2,0,0.5,0,0.7c0,0.3,0,0.5,0,0.8
		c0,0.1,0.1,0.3,0.3,0.3c0.6,0.2,1.2-0.2,1.4-0.8c0,0,0-0.1,0-0.1c0.1-0.6,0.1-1.1,0.1-1.7c-0.1-0.8-0.5-1.1-1.3-1.1
		c-0.3,0-0.4,0.1-0.4,0.4C128.9,256.2,128.9,256.7,128.9,257.2z"/>
	<path id="Path_3124" class="st1" d="M186.3,259.3c0,0.1,0,0.3,0,0.4c0,2.1,0,4.2,0,6.3c0,0.4-0.1,0.6-0.5,0.5c-0.3,0-0.6,0-1,0
		c-0.4,0-0.4-0.1-0.4-0.4c0-1.4,0-2.9,0-4.3c0-2.6,0-5.1,0-7.7c0-0.4,0.1-0.6,0.6-0.6c0.4,0,0.7,0,1.1,0c0.3-0.1,0.6,0.1,0.7,0.5
		c0,0,0,0,0,0c0.6,1.8,1.3,3.6,1.9,5.5c0.1,0.1,0.1,0.2,0.2,0.3c0-0.2,0.1-0.3,0.1-0.4c0-1.8,0-3.6,0-5.3c0-0.4,0.1-0.5,0.5-0.5
		c0.3,0,0.6,0,0.9,0c0.4,0,0.5,0.1,0.5,0.5c0,2.6,0,5.3,0,7.9c0,1.4,0,2.8,0,4.2c0,0.4-0.1,0.5-0.5,0.5c-0.1,0-0.2,0-0.2,0
		c-1.2,0-1.2,0-1.5-1.1c-0.7-1.9-1.3-3.7-2-5.6C186.5,259.6,186.4,259.4,186.3,259.3L186.3,259.3z"/>
	<path id="Path_3125" class="st1" d="M216.6,259.9c0-2,0-4,0-6c0-0.4,0.1-0.5,0.5-0.5c0.8,0,1.6,0,2.5,0c0.7,0,1.4,0.2,2.1,0.4
		c0.8,0.3,1.4,1.1,1.5,2c0.2,0.9,0.2,1.9-0.1,2.8c-0.2,0.5-0.5,0.9-0.9,1.4c-0.2,0.2-0.3,0.4-0.2,0.6c0.4,1.7,0.8,3.5,1.2,5.3
		c0.1,0.5,0.1,0.6-0.4,0.6c-0.5,0-0.9,0-1.4,0c-0.3,0-0.4-0.1-0.5-0.4c-0.3-1.6-0.6-3.2-1-4.8c0-0.1-0.1-0.3-0.2-0.4
		c-0.1-0.1-0.3-0.1-0.4,0c-0.1,0.1-0.1,0.2-0.1,0.4c0,1.6,0,3.2,0,4.8c0,0.4-0.1,0.5-0.5,0.5c-0.5,0-1,0-1.5,0
		c-0.4,0-0.5-0.1-0.5-0.5C216.6,264,216.6,261.9,216.6,259.9L216.6,259.9z M219.1,257.2c0,0.2,0,0.5,0,0.7c0,0.2,0,0.5,0,0.7
		c0,0.3,0.1,0.4,0.4,0.4c0.6,0.1,1.2-0.3,1.3-0.9c0,0,0-0.1,0-0.1c0.1-0.5,0.1-1,0-1.5c0-0.7-0.6-1.2-1.2-1.2c0,0-0.1,0-0.1,0
		c-0.3,0-0.4,0.1-0.4,0.4C219.1,256.2,219.1,256.7,219.1,257.2L219.1,257.2z"/>
	<path id="Path_3126" class="st1" d="M194.1,259.9c0-2,0-4,0-5.9c0-0.5,0.1-0.6,0.6-0.5c0.8,0,1.6,0,2.3,0c2,0,3.3,1,3.5,3
		c0.5,2.5,0.4,5-0.2,7.4c-0.3,1.6-1.7,2.7-3.3,2.6c-0.4,0-0.8,0-1.2,0c-0.4,0-0.8,0-1.2,0s-0.5-0.1-0.5-0.5c0-1.5,0-3,0-4.4
		L194.1,259.9z M196.6,259.9L196.6,259.9c0,1.4,0,2.7,0,4.1c0,0.5,0.2,0.6,0.6,0.5c0.6-0.2,1-0.8,0.9-1.4c0.1-1.3,0.1-2.6,0.1-3.9
		c0-0.8,0-1.6-0.1-2.4c0-0.6-0.4-1.2-1-1.4c-0.4-0.1-0.5,0-0.5,0.4C196.6,257.2,196.6,258.5,196.6,259.9L196.6,259.9z"/>
	<path id="Path_3127" class="st1" d="M156.2,259.3c0,1.2,0,2.5,0,3.7c0,1,0,2,0,3c0,0.3-0.1,0.5-0.5,0.4c-0.3,0-0.7,0-1.1,0
		c-0.3,0-0.4-0.1-0.4-0.4c0-3.8,0-7.7,0-11.5c0-1.1,0-1.1,1.1-1.1c1.3,0,1-0.2,1.4,1c0.6,1.7,1.2,3.4,1.8,5c0,0.1,0.1,0.1,0.1,0.2
		c0-0.2,0-0.4,0-0.6c0-1.7,0-3.5,0-5.2c0-0.4,0.1-0.5,0.5-0.5c0.3,0,0.6,0,1,0c0.4,0,0.4,0.1,0.4,0.5c0,1.3,0,2.6,0,3.9
		c0,2.7,0,5.5,0,8.2c0,0.4-0.1,0.6-0.5,0.5c-0.1,0-0.1,0-0.2,0c-1.2,0-1.2,0-1.5-1.1c-0.7-2-1.4-3.9-2.1-5.9c0-0.1-0.1-0.1-0.1-0.2
		L156.2,259.3z"/>
	<path id="Path_3128" class="st1" d="M245.5,259.3c0,0.3,0,0.5,0,0.8c0,2,0,3.9,0,5.9c0,0.4-0.1,0.6-0.5,0.5c-0.3,0-0.7,0-1,0
		c-0.3,0-0.4-0.1-0.4-0.4c0-4.1,0-8.2,0-12.2c0-0.3,0.1-0.5,0.5-0.4c0.5,0,0.9,0,1.4,0c0.2,0,0.5,0.1,0.5,0.3
		c0.6,1.8,1.3,3.6,1.9,5.4c0,0.1,0.1,0.3,0.2,0.4c0-0.1,0-0.3,0-0.4c0-1.8,0-3.5,0-5.3c0-0.4,0.1-0.5,0.5-0.5c0.3,0,0.6,0,0.9,0
		c0.4,0,0.6,0.1,0.6,0.5c0,2.7,0,5.4,0,8c0,1.3,0,2.7,0,4c0,0.4-0.1,0.5-0.5,0.5c-0.3,0-0.5,0-0.8,0c-0.4,0.1-0.6-0.1-0.8-0.5
		c-0.7-2.1-1.5-4.2-2.2-6.3c0-0.1-0.1-0.3-0.2-0.4L245.5,259.3z"/>
	<path id="Path_3129" class="st1" d="M211.8,265.6c-0.1,0.1-0.2,0.1-0.3,0.2c-1.5,1.5-3.6,1-4.5-1c-0.5-1.3-0.7-2.6-0.7-3.9
		c-0.1-1.6,0.1-3.3,0.5-4.9c0.1-0.5,0.3-0.9,0.6-1.3c0.8-1.4,2.4-2,3.9-1.4c0.7,0.3,1.2,0.8,1.4,1.5c0.3,0.9,0.5,2,0.3,3
		c-0.1,0.1-0.2,0.2-0.3,0.3c-0.5,0-1.1,0-1.6,0c-0.3,0-0.4-0.1-0.4-0.4c0-0.5,0-1-0.1-1.5c0-0.2-0.1-0.4-0.2-0.6
		c-0.2-0.2-0.4-0.3-0.6-0.4c-0.2,0-0.5,0.2-0.6,0.4c-0.1,0.2-0.2,0.5-0.2,0.8c0,2.2-0.1,4.4-0.1,6.6c0,0.4,0.1,0.8,0.3,1.2
		c0.2,0.4,0.6,0.6,1,0.4c0.2-0.1,0.3-0.2,0.4-0.3c0.3-0.5,0.4-1.1,0.3-1.7c0-0.1-0.2-0.2-0.3-0.2c-0.4,0-0.5-0.1-0.5-0.5
		c0-0.4,0-0.8,0-1.1c0-0.2,0.2-0.3,0.3-0.3c0.8,0,1.5,0,2.3,0c0.1,0,0.3,0.2,0.3,0.3c0,1.8,0,3.6,0,5.3c0,0.1-0.2,0.3-0.2,0.3
		c-0.3,0-0.7,0.2-0.9-0.2C211.9,266,211.8,265.8,211.8,265.6z"/>
	<path id="Path_3130" class="st1" d="M141.3,265.7c-0.1,0.1-0.2,0.1-0.3,0.2c-1.5,1.4-3.6,1.1-4.4-0.9c-0.4-0.8-0.6-1.7-0.7-2.6
		c-0.2-2-0.1-3.9,0.3-5.9c0.2-0.7,0.5-1.4,0.8-2c0.6-1.1,1.9-1.6,3.1-1.3c1.1,0.1,2,1,2.2,2.1c0.1,0.8,0.2,1.6,0.2,2.4
		c0,0.3-0.1,0.4-0.4,0.4c-0.5,0-1,0-1.6,0c-0.3,0-0.4-0.1-0.4-0.4c0-0.5,0-1-0.1-1.5c0-0.3-0.1-0.5-0.3-0.7
		c-0.2-0.3-0.6-0.4-0.9-0.2c-0.1,0.1-0.2,0.1-0.2,0.2c-0.2,0.3-0.3,0.7-0.3,1.1c0,2.3,0,4.5,0,6.8c0,0.3,0.1,0.6,0.2,0.8
		c0.1,0.4,0.6,0.6,1,0.5c0.2-0.1,0.4-0.2,0.5-0.4c0.2-0.5,0.3-1,0.3-1.6c0-0.1-0.2-0.2-0.4-0.2c-0.4,0-0.5-0.2-0.5-0.5
		c0-0.3,0-0.7,0-1.1c0-0.3,0.1-0.4,0.4-0.4c0.7,0,1.4,0,2.1,0c0.3,0,0.4,0.1,0.4,0.4c0,1.7,0,3.4,0,5.2c0,0.2-0.2,0.4-0.2,0.4
		c-0.3,0-0.7,0.2-0.9-0.2C141.4,266,141.4,265.9,141.3,265.7z"/>
	<path id="Path_3131" class="st1" d="M276.2,266.5c-1.1,0-1.1,0-1.2-1c-0.1-0.5-0.1-0.9-0.2-1.4c0-0.3-0.1-0.4-0.5-0.4
		c-0.4,0-0.8,0-1.2,0c-0.3,0-0.4,0.1-0.4,0.4c-0.1,0.7-0.2,1.4-0.3,2.1c0,0.2-0.1,0.4-0.4,0.4c-0.4,0-0.9,0-1.3,0
		c-0.3,0-0.4-0.1-0.3-0.4c0.5-3.6,1.1-7.2,1.6-10.8c0.1-0.5,0.1-1,0.2-1.5c0-0.3,0.2-0.4,0.4-0.4c0.9,0,1.7,0,2.6,0
		c0.4,0,0.5,0.2,0.5,0.5c0.3,2.3,0.6,4.7,0.8,7c0.2,1.7,0.4,3.3,0.6,5c0.1,0.6,0.1,0.6-0.5,0.6C276.6,266.5,276.4,266.5,276.2,266.5
		z M273.9,256l-0.1,0c0,0.1-0.1,0.2-0.1,0.3c-0.2,1.4-0.3,2.9-0.5,4.3c-0.1,1.1-0.1,1.1,0.9,1.1c0.3,0,0.4-0.1,0.4-0.4
		c-0.1-1-0.2-1.9-0.3-2.9C274.1,257.6,274,256.8,273.9,256L273.9,256z"/>
	<path id="Path_3132" class="st1" d="M181.2,266.5c-0.7,0-1.4,0-2,0c-0.1,0-0.3-0.2-0.3-0.4c-0.1-0.6-0.2-1.3-0.2-2
		c0-0.4-0.1-0.5-0.5-0.5c-0.3,0-0.7,0-1,0c-0.4,0-0.6,0.1-0.6,0.5c-0.1,0.6-0.2,1.3-0.2,1.9c0,0.3-0.1,0.4-0.4,0.4
		c-0.4,0-0.8,0-1.2,0c-0.4,0-0.5-0.1-0.4-0.4c0.5-3.2,0.9-6.3,1.4-9.5c0.1-0.9,0.3-1.8,0.4-2.7c0-0.3,0.1-0.4,0.5-0.4
		c0.9,0,1.8,0,2.6,0c0.3,0,0.4,0.1,0.4,0.4c0.4,3.7,0.9,7.3,1.3,11C181.1,265.3,181.1,265.8,181.2,266.5z M177.8,255.9l-0.1,0
		c0,0.2-0.1,0.4-0.1,0.6c-0.2,1.4-0.3,2.8-0.5,4.2c-0.1,1.1-0.1,1.1,1,1c0.3,0,0.4-0.1,0.4-0.4c-0.1-1.1-0.3-2.2-0.4-3.3
		C177.9,257.2,177.8,256.6,177.8,255.9z"/>
	<path id="Path_3133" class="st1" d="M123.6,266.5c-0.7,0-1.3,0-2,0c-0.1,0-0.3-0.2-0.3-0.4c-0.1-0.6-0.2-1.3-0.2-1.9
		c0-0.4-0.2-0.6-0.6-0.5c-0.3,0-0.7,0-1.1,0c-0.3,0-0.4,0.1-0.5,0.4c-0.1,0.7-0.2,1.4-0.2,2c0,0.3-0.1,0.4-0.4,0.4
		c-0.4,0-0.8,0-1.1,0c-0.4,0-0.5-0.1-0.5-0.5c0.2-1.1,0.3-2.1,0.5-3.2c0.4-3,0.9-6,1.3-9c0-0.3,0.1-0.4,0.5-0.4c0.9,0,1.7,0,2.6,0
		c0.3,0,0.4,0.1,0.5,0.4c0.5,4.1,1,8.2,1.5,12.3C123.6,266.2,123.6,266.3,123.6,266.5z M120.1,255.9L120.1,255.9
		c-0.1,0.1-0.1,0.2-0.1,0.2c-0.2,1.5-0.4,3-0.6,4.5c-0.1,1-0.1,1,0.9,1c0.3,0,0.5-0.1,0.4-0.4c-0.1-0.6-0.1-1.3-0.2-1.9
		C120.4,258.2,120.3,257,120.1,255.9L120.1,255.9z"/>
	<path id="Path_3134" class="st1" d="M107.9,262.7c0.7,0,1.3,0,1.9,0c0.1,0,0.3,0.2,0.3,0.3c0.1,0.3,0,0.6,0.1,0.9
		c0.1,0.4,0.4,0.7,0.8,0.7c0.5,0,0.9-0.2,1.1-0.7c0.2-0.6,0.1-1.2-0.3-1.7c-0.4-0.4-0.8-0.8-1.2-1.2c-0.9-0.6-1.6-1.5-2.1-2.5
		c-0.7-1.4-0.6-3.1,0.3-4.3c0.7-0.9,1.8-1.4,2.9-1.2c1.1,0.1,2,0.9,2.3,1.9c0.1,0.5,0.2,1,0.3,1.6c0,0.3-0.1,0.4-0.4,0.4
		c-0.5,0-0.9,0-1.4,0c-0.3,0-0.3-0.1-0.4-0.4c0-0.4-0.1-0.8-0.2-1.1c-0.2-0.4-0.7-0.5-1.1-0.3c-0.2,0.1-0.3,0.2-0.4,0.4
		c-0.3,0.5-0.3,1.1,0,1.6c0.4,0.5,0.8,1,1.3,1.4c0.7,0.7,1.4,1.4,2,2.2c0.9,1.3,0.9,3.1,0.1,4.5c-0.7,1.2-2.2,1.8-3.6,1.4
		c-1.4-0.4-2.4-1.7-2.3-3.1C107.9,263.3,107.9,263,107.9,262.7z"/>
	<path id="Path_3135" class="st1" d="M262.4,259.9c0-2,0-4,0-6c0-0.4,0.1-0.5,0.5-0.5c1.5,0,3,0,4.6,0c0.4,0,0.5,0.1,0.5,0.5
		c0,0.3,0,0.7,0,1.1c0,0.3-0.1,0.4-0.4,0.4c-0.7,0-1.5,0-2.2,0c-0.4,0-0.5,0.1-0.5,0.5c0,0.8,0,1.6,0,2.4c0,0.4,0.1,0.4,0.5,0.4
		c0.5,0,0.9,0,1.4,0c0.3,0,0.4,0.1,0.4,0.4c0,0.5,0,0.9,0,1.4c0,0.3-0.1,0.4-0.4,0.4c-0.5,0-1,0-1.5,0c-0.3,0-0.4,0.1-0.4,0.4
		c0,1,0,2,0,3c0,0.3,0.1,0.4,0.4,0.4c0.8,0,1.5,0,2.3,0c0.3,0,0.5,0.1,0.4,0.5c0,0.4,0,0.8,0,1.1c0,0.3-0.1,0.4-0.4,0.4
		c-1.6,0-3.2,0-4.8,0c-0.4,0-0.4-0.2-0.4-0.5C262.4,264,262.4,262,262.4,259.9L262.4,259.9z"/>
	<path id="Path_3136" class="st1" d="M234.9,260c0-2,0-4.1,0-6.1c0-0.4,0.1-0.5,0.5-0.5c1.6,0,3.1,0,4.7,0c0.3,0,0.5,0.1,0.4,0.4
		c0,0.4,0,0.8,0,1.1c0,0.3-0.1,0.4-0.4,0.4c-0.7,0-1.5,0-2.2,0c-0.3,0-0.4,0.1-0.4,0.4c0,0.9,0,1.7,0,2.6c0,0.3,0.1,0.4,0.4,0.4
		c0.5,0,1,0,1.5,0c0.3,0,0.4,0.1,0.4,0.4c0,0.5,0,0.9,0,1.4c0,0.3-0.1,0.4-0.4,0.4c-0.5,0-1,0-1.5,0c-0.3,0-0.4,0.1-0.4,0.4
		c0,1,0,2,0,2.9c0,0.3,0.1,0.4,0.4,0.4c0.7,0,1.4,0,2.1,0c0.4,0,0.6,0.1,0.5,0.6c0,0.3,0,0.7,0,1.1c0,0.3-0.1,0.4-0.4,0.4
		c-1.6,0-3.2,0-4.8,0c-0.4,0-0.5-0.1-0.5-0.5C234.9,264,234.9,262,234.9,260L234.9,260z"/>
	<path id="Path_3137" class="st1" d="M226.2,259.9c0-2,0-4,0-6c0-0.4,0.1-0.5,0.5-0.5c1.5,0,3,0,4.5,0c0.4,0,0.6,0.1,0.5,0.5
		c0,0.3,0,0.7,0,1c0,0.3-0.1,0.4-0.4,0.4c-0.7,0-1.5,0-2.2,0c-0.3,0-0.5,0.1-0.5,0.4c0,0.8,0,1.6,0,2.5c0,0.3,0.1,0.4,0.4,0.4
		c0.5,0,1,0,1.5,0c0.3,0,0.4,0.1,0.4,0.4c0,0.5,0,0.9,0,1.4c0,0.3-0.1,0.4-0.4,0.4c-0.5,0-0.9,0-1.4,0c-0.3,0-0.5,0.1-0.5,0.4
		c0,1,0,1.9,0,2.9c0,0.3,0.1,0.4,0.4,0.4c0.7,0,1.4,0,2.1,0c0.6,0,0.6,0,0.6,0.6c0,0.3,0,0.6,0,0.9c0,0.3-0.1,0.4-0.4,0.4
		c-1.6,0-3.1,0-4.7,0c-0.4,0-0.5-0.1-0.5-0.5C226.2,264,226.2,261.9,226.2,259.9L226.2,259.9z"/>
	<path id="Path_3138" class="st1" d="M145.6,260c0-2,0-4,0-6c0-0.4,0.1-0.6,0.6-0.6c1.5,0,3,0,4.5,0c0.4,0,0.5,0.1,0.5,0.5
		c0,0.4,0,0.7,0,1.1c0,0.3-0.1,0.4-0.4,0.4c-0.7,0-1.5,0-2.2,0c-0.3,0-0.5,0.1-0.5,0.4c0,0.8,0,1.7,0,2.5c0,0.3,0.1,0.4,0.4,0.4
		c0.5,0,1,0,1.5,0c0.3,0,0.5,0.1,0.4,0.5c0,0.4,0,0.8,0,1.2c0,0.3-0.1,0.5-0.5,0.5c-0.5,0-0.9,0-1.4,0c-0.3,0-0.4,0.1-0.4,0.4
		c0,1,0,1.9,0,2.9c0,0.3,0.1,0.4,0.5,0.4c0.7,0,1.5,0,2.2,0c0.3,0,0.5,0.1,0.5,0.4c0,0.4,0,0.8,0,1.2c0,0.3-0.1,0.3-0.3,0.3
		c-1.6,0-3.3,0-4.9,0c-0.4,0-0.3-0.2-0.3-0.5C145.6,264,145.6,262,145.6,260z"/>
	<path id="Path_3139" class="st1" d="M280.3,260c0-2,0-4.1,0-6.1c0-0.3,0.1-0.5,0.4-0.5c1.6,0,3.1,0,4.7,0c0.3,0,0.4,0.1,0.4,0.4
		c0,0.4,0,0.8,0,1.1c0,0.3-0.1,0.4-0.4,0.4c-0.7,0-1.4,0-2.1,0c-0.3,0-0.4,0.1-0.4,0.4c0,0.9,0,1.7,0,2.6c0,0.3,0.1,0.4,0.4,0.4
		c0.5,0,1,0,1.5,0c0.3,0,0.4,0.1,0.4,0.3c0,0.5,0,0.9,0,1.4c0,0.3-0.1,0.4-0.3,0.3c-0.5,0-1,0-1.5,0c-0.3,0-0.4,0.1-0.4,0.4
		c0,1.6,0,3.1,0,4.7c0,0.3-0.1,0.5-0.5,0.5c-0.5,0-1.1,0-1.6,0c-0.3,0-0.5-0.1-0.4-0.4C280.3,264,280.3,262,280.3,260L280.3,260z"/>
	<path id="Path_3140" class="st1" d="M167.9,260.9c0,1.7,0,3.4,0,5.1c0,0.3-0.1,0.5-0.5,0.5c-0.5,0-1.1,0-1.6,0
		c-0.3,0-0.5-0.1-0.4-0.4c0-3.3,0-6.6,0-9.9c0-0.9,0.1-0.8-0.7-0.8c-0.3,0-0.7,0-1,0c-0.2,0-0.3-0.2-0.3-0.3c0-0.4,0-0.9,0-1.3
		c0-0.2,0.2-0.3,0.3-0.3c2,0,4.1,0,6.1,0c0.2,0,0.4,0.1,0.3,0.4c0,0.4,0,0.8,0,1.2c0,0.3-0.1,0.4-0.4,0.4c-0.4,0-0.9,0-1.3,0
		c-0.4,0-0.5,0.1-0.5,0.5C167.9,257.5,167.9,259.2,167.9,260.9L167.9,260.9z"/>
	<path id="Path_3141" class="st1" d="M253.7,259.9c0-2,0-4,0-5.9c0-0.6,0-0.6,0.6-0.6c0.5,0,0.9,0,1.4,0c0.4,0,0.5,0.1,0.5,0.5
		c0,3.3,0,6.7,0,10c0,0.6,0,0.6,0.6,0.6c0.7,0,1.4,0,2.1,0c0.3,0,0.4,0.1,0.4,0.4c0,0.4,0,0.8,0,1.1c0,0.3-0.1,0.4-0.4,0.4
		c-1.6,0-3.1,0-4.7,0c-0.3,0-0.5-0.1-0.4-0.4C253.7,264,253.6,262,253.7,259.9L253.7,259.9z"/>
	<path id="Path_3142" class="st1" d="M190.8,219.4c-1.1,0-2.1,0-3.1,0c-3.3-0.1-6.6-0.1-9.8-0.3c-1.1-0.1-2.1-0.3-3.1-0.7
		c-1.5-0.4-2.3-1.9-1.9-3.4c0.1-0.7,0.3-1.4,0.5-2.1c0.1-0.2,0.2-0.3,0.4-0.3c2.5,0,5,0,7.5,0c0.1,0,0.2,0,0.3,0.1
		c-0.1,0.3-0.1,0.6-0.2,0.9c-0.2,0.5,0.1,1.1,0.6,1.2c0,0,0,0,0,0c0.5,0.2,1.1,0.3,1.6,0.3c1.7,0,3.5,0.1,5.2,0
		c0.6,0,1.2-0.2,1.8-0.4c0.9-0.3,1.5-1,1.7-1.9c0.2-0.7,0-1.2-0.8-1.4c-0.7-0.1-1.3-0.2-2-0.3c-2.8-0.2-5.7-0.3-8.5-0.5
		c-1.2-0.1-2.4-0.3-3.5-0.7c-1.4-0.4-2.2-1.8-1.9-3.2c0.2-1.5,0.7-3,1.5-4.3c1.1-1.6,2.8-2.7,4.7-3.1c2-0.5,4.1-0.7,6.1-0.7
		c3,0,6.1,0,9.1,0.1c1.1,0,2.1,0.2,3.1,0.5c2.5,0.6,3.4,2.3,2.7,4.7c-0.4,1.2-0.4,1.2-1.7,1.2h-6.5c-0.1,0-0.2,0-0.4,0
		c0-0.2,0.1-0.4,0.1-0.5c0.3-0.9,0-1.4-0.9-1.6c-0.6-0.1-1.3-0.2-1.9-0.2c-1.6,0-3.2,0.1-4.8,0.2c-1.1,0.1-2,0.9-2.2,2
		c-0.2,0.5,0,1,0.5,1.2c0,0,0.1,0,0.1,0c0.4,0.1,0.8,0.2,1.2,0.2c3,0.2,6,0.3,8.9,0.5c1.2,0.2,2.4,0.4,3.5,0.6
		c0.2,0.1,0.4,0.1,0.7,0c2.5-0.7,5.1-1.1,7.8-1c2.5,0,5.1,0,7.6,0c1.8,0,3.5,0.2,5.2,0.8c1.7,0.7,2.4,1.7,2.2,3.6
		c0,0.6-0.2,1.1-0.3,1.7c0,0.3-0.2,0.4-0.5,0.4c-2.6,0-5.3,0-7.9,0c-0.3,0-0.4-0.1-0.4-0.4c0.1-0.6-0.3-1.1-0.9-1.2
		c-0.4-0.1-0.8-0.2-1.2-0.2c-2.2-0.2-4.3-0.1-6.5,0.2c-1.8,0.2-3.2,1.4-3.7,3.1c-0.5,1.7-1.1,3.5-1.7,5.2c-0.1,0.3-0.1,0.5-0.1,0.8
		c-0.1,1.1,0.3,1.8,1.4,1.9c1.5,0.2,3.1,0.3,4.6,0.3c1.2,0,2.3-0.2,3.5-0.4c1.3-0.3,2.2-1.3,2.5-2.5c0-0.1,0-0.1,0-0.2
		c0-0.1,0-0.1,0-0.2h-5.9c0.2-0.7,0.4-1.2,0.6-1.8c0.2-0.5,0.4-1,0.5-1.6c0.1-0.3,0.3-0.4,0.6-0.4c4.3,0,8.7,0,13,0h1
		c-0.2,0.6-0.3,1.1-0.4,1.6c-0.4,1.3-0.8,2.6-1.3,3.9c-0.8,2.5-2.8,4.4-5.3,5.2c-1.8,0.6-3.7,0.9-5.7,1c-3.6,0.1-7.2,0.1-10.8,0
		c-1.5,0-3.1-0.3-4.5-0.9c-1.7-0.8-2.9-2-3-4c0.1-0.9,0.2-1.8,0.4-2.7C190.7,219.7,190.7,219.5,190.8,219.4z"/>
</g>
</svg>
