<svg xmlns="http://www.w3.org/2000/svg" width="265" height="259.614" viewBox="0 0 265 259.614"><defs><style>.a{fill:#fff;}.b{fill:#304d9d;}.c{fill-rule:evenodd;}</style></defs><g transform="translate(-375 -483)"><rect class="a" width="265" height="259.614" transform="translate(375 483)"/><g transform="translate(409.472 603.65)"><path class="b" d="M0,9.657C0,4.323,7.8,0,17.462,0S34.924,4.323,34.924,9.657s-7.8,9.657-17.462,9.657C7.8,19.259,0,14.935,0,9.657Z"/><path class="a" d="M16.1,10.567a8.593,8.593,0,0,1,17.181,0,8.593,8.593,0,0,1-17.181,0Z" transform="translate(-7.06 -0.965)"/><path d="M26.11,7.6s-.561,1.46-.73,1.8-.337.224-.393.056A3.178,3.178,0,0,0,22.8,7.881c-2.021-.168-3.088,1.909-3.538,3.706-.954,4.155,2.077,7.8,4.941,7.8a2.262,2.262,0,0,0,2.021-1.01A18.328,18.328,0,0,0,27.4,16.134c.108-.108.281-.224.393-.108.281.224,1.965,2.358,2.3,2.751a.26.26,0,0,0,.449,0c.168-.224.393-.393.561-.617a.606.606,0,0,0,0-.617c-.168-.337-2.134-2.751-2.246-3.144a1.1,1.1,0,0,1-.056-1.18c.108-.337,2.585-5.559,2.585-5.559H26.107Z" transform="translate(-8.368 -3.333)"/><path class="a" d="M23.941,17.6c-.393.786-.617.73-1.18.337-.505-.337-.842-2.134-.617-3.482a4.271,4.271,0,0,1,1.18-2.585.683.683,0,0,1,.9,0c.449.393,1.01,1.066,1.122,1.18.393.505.281.954,0,1.629-.449.9-1.01,2.134-1.4,2.919Z" transform="translate(-9.68 -5.131)"/><path class="c" d="M80.084,14.434l1.348,2.246c.505.842.449,1.122-1.293,1.122v.561h5.727V17.8a1.928,1.928,0,0,1-2.022-1.124L77.108,5.9H75.872L69.7,16.849c-.449.786-.786.9-1.8.9v.561h4.6V17.75c-1.685,0-1.8-.168-1.236-1.236l1.066-2.077h7.749Zm-.449-.673H72.728l3.2-5.9h.108l3.6,5.9Z" transform="translate(-29.777 -2.588)"/><path d="M116.749,15.732h-1.122c-.786,1.909-1.066,2.077-2.693,2.077h-4.885c-.73,0-.9-.108-.9-.786V8.153c0-1.236.108-1.293,2.246-1.293V6.3h-6.8v.561c2.021,0,2.19.108,2.19,1.293v8.478c0,1.236-.168,1.293-2.19,1.293v.561h13.142l1.01-2.751Z" transform="translate(-44.993 -2.762)"/><path d="M141.929,10.286h-1.066c0,1.46-.281,1.685-1.46,1.685H135.36V7.816c0-.73.108-.842,1.01-.842H141.2c1.516,0,1.8.168,2.526,1.965h1.122L143.893,6.3H130.7V6.86c2.077,0,2.246.108,2.246,1.293v8.534c0,1.18-.168,1.293-2.246,1.293v.561h7.355v-.561c-2.585,0-2.693-.108-2.693-1.293V12.645h4.043c1.236,0,1.46.108,1.46,1.685h1.066V10.286Z" transform="translate(-57.315 -2.762)"/><path class="c" d="M166.727,14.434l1.348,2.246c.505.842.449,1.122-1.293,1.122v.561h5.727V17.8a1.928,1.928,0,0,1-2.021-1.122L163.756,5.9h-1.236L156.4,16.849c-.449.786-.786.9-1.8.9v.561h4.6V17.75c-1.685,0-1.8-.168-1.236-1.236l1.066-2.077h7.693Zm-.449-.673h-6.906l3.2-5.9h.108l3.594,5.9Z" transform="translate(-67.796 -2.588)"/><path d="M193.2,7.03h2.975c1.572,0,1.8.056,2.414,2.021h1.066L199.043,6.3H185.117L184.5,9.051h1.066c.561-1.965.786-2.021,2.358-2.021H190.9v9.6c0,1.18-.108,1.293-2.47,1.293v.561h7.355v-.561c-2.358,0-2.47-.108-2.47-1.293V7.03Z" transform="translate(-80.909 -2.762)"/><path d="M230.194,8.153c0-1.18.168-1.293,2.19-1.293V6.3h-6.513v.561c1.8,0,1.965.108,1.965,1.293V11.8h-9.489V8.153c0-1.18.168-1.293,1.965-1.293V6.3H213.8v.561c2.021,0,2.19.108,2.19,1.293v8.534c0,1.18-.168,1.293-2.19,1.293v.561h6.513V17.98c-1.8,0-1.965-.108-1.965-1.293V12.476h9.489v4.211c0,1.18-.168,1.293-1.965,1.293v.561h6.513v-.561c-2.021,0-2.19-.108-2.19-1.293V8.153Z" transform="translate(-93.757 -2.762)"/><path d="M264.986,18.484,266,15.791h-1.122c-.786,1.909-1.066,1.965-2.693,1.965H256c-.561,0-.786-.056-.786-.73V12.42h4.6c1.236,0,1.46.108,1.46,1.685h1.066V10.062h-1.066c0,1.516-.168,1.685-1.46,1.685h-4.6V7.816c0-.73.108-.786,1.01-.786H261.4c1.516,0,1.8.056,2.526,1.909h1.117l-.9-2.639H250.5V6.86c2.077,0,2.3.108,2.3,1.293v8.534c0,1.18-.168,1.293-2.3,1.293v.561h14.486Z" transform="translate(-109.852 -2.762)"/><path class="c" d="M291.507,12.748a11.145,11.145,0,0,0,4.093-1.01,2.624,2.624,0,0,0,1.635-2.246c0-1.01-.73-1.8-2.021-2.3a15.011,15.011,0,0,0-5.951-.786H281.4v.561c2.134,0,2.3.108,2.3,1.293V16.79c0,1.18-.168,1.293-2.3,1.293v.561h6.962v-.561c-2.19,0-2.3-.056-2.3-1.293V12.912h3.032l6.064,5.615h3.93v-.561a3.476,3.476,0,0,1-3.036-1.176L291.5,12.746Zm-5.386-4.66c0-.9.056-1.01.786-1.01h2.357a9.234,9.234,0,0,1,4.211.673,2.006,2.006,0,0,1,1.348,1.741,2.137,2.137,0,0,1-1.4,1.965,10.943,10.943,0,0,1-4.772.786h-2.526V8.087Z" transform="translate(-123.402 -2.809)"/><path d="M330.577,6.3l-5.5,10.051h-.056L319.292,6.3H314.8v.561c1.909,0,2.021.108,2.021,1.236v8.534c0,1.18-.108,1.293-2.021,1.293v.561h5.109v-.561c-1.741,0-1.853-.108-1.853-1.293V8.041h.056L324.12,18.6h.9L330.8,8.1h.056v8.591c0,1.18-.108,1.293-1.909,1.293v.561h6.345v-.561c-1.909,0-2.078-.108-2.078-1.293V8.153c0-1.18.108-1.293,2.021-1.293V6.3Z" transform="translate(-138.049 -2.762)"/></g></g></svg>