<svg xmlns="http://www.w3.org/2000/svg" width="265" height="259.614" viewBox="0 0 265 259.614"><defs><style>.a{fill:#fff;}.b{fill:#ee3124;}.c{fill:#141006;}</style></defs><g transform="translate(-677 -483)"><rect class="a" width="265" height="259.614" transform="translate(677 483)"/><g transform="translate(715.401 583.069)"><rect class="b" width="68.207" height="1.66" transform="translate(119.952 38.037)"/><rect class="b" width="68.207" height="1.66" transform="translate(0 38.037)"/><g transform="translate(72.921)"><rect class="b" width="42.352" height="39.696"/></g><g transform="translate(77.634 4.78)"><g transform="translate(0 3.983)"><path class="a" d="M233.9,37.388V49.966h5.676V39.743l5.311-5.311,5.311,5.344v10.19h5.678V37.388L244.888,26.4Z" transform="translate(-233.9 -26.4)"/></g><g transform="translate(16.728)"><path class="a" d="M291.038,14.4,284.3,16.325l9.957,9.957V40.023L300.4,36.9V23.757Z" transform="translate(-284.3 -14.4)"/></g></g><path class="c" d="M0,156.271V141.7H4.879c2.29,0,3.878.93,3.878,3.751a3.038,3.038,0,0,1-1.593,3.016v.067c2.058.265,2.855,1.66,2.855,3.718,0,3.086-2.29,3.986-4.746,3.986Zm3.286-8.726h.5c1.062,0,2.024-.3,2.024-1.526,0-1.361-1-1.56-2.154-1.56H3.286Zm0,6.008H3.85c1.293,0,2.92-.033,2.92-1.66,0-1.793-1.526-1.759-2.987-1.724h-.53Z" transform="translate(0 -94.668)"/><path d="M50.771,147.789c0,4.78-3.153,8.032-7.335,8.032-4.148,0-7.335-3.253-7.335-8.032a7.336,7.336,0,1,1,14.672,0Zm-11.285,0c0,2.555,1.692,4.514,3.917,4.514,2.191,0,3.917-1.958,3.917-4.514A4.059,4.059,0,0,0,43.4,143.74a4.105,4.105,0,0,0-3.917,4.049Z" transform="translate(-24.118 -93.722)"/><path d="M90.786,156.271H87.5V141.7h3.286Z" transform="translate(-58.458 -94.668)"/><path d="M112.633,144.478a3.518,3.518,0,0,0-2.29-.93,1.5,1.5,0,0,0-1.627,1.361c0,.862.8,1.228,1.593,1.494l.93.3c1.759.564,3.253,1.56,3.253,3.95a5.241,5.241,0,0,1-1.361,3.878,5.583,5.583,0,0,1-3.751,1.361,8.062,8.062,0,0,1-4.58-1.593l1.394-2.855a4.564,4.564,0,0,0,3.087,1.438,1.642,1.642,0,0,0,1.826-1.593c0-1.195-1.427-1.56-2.191-1.793-2.024-.664-3.585-1.195-3.585-4.049a4.487,4.487,0,0,1,4.514-4.848,8.294,8.294,0,0,1,4.049,1.161Z" transform="translate(-70.016 -93.933)"/><path d="M169.063,153.974a8.17,8.17,0,0,1-4.647,1.793,4,4,0,0,1-4.215-4.116c0-2.223,1.228-3.253,2.821-4.016l.431-.233-.332-.531a4.013,4.013,0,0,1-.963-2.523,3.878,3.878,0,0,1,4.049-3.95,3.959,3.959,0,0,1,4.116,3.917c0,1.858-1.161,2.722-2.555,3.518l1.858,2.154a11.731,11.731,0,0,0,1.793-2.058l1.826,1.892-1.858,2.191h0l2.92,3.352h-4.049Zm-4.049-4.78a2.485,2.485,0,0,0-1.394,1.925,1.533,1.533,0,0,0,1.627,1.461,3.636,3.636,0,0,0,2.058-.7Zm2.788-4.879a1.37,1.37,0,0,0-1.293-1.494,1.267,1.267,0,0,0-1.261,1.361,4.21,4.21,0,0,0,1.161,2.124,2.519,2.519,0,0,0,1.393-1.989Z" transform="translate(-107.028 -93.8)"/><path d="M229.091,141.7h3.253l2.821,8.132,2.987-8.132h3.286l2.024,14.543h-3.253l-1-8.663h-.133l-3.286,8.663h-1.228l-3.153-8.663h-.166l-1.129,8.663H226.9Z" transform="translate(-151.589 -94.668)"/><path d="M284.417,153.749l-.93,2.585H280l5.111-14.543h3.651l5.011,14.543h-3.485l-.862-2.585ZM287,146.016h-.166l-1.525,5.049h3.22Z" transform="translate(-187.065 -94.736)"/><path d="M327.14,156.271h-3.286V144.716H321V141.7h9.061v3.016h-2.888v11.55Z" transform="translate(-214.457 -94.668)"/><path d="M357.753,144.787v2.693h3.95V150.5h-3.95v2.788h4.18v3.058H354.5V141.8h7.433v3.016h-4.18Z" transform="translate(-236.838 -94.736)"/><path d="M360.461,128.982l-1.261-1,2.357-3.186,1.793,1.394Z" transform="translate(-239.978 -83.377)"/><path d="M396.553,156.343H392.5l-3.386-5.808h-.166v5.808H385.7V141.8h5.078c2.655,0,4.614,1.293,4.614,4.448a3.819,3.819,0,0,1-3.016,4.083Zm-7.6-7.933h.464c1.228,0,2.555-.332,2.555-1.925s-1.195-1.992-2.555-1.992h-.464Z" transform="translate(-257.682 -94.736)"/><path d="M427.253,156.343H424V141.8h3.253Z" transform="translate(-283.27 -94.736)"/><path d="M444.017,153.749l-.93,2.585H439.6l5.111-14.543h3.651l5.012,14.543H449.89l-.862-2.555Zm2.585-7.733h-.166l-1.558,5.049h3.253Z" transform="translate(-293.692 -94.736)"/><path d="M498.118,141.8V150c0,1.692-.033,3.684-1.361,5.111a6.767,6.767,0,0,1-8.762.033c-1.327-1.427-1.394-3.419-1.394-5.145v-8.2h3.252v7.667c0,2.262.265,4.116,2.523,4.116s2.49-1.958,2.49-4.116V141.8Z" transform="translate(-325.092 -94.736)"/><path d="M527.7,141.8h4.016l2.124,3.95,2.129-3.95h4.016l-4.215,6.771,4.912,7.767h-3.959l-2.887-4.946-3.146,4.95H526.7l5.211-7.767Z" transform="translate(-351.883 -94.736)"/></g></g></svg>