<svg xmlns="http://www.w3.org/2000/svg" width="265" height="259.614" viewBox="0 0 265 259.614"><defs><style>.a{fill:#fff;}.b{fill:#006cad;}</style></defs><g transform="translate(-978 -483)"><rect class="a" width="265" height="259.614" transform="translate(978 483)"/><g transform="translate(1009.55 597.165)"><path class="b" d="M2.915,11.6,0,14.515v7.716l2.915,2.829H13.547V22.4h-9.6L2.829,21.288v-5.83l1.115-1.115h9.6V11.6Z" transform="translate(0 -1.654)"/><path class="b" d="M20.6,11.6V25.061H34.489V11.6ZM31.66,22.4H23.344V14.344H31.66Z" transform="translate(-2.938 -1.654)"/><path class="b" d="M53.774,17.6V15.544L53,14.772H45.544V17.6ZM42.8,11.6H53.774l2.744,2.829v5.659H52.831l5.059,4.973H54.375L49.23,20.174H45.544v4.887H42.8Z" transform="translate(-6.104 -1.654)"/><path class="b" d="M64.8,11.6H78.175v2.744H67.715V17h7.974v2.658H67.715v2.658h10.46v2.744H64.8Z" transform="translate(-9.242 -1.654)"/><path class="b" d="M86.1,11.6h15.176l2.829,2.915V25.061h-2.658v-9.6l-1.115-1.115H96.474V25.061H93.731V14.344H88.758V25.061H86.1Z" transform="translate(-12.28 -1.654)"/><path class="b" d="M113,11.6h13.375v2.744h-10.46V17h7.974v2.658h-7.974v2.658h10.46v2.744H113Z" transform="translate(-16.117 -1.654)"/><path class="b" d="M144.546,22.4l1.115-1.115v-5.83l-1.115-1.115h-7.716V22.4ZM134,11.6h11.575l2.915,2.915v7.716l-2.915,2.915H134Z" transform="translate(-19.112 -1.654)"/><path class="b" d="M156.2,25.061h2.829V11.6H156.2Z" transform="translate(-22.278 -1.654)"/><path class="b" d="M176.646,17.259V15.2l-.857-.857h-7.545v2.915ZM165.5,11.6h10.974l2.915,2.915V25.147h-2.744V20h-8.4v5.144H165.5Z" transform="translate(-23.605 -1.654)"/><path class="b" d="M222.664,12.6H212.8l-1.2,1.115v6l1.115,1.115h9.946v2.829H211.689l-3-3V12.775l3-3h10.974V12.6ZM228.322,9h-.857V5.916l-.343-.343h-1.2V8.917h-.857V5.659h-1.543V9h-.857V4.716h4.716a17.421,17.421,0,1,0,.943,1.029Z" transform="translate(-28.382)"/></g></g></svg>