<svg xmlns="http://www.w3.org/2000/svg" xmlns:xlink="http://www.w3.org/1999/xlink" width="265" height="259.614" viewBox="0 0 265 259.614"><defs><style>.a{fill:#fff;}.b{fill:url(#a);}.c{fill:url(#b);}.d{fill:url(#c);}.e{fill:url(#d);}.f{fill:url(#e);}.g{fill:url(#f);}.h{fill:url(#g);}.i{fill:url(#h);}</style><linearGradient id="a" x1="0.5" y1="2.166" x2="0.5" y2="-0.083" gradientUnits="objectBoundingBox"><stop offset="0" stop-color="#fff"/><stop offset="1"/></linearGradient><linearGradient id="b" x1="0.501" y1="8.014" x2="0.501" y2="-2.164" xlink:href="#a"/><linearGradient id="c" x1="0.497" y1="7.875" x2="0.497" y2="-2.113" xlink:href="#a"/><linearGradient id="d" x1="0.497" y1="7.961" x2="0.497" y2="-2.143" xlink:href="#a"/><linearGradient id="e" x1="0.499" y1="8.026" x2="0.499" y2="-2.183" xlink:href="#a"/><linearGradient id="f" x1="0.499" y1="7.929" x2="0.499" y2="-2.126" xlink:href="#a"/><linearGradient id="g" x1="0.496" y1="7.855" x2="0.496" y2="-2.112" xlink:href="#a"/><linearGradient id="h" x1="0.503" y1="7.971" x2="0.503" y2="-2.145" xlink:href="#a"/></defs><g transform="translate(-1280 -483)"><rect class="a" width="265" height="259.614" transform="translate(1280 483)"/><g transform="translate(1309.193 582.854)"><path class="b" d="M54.2,89.7a30.987,30.987,0,1,0-.215,61.941A30.987,30.987,0,1,0,54.2,89.7Zm14.327,48.8a24.1,24.1,0,0,1-12.173,4.848,66.477,66.477,0,0,1-9.264,0c-3.339,0-6.787-.323-10.126-.539H36.1V131.282h.539a38.227,38.227,0,0,0,10.234,3.447,33.093,33.093,0,0,0,7.325.539,14.492,14.492,0,0,0,10.988-5.386,12.134,12.134,0,0,0,2.585-6.571,16.619,16.619,0,0,0-.754-6.894,12.208,12.208,0,0,0-7.325-7.433,26.256,26.256,0,0,0-5.709-1.508h.323a37.814,37.814,0,0,1,9.911,2.154,20.037,20.037,0,0,1,6.679,3.986,13.6,13.6,0,0,1,4.74,10.341,17.087,17.087,0,0,1-7.217,14.65V138.5ZM79.193,125.68a21.274,21.274,0,0,1-3.986,7.756l-.215.215h-.215c.215-.431.539-.862.754-1.293a19.242,19.242,0,0,0,1.831-7,16.217,16.217,0,0,0-.539-6.033A16.456,16.456,0,0,0,71.868,112a23.5,23.5,0,0,0-10.449-4.955,33.283,33.283,0,0,0-9.8-.862,5.614,5.614,0,0,0-4.955,3.663,9.163,9.163,0,0,0-.431,2.37V127.4a7.464,7.464,0,0,0,.323,2.154,5.082,5.082,0,0,0,3.124,3.339H50a10.814,10.814,0,0,1-2.585-.431A30.18,30.18,0,0,1,37.5,129.02c-1.4-.754-1.4-.754-1.4-2.262V110.168A24.573,24.573,0,0,0,33.519,99.18a5.251,5.251,0,0,1-.323-.754H53.017a30.505,30.505,0,0,1,14.974,3.663,22.339,22.339,0,0,1,10.449,12.173,18.14,18.14,0,0,1,.646,11.2v.215Z" transform="translate(-22.1 -89.695)"/><path class="c" d="M110.22,112.554a11.809,11.809,0,0,0-6.787-2.154H94.6v.323a11.625,11.625,0,0,1,.754,4.632v12.6h7.864a17.725,17.725,0,0,0,3.339-.431,8.816,8.816,0,0,0,7-7.864A7.543,7.543,0,0,0,110.22,112.554Zm-2.693,10.772a5.312,5.312,0,0,1-4.632,2.8,6.522,6.522,0,0,1-2.047,0c-.754,0-1.077-.323-1.077-1.077v-6.033h0v-6.033c0-.754.323-.97,1.077-1.077a6.432,6.432,0,0,1,7.433,4.955A8.833,8.833,0,0,1,107.527,123.327Z" transform="translate(-16.5 -88.096)"/><path class="d" d="M178.727,110.414v10.665h0l-.539-.539-9.049-9.7c-.215-.215-.431-.539-.754-.539a10.382,10.382,0,0,0-2.585,0v17.343a11.263,11.263,0,0,0,2.693,0v-8.726a13.127,13.127,0,0,1,0-2.909c.323,0,.323.323.539.539,3.232,3.555,6.571,7.11,9.911,10.772a2.2,2.2,0,0,0,2.478.646V110.414h-2.693Z" transform="translate(-11.001 -88.109)"/><path class="e" d="M156.819,111.7c-.754-1.4-.754-1.4-2.262-1.4h-.323L145.4,127.967h2.154a.992.992,0,0,0,1.185-.754c.431-1.077,1.077-1.939,1.508-3.016a1.428,1.428,0,0,1,1.616-1.077H157.9c.539,1.077.97,2.154,1.508,3.124.97,1.831.323,1.616,2.693,1.616a10.381,10.381,0,0,0,2.585,0l-.754-1.508Zm-5.386,10.234,2.909-5.925c1.077,2.047,1.939,3.878,2.909,5.925Z" transform="translate(-12.577 -88.103)"/><path class="f" d="M183.317,127.944c4.417.215,8.941.215,13.358,0v-1.831h-7.756c-.969,0-1.4-.323-1.4-1.077V119.11h7.541c0-.862,0-.862-.754-.862h-6.787v-4.632c0-1.4,0-1.724,1.724-1.724h7.433V110.6H183.317C182.994,111.785,182.994,127.189,183.317,127.944Z" transform="translate(-9.667 -88.08)"/><path class="g" d="M120.609,126.143c-.97,0-1.293-.323-1.293-1.077v-6.033H126c.754,0,.754,0,.539-.97h-7.217v-5.386c0-.754.323-.97.97-1.077h8.079v-1.4H114.9v17.774h13.465v-1.831Z" transform="translate(-14.933 -88.111)"/><path class="h" d="M214.536,110.3a1.3,1.3,0,0,0-1.4.754c-1.4,2.154-3.016,4.309-4.632,6.356l-.646.862-.646-.862-4.955-6.463c-.323-.323-.539-.646-1.077-.646H197.3l.539.862c2.154,2.8,4.309,5.709,6.356,8.51a3.4,3.4,0,0,1,.754,2.047v6.248a10.178,10.178,0,0,0,4.417,0V121.5a3.631,3.631,0,0,1,.539-1.831l5.709-8.187.754-1.077Z" transform="translate(-8.568 -88.105)"/><path class="i" d="M137.033,126.135c-1.4,0-1.616-.215-1.724-1.616V110.3H131v17.667h13.465v-1.831Z" transform="translate(-13.689 -88.103)"/></g></g></svg>