<svg xmlns="http://www.w3.org/2000/svg" width="265" height="259.614" viewBox="0 0 265 259.614"><defs><style>.a{fill:#fff;}.b{fill:#f59228;}.c{fill:#050608;}</style></defs><g transform="translate(-375 -773)"><rect class="a" width="265" height="259.614" transform="translate(375 773)"/><g transform="translate(409.579 871.379)"><path class="b" d="M66.419,111.489V89.837c0-.215.108-.431.323-.431a4.636,4.636,0,0,1,1.724,0c.215.108.431.215.431.539v41.581a20.992,20.992,0,0,1-10.449,17.882,18.288,18.288,0,0,1-4.74,1.939,23.285,23.285,0,0,1-8.187.754,26.658,26.658,0,0,1-3.124-.646,19.351,19.351,0,0,1-7-3.447,20.467,20.467,0,0,1-7.217-10.018A20.174,20.174,0,0,1,27.1,131.31a21.67,21.67,0,0,1,1.4-7.433,20.173,20.173,0,0,1,7.972-9.911,18.366,18.366,0,0,1,6.679-2.8A24.747,24.747,0,0,1,48,110.627c.862,0,.862.108.97.862.108,1.616.108,1.616-1.508,1.508-.323,0-.646.108-1.077.108a21.2,21.2,0,0,0-3.77.646,18.309,18.309,0,0,0-6.463,3.663,18.1,18.1,0,0,0-4.632,6.033,17.435,17.435,0,0,0-1.724,6.14,16.9,16.9,0,0,0,.754,7.325,18.233,18.233,0,0,0,6.463,9.264,19.082,19.082,0,0,0,4.74,2.693,17.836,17.836,0,0,0,2.262.646,20.37,20.37,0,0,0,5.709.323,13.645,13.645,0,0,0,4.524-.969,18.586,18.586,0,0,0,11.742-13.25,17.05,17.05,0,0,0,.539-4.094c-.108-6.679-.108-13.358-.108-20.037Z" transform="translate(-27.1 -89.325)"/><path class="c" d="M199.657,107.8H204.5a9.731,9.731,0,0,1,3.016.431,4.925,4.925,0,0,1,3.878,4.417,11.289,11.289,0,0,1,.108,2.693c-.108,2.047.108,3.986-.108,6.033a5.013,5.013,0,0,1-4.632,4.848,26.412,26.412,0,0,1-2.909.215h-8.833a11.365,11.365,0,0,1-3.339-.431,4.7,4.7,0,0,1-3.77-4.2,16.135,16.135,0,0,1-.215-2.37v-5.063a16.073,16.073,0,0,1,.215-2.262,4.833,4.833,0,0,1,4.524-4.093,30.329,30.329,0,0,1,4.417-.215Zm0,13.9h0c1.293,0,2.585.108,3.878,0,1.724-.108,2.262-.646,2.37-2.37.108-1.077.108-2.262.108-3.339,0-2.585-.862-3.447-3.447-3.447h-4.74a13.735,13.735,0,0,0-2.047.108,2.432,2.432,0,0,0-2.478,2.478,27.347,27.347,0,0,0,0,4.2c.215,1.724.754,2.262,2.478,2.37C197.072,121.8,198.365,121.7,199.657,121.7Z" transform="translate(-14.696 -87.898)"/><path class="c" d="M71.5,117.157v-8.295c0-.97,0-.862.754-.862H88.413a7.242,7.242,0,0,1,2.585.431,4.7,4.7,0,0,1,3.555,4.2,60.444,60.444,0,0,1,0,8.833c-.215,2.478-1.616,3.878-4.2,4.417a10.49,10.49,0,0,1-2.585.215H72.577c-1.077,0-.97.108-.97-.97C71.5,122.543,71.5,119.85,71.5,117.157Zm5.278-4.417v7.972c0,.754,0,.754.754.754h7.541a11.708,11.708,0,0,0,1.939-.108c1.508-.108,2.154-.754,2.262-2.154a30.214,30.214,0,0,0,0-4.417,2.1,2.1,0,0,0-2.262-2.154H77.748C77.425,112.632,77.1,112.525,76.778,112.74Z" transform="translate(-23.671 -87.883)"/><path class="b" d="M61.451,111.7V90.585c0-1.077.108-1.185,1.185-1.185h.646c.539,0,.754.215.646.754V131.52a15.807,15.807,0,0,1-4.848,11.419,16.457,16.457,0,0,1-14,4.524,14.865,14.865,0,0,1-5.063-1.724,15.942,15.942,0,0,1-7.325-8.187,15.159,15.159,0,0,1-.862-9.264,17.454,17.454,0,0,1,4.309-8.4,17.061,17.061,0,0,1,6.033-3.878,12.954,12.954,0,0,1,6.033-.97c.431,0,.539.215.539.539.108,1.939.108,1.831-1.831,1.939a12.748,12.748,0,0,0-8.295,3.447,13.708,13.708,0,0,0-3.232,4.2,13.478,13.478,0,0,0-1.185,8.941A13.7,13.7,0,0,0,37,140.03a14.8,14.8,0,0,0,5.925,4.309,14.715,14.715,0,0,0,6.787.754,11.151,11.151,0,0,0,4.417-1.4,13.486,13.486,0,0,0,6.14-6.571,12.989,12.989,0,0,0,1.185-5.278c0-6.787.108-13.465,0-20.144Z" transform="translate(-26.764 -89.319)"/><path class="c" d="M137.136,119.08c1.939.646,2.478,2.154,2.37,3.986v2.585c0,.431-.108.754-.646.646h-4.093c-.539,0-.646-.215-.539-.646V123.6c-.108-1.508-.539-2.047-2.047-2.047h-7.756c-.539,0-.754.215-.754.754v3.339c0,.539-.108.754-.646.754a23.308,23.308,0,0,0-3.878,0c-.646,0-.646-.215-.646-.754v-16.7c0-.754,0-.754.754-.754h15.728a4.823,4.823,0,0,1,2.154.431,3.773,3.773,0,0,1,2.37,3.124,14.74,14.74,0,0,1,.108,3.77A3.424,3.424,0,0,1,137.136,119.08Zm-8.618-2.154H132.5c1.4,0,1.939-.539,2.047-1.939v-.431c-.108-1.508-.539-1.939-1.939-2.047h-8.187c-.431,0-.646.108-.646.539v3.124c0,.431.108.646.646.646C125.825,116.926,127.118,116.926,128.518,116.926Z" transform="translate(-20.041 -87.867)"/><path class="c" d="M181.951,114.81c-.215-.215-.108-.431-.215-.646-.108-.97-.431-1.293-1.508-1.508a4.039,4.039,0,0,0-1.185-.108h-5.386c-2.585,0-3.555.97-3.555,3.555a21.742,21.742,0,0,0,.108,3.77c.323,1.185.862,1.724,2.047,1.724,1.616.108,3.124.108,4.74.108a26.25,26.25,0,0,0,2.909-.108c1.185-.108,1.616-.539,1.831-1.724.108-.754.108-.754.862-.754h3.878c.431,0,.646.108.646.646a17.453,17.453,0,0,1-.108,2.37,4.185,4.185,0,0,1-3.878,3.986,21.032,21.032,0,0,1-2.478.215h-8.833a12.1,12.1,0,0,1-3.447-.431,4.866,4.866,0,0,1-3.663-3.77,13.261,13.261,0,0,1-.215-2.154v-6.14a6.945,6.945,0,0,1,.323-2.154,4.94,4.94,0,0,1,4.2-3.77,11.369,11.369,0,0,1,2.693-.215h7.648a16.252,16.252,0,0,1,4.524.539,3.827,3.827,0,0,1,2.8,3.016,12.759,12.759,0,0,1,.215,2.8c0,.323-.108.539-.539.539A29.6,29.6,0,0,1,181.951,114.81Z" transform="translate(-16.488 -87.906)"/><path class="c" d="M165.438,126.2h-5.386c-.431,0-.539-.215-.646-.539-.323-.646-.754-1.4-1.077-2.047a.942.942,0,0,0-.969-.646h-9.372a.942.942,0,0,0-.97.646c-.323.754-.754,1.508-1.077,2.154a.591.591,0,0,1-.646.431H139.8c.323-.646.539-1.185.862-1.724,2.693-5.171,5.386-10.449,8.079-15.62a1.306,1.306,0,0,1,1.293-.754h5.386a.955.955,0,0,1,1.077.646c2.909,5.709,5.817,11.311,8.833,16.913A.474.474,0,0,1,165.438,126.2Zm-12.711-13.9c-1.077,2.262-2.154,4.417-3.232,6.679h6.571C154.881,116.718,153.8,114.671,152.727,112.3Z" transform="translate(-18.396 -87.875)"/><path class="c" d="M95.4,114.571v-5.817c0-.754,0-.754.754-.754h3.77c.862,0,.754-.108.754.862v9.48a8.153,8.153,0,0,0,.108,1.616,2.306,2.306,0,0,0,1.939,1.724c.215,0,.431.108.646.108h5.709a2.372,2.372,0,0,0,2.693-2.478c.108-1.077.108-2.262.108-3.339v-7.217c0-.431.108-.646.539-.646h4.093c.431,0,.646.108.646.539V120.6a9.162,9.162,0,0,1-.431,2.37,5.3,5.3,0,0,1-3.986,3.232,8.2,8.2,0,0,1-2.262.323h-8.295a7.438,7.438,0,0,1-2.693-.431A4.813,4.813,0,0,1,95.723,122a13.261,13.261,0,0,1-.215-2.154C95.4,118.126,95.4,116.4,95.4,114.571Z" transform="translate(-21.825 -87.883)"/><path class="b" d="M59.051,111.591v19.39a15.365,15.365,0,0,1-.754,4.955,11.619,11.619,0,0,1-2.8,3.986,10.27,10.27,0,0,1-5.063,2.8,10.955,10.955,0,0,1-4.2.215,11.53,11.53,0,0,1-5.6-2.154,11.031,11.031,0,0,1-4.524-7.972,11.532,11.532,0,0,1,3.124-9.372,11,11,0,0,1,5.278-3.124,10.288,10.288,0,0,1,3.124-.323c.431,0,.646.108.646.646,0,1.831.108,1.831-1.724,1.939a8.345,8.345,0,0,0-6.033,3.124,9.375,9.375,0,0,0-1.724,3.232,7.559,7.559,0,0,0-.323,3.124,8.71,8.71,0,0,0,4.417,7.325,13.434,13.434,0,0,0,3.124,1.185,8.527,8.527,0,0,0,7.648-2.154,8.678,8.678,0,0,0,2.909-5.817c.215-4.309.108-8.618.108-12.927,0-1.724-.108-3.555-.108-5.278.108-1.939,0-3.878,0-5.817,0-1.077.108-2.262.108-3.339,0-1.293-.108-2.478-.108-3.663.108-3.77.108-7.433.108-11.2,0-.754.108-.862.754-.97h.539c1.077,0,1.077.108,1.077,1.077C59.051,97.372,59.051,104.481,59.051,111.591Z" transform="translate(-26.411 -89.319)"/><path class="b" d="M53.994,111.269v20.791a6.453,6.453,0,0,1-3.77,5.817,7.872,7.872,0,0,1-3.555.862,7.139,7.139,0,0,1-5.925-10.018,6.632,6.632,0,0,1,4.2-3.77,16.344,16.344,0,0,1,2.262-.323c.431,0,.754.215.754.646v.431c0,1.293,0,1.293-1.293,1.4a4.575,4.575,0,0,0-3.986,5.6,4.674,4.674,0,0,0,3.447,3.447,4.256,4.256,0,0,0,4.309-1.508,3.355,3.355,0,0,0,.97-2.8c0-3.339-.108-6.787,0-10.126.215-10.018,0-19.929.108-29.947V90.262c0-.754,0-.862.862-.862,1.831,0,1.508-.215,1.508,1.508.108,6.787.108,13.573.108,20.36Z" transform="translate(-26.093 -89.32)"/></g></g></svg>