<svg xmlns="http://www.w3.org/2000/svg" width="265" height="259.614" viewBox="0 0 265 259.614"><defs><style>.a{fill:#fff;}.b{fill:#1e1645;}</style></defs><g transform="translate(-677 -773)"><rect class="a" width="265" height="259.614" transform="translate(677 773)"/><g transform="translate(712.231 885.884)"><path class="b" d="M257.2,154.665V150.1h2.526v.7H258v1.321h1.573v.7H258v1.845Z" transform="translate(-207.229 -120.937)"/><path class="b" d="M291.817,153.966v.7H289V150.1h2.778v.7h-2.024v1.224h1.865v.68h-1.865v1.263Z" transform="translate(-232.851 -120.937)"/><path class="b" d="M326.289,153.48V150.1h.754v4.565h-.754l-2.331-3.339v3.339H323.2V150.1h.8Z" transform="translate(-260.407 -120.937)"/><path class="b" d="M366.517,153.966v.7H363.7V150.1h2.778v.7h-2v1.224h1.845v.68h-1.845v1.263Z" transform="translate(-293.038 -120.937)"/><path class="b" d="M430.115,154.665h-.777V150.8H427.9v-.7h3.653v.7h-1.438Z" transform="translate(-344.764 -120.937)"/><path class="b" d="M501.254,150.919l-.777,2.1h1.554Zm-1.03,2.759-.389,1.069H499l1.768-4.546h.952l1.768,4.546h-.855l-.389-1.069Z" transform="translate(-402.051 -121.018)"/><path class="b" d="M537.715,154.665h-.777V150.8H535.5v-.7h3.653v.7h-1.438Z" transform="translate(-431.46 -120.937)"/><rect class="b" width="0.777" height="4.546" transform="translate(111.23 29.163)"/><path class="b" d="M642.47,153.48V150.1h.754v4.565h-.738l-2.331-3.339v3.339H639.4V150.1h.8Z" transform="translate(-515.172 -120.937)"/><path class="b" d="M784.9,150.1h.777v3.866h1.865v.7H784.9Z" transform="translate(-632.404 -120.937)"/><path class="b" d="M855.115,154.665h-.777V150.8H852.9v-.7h3.653v.7h-1.438Z" transform="translate(-687.192 -120.937)"/><rect class="b" width="0.777" height="4.546" transform="translate(172.896 29.163)"/><path class="b" d="M959.869,153.48V150.1h.754v4.565h-.738l-2.331-3.339v3.339H956.8V150.1h.8Z" transform="translate(-770.906 -120.937)"/><path class="b" d="M28.978,33.354H7.625v-2.72h18.07l3.26-8.549V33.354Zm-25.413-4,2.778-7.247v7.247ZM7.625,2.482H28.954V5.124H11.473L7.625,15.15Zm21.353,16.01L24.82,29.333H7.625V18.744L12.347,6.407H28.954V18.492ZM33.6,6.388,30.263,15.15V6.388Zm1.865-1.282H30.24V1.2H6.344V18.511L1.7,30.634H6.344v4.021h23.9V18.744Z" transform="translate(-1.369 -0.967)"/><path class="b" d="M29.1,5.653v7.285l2.8-7.285H29.1Zm-.45,9.751V5.207h3.9ZM6.489,1.748V12.959L9.947,3.924H27.375V1.748ZM6.042,15.429V1.282h21.8v3.09H10.259ZM2.526,28.152H4.74v-5.79Zm2.681.447H1.868l3.339-8.726Zm1.282-.447h16.8l4.081-10.665V5.653H11.153L6.489,17.816Zm17.116.447H6.042l.019-10.919,4.78-12.5h17L27.822,17.6ZM6.489,32.154H27.375V22.343L24.48,29.9H6.489Zm21.329.466H6.042V29.434H24.188l3.653-9.54V32.621ZM5.2,33.457H28.654L28.674,17.7,33.786,4.391H28.677V.447H5.207L5.188,17.6.66,29.434H5.206Zm23.9.447H4.74V29.881H0l4.74-12.4V0H29.1V3.924h5.324L29.1,17.821Z"/><path class="b" d="M28.978,33.354H7.625v-2.72h18.07l3.26-8.549V33.354Zm-25.413-4,2.778-7.247v7.247ZM7.625,2.482H28.954V5.124H11.473L7.625,15.15Zm21.353,16.01L24.82,29.333H7.625V18.744L12.347,6.407H28.954V18.492ZM33.6,6.388,30.263,15.15V6.388Zm1.865-1.282H30.24V1.2H6.344V18.511L1.7,30.634H6.344v4.021h23.9V18.744Z" transform="translate(-1.369 -0.967)"/><path class="b" d="M29.1,5.653v7.285l2.8-7.285H29.1Zm-.45,9.751V5.207h3.9ZM6.489,1.748V12.959L9.947,3.924H27.375V1.748ZM6.042,15.429V1.282h21.8v3.09H10.259ZM2.526,28.152H4.74v-5.79Zm2.681.447H1.868l3.339-8.726Zm1.282-.447h16.8l4.081-10.665V5.653H11.153L6.489,17.816Zm17.116.447H6.042l.019-10.919,4.78-12.5h17L27.822,17.6ZM6.489,32.154H27.375V22.343L24.48,29.9H6.489Zm21.329.466H6.042V29.434H24.188l3.653-9.54V32.621ZM5.2,33.457H28.654L28.674,17.7,33.786,4.391H28.677V.447H5.207L5.188,17.6.66,29.434H5.206Zm23.9.447H4.74V29.881H0l4.74-12.4V0H29.1V3.924h5.324L29.1,17.821Z"/><path class="b" d="M266.371,33.912v2.234H257.2V21.4h9.015v2.234h-6.509V27.6h6.042v2.2h-6.042v4.119Z" transform="translate(-207.229 -17.242)"/><path class="b" d="M407.905,32.3V21.4h2.449V36.146h-2.428l-7.577-10.8v10.8H397.9V21.4h2.585Z" transform="translate(-320.593 -17.242)"/><path class="b" d="M567.951,33.912v2.234H558.8V21.4h9v2.234h-6.489V27.6h6.023v2.2h-6.023v4.119Z" transform="translate(-450.232 -17.242)"/><rect class="b" width="2.526" height="14.746" transform="translate(193.704 4.158)"/><path class="b" d="M702.026,27.774h1.244c2,0,3.3-.875,3.3-2.778,0-1.69-1.166-2.681-3.4-2.681a11.041,11.041,0,0,0-1.146.058Zm0,7.325H699.5V20.372a25.55,25.55,0,0,1,3.672-.273c3.866,0,5.984,1.71,5.984,4.818a4.5,4.5,0,0,1-2.933,4.371l4.449,5.81h-3.051L703.7,29.852h-1.671Z" transform="translate(-563.596 -16.195)"/><path class="b" d="M850.129,24.008a6.169,6.169,0,0,0-4.173-1.535,5,5,0,0,0-5.129,5.343,5.072,5.072,0,0,0,5.129,5.418,5.371,5.371,0,0,0,2.176-.35V29.973h-2.72V27.855h5.246v6.489a9.532,9.532,0,0,1-4.76,1.088c-4.585,0-7.694-3.016-7.694-7.616A7.325,7.325,0,0,1,845.82,20.2a7.985,7.985,0,0,1,4.294,1.127v2.681Z" transform="translate(-675.348 -16.276)"/><path class="b" d="M708.958,153.276a1.893,1.893,0,0,0,1.2.466c.447,0,.835-.175.835-.646,0-.431-.331-.583-.835-.738-.875-.273-1.263-.622-1.263-1.38a1.3,1.3,0,0,1,1.458-1.282,1.977,1.977,0,0,1,1.165.35v.777a1.761,1.761,0,0,0-1.146-.466c-.431,0-.7.233-.7.583,0,.37.252.525.836.7.894.271,1.263.646,1.263,1.419,0,.913-.719,1.321-1.593,1.321a2.161,2.161,0,0,1-1.2-.331v-.777Z" transform="translate(-571.17 -120.617)"/><path class="b" d="M743.751,150.419a1.655,1.655,0,1,0,1.554,1.651,1.548,1.548,0,0,0-1.555-1.651m0-.719a2.351,2.351,0,1,1-2.351,2.351,2.287,2.287,0,0,1,2.351-2.351" transform="translate(-597.355 -120.616)"/><path class="b" d="M816.12,150.1h.777v2.856c0,.875.466,1.107,1.127,1.107a5.886,5.886,0,0,0,.894-.078V150.1h.777v4.43a7.261,7.261,0,0,1-1.671.215c-1.03,0-1.924-.369-1.924-1.632V150.1Z" transform="translate(-657.542 -120.937)"/><path class="b" d="M995.878,153.276a1.893,1.893,0,0,0,1.2.466c.447,0,.836-.175.836-.646,0-.431-.331-.583-.836-.738-.875-.273-1.282-.622-1.282-1.38a1.3,1.3,0,0,1,1.458-1.282,1.977,1.977,0,0,1,1.165.35v.777a1.761,1.761,0,0,0-1.146-.466c-.431,0-.7.233-.7.583,0,.37.252.525.836.7.894.271,1.263.646,1.263,1.419,0,.913-.719,1.321-1.593,1.321a2.16,2.16,0,0,1-1.2-.331Z" transform="translate(-802.329 -120.617)"/><path class="b" d="M915.551,150.419a1.655,1.655,0,1,0,1.555,1.651,1.548,1.548,0,0,0-1.555-1.651m0-.719a2.351,2.351,0,1,1-2.351,2.351,2.287,2.287,0,0,1,2.351-2.351" transform="translate(-735.777 -120.616)"/><path class="b" d="M598.151,150.419a1.655,1.655,0,1,0,1.555,1.651,1.548,1.548,0,0,0-1.555-1.651m0-.719a2.351,2.351,0,1,1-2.351,2.351,2.287,2.287,0,0,1,2.351-2.351" transform="translate(-480.044 -120.616)"/><path class="b" d="M396.458,153.276a1.894,1.894,0,0,0,1.2.466c.447,0,.836-.175.836-.646,0-.431-.331-.583-.836-.738-.875-.273-1.263-.622-1.263-1.38a1.3,1.3,0,0,1,1.458-1.282,1.977,1.977,0,0,1,1.166.35v.777a1.761,1.761,0,0,0-1.146-.466c-.431,0-.7.233-.7.583,0,.37.252.525.836.7.894.271,1.263.646,1.263,1.419,0,.913-.719,1.321-1.593,1.321a2.161,2.161,0,0,1-1.2-.331v-.777Z" transform="translate(-319.384 -120.617)"/><path class="b" d="M465.677,152.151h.389c.622,0,1.01-.273,1.01-.855,0-.525-.369-.836-1.049-.836a2,2,0,0,0-.35.019Zm0,2.273H464.9v-4.546a9.325,9.325,0,0,1,1.127-.078c1.2,0,1.845.525,1.845,1.5a1.407,1.407,0,0,1-.913,1.361l1.38,1.787h-.933l-1.2-1.616H465.7v1.593Z" transform="translate(-374.576 -120.695)"/></g></g></svg>