<svg xmlns="http://www.w3.org/2000/svg" width="265" height="259.614" viewBox="0 0 265 259.614"><defs><style>.a{fill:#fff;}.b{fill:#226195;}.c{fill:#0f4372;}.d{fill:#226194;}.e{fill:#226193;}.f{fill:none;stroke:#226193;stroke-miterlimit:10;stroke-width:1.7px;}</style></defs><g transform="translate(-978 -773)"><rect class="a" width="265" height="259.614" transform="translate(978 773)"/><g transform="translate(1014.786 873.656)"><g transform="translate(0.08 55.355)"><path class="b" d="M2.656,73.579v6.391H2.1V73.579H.1V73.1H4.653v.479Z" transform="translate(-0.1 -72.932)"/><path class="b" d="M14.836,79.887V77.01a1.2,1.2,0,0,0-1.279-1.358,1.2,1.2,0,0,0-1.279,1.358v2.876H11.8V73.1h.479v2.716a1.706,1.706,0,0,1,1.358-.639,1.577,1.577,0,0,1,1.677,1.758v2.952Z" transform="translate(-2.453 -72.932)"/><path class="b" d="M22.979,78.277c0,1.2.559,1.838,1.518,1.838a1.59,1.59,0,0,0,1.279-.559l.4.323A2.063,2.063,0,0,1,24.5,80.6c-1.279,0-2-.8-2-2.4,0-1.518.719-2.4,1.838-2.4s1.838.879,1.838,2.237v.236ZM25.536,77a1.3,1.3,0,0,0-2.4,0,2.466,2.466,0,0,0-.159.879H25.7c0-.48,0-.64-.159-.88Z" transform="translate(-4.605 -73.474)"/><path class="b" d="M44.874,79.132a2.566,2.566,0,0,1-1.758.8,2.176,2.176,0,0,1-1.677-.719c-.639-.639-.639-1.2-.639-2.8,0-1.518,0-2.154.639-2.8a2.3,2.3,0,0,1,1.677-.719,2.424,2.424,0,0,1,2,.959l-.323.323a2.248,2.248,0,0,0-1.677-.8,1.59,1.59,0,0,0-1.279.559c-.479.479-.559,1.038-.559,2.478s0,2,.559,2.478a1.885,1.885,0,0,0,1.279.559,2,2,0,0,0,1.438-.639,1.964,1.964,0,0,0,.4-1.358v-.639H43.117v-.479h2.315v1.118a2.25,2.25,0,0,1-.558,1.68Z" transform="translate(-8.285 -72.892)"/><path class="b" d="M54.219,79.887A1.077,1.077,0,0,1,53.1,78.692V73.1h.479v5.592c0,.479.159.8.719.8h.323v.4Z" transform="translate(-10.76 -72.932)"/><path class="b" d="M63.515,80.054a1.939,1.939,0,0,1-2.556,0,3.3,3.3,0,0,1,0-3.674,1.939,1.939,0,0,1,2.556,0,3.3,3.3,0,0,1,0,3.674ZM63.2,76.619a1.35,1.35,0,0,0-1.917,0,2.1,2.1,0,0,0-.4,1.518c0,.559,0,1.2.4,1.518a1.35,1.35,0,0,0,1.917,0,2.1,2.1,0,0,0,.4-1.518,2.555,2.555,0,0,0-.4-1.518Z" transform="translate(-12.227 -73.495)"/><path class="b" d="M74.356,79.571a1.58,1.58,0,0,1-1.118.4,1.483,1.483,0,0,1-1.358-.639v.555H71.4V73.1h.479v2.8a1.483,1.483,0,0,1,1.358-.639,1.58,1.58,0,0,1,1.118.4,2.71,2.71,0,0,1,.559,2,2.4,2.4,0,0,1-.559,1.912Zm-1.2-3.915c-1.118,0-1.279.959-1.279,1.917s.159,1.917,1.279,1.917,1.279-.959,1.279-1.917S74.276,75.656,73.158,75.656Z" transform="translate(-14.439 -72.932)"/><path class="b" d="M84.816,80.433v-.479a1.675,1.675,0,0,1-1.438.479c-.719,0-1.038-.08-1.358-.4a1.2,1.2,0,0,1-.323-.879c0-.879.639-1.358,1.6-1.358h1.518v-.479c0-.719-.4-1.118-1.279-1.118a1.4,1.4,0,0,0-1.279.559l-.323-.239a1.715,1.715,0,0,1,1.6-.719c1.2,0,1.758.559,1.758,1.518v3.2h-.479Zm0-2.154H83.378q-1.2,0-1.2.959c0,.639.4.879,1.2.879a1.432,1.432,0,0,0,1.118-.323,1.285,1.285,0,0,0,.239-.879v-.636Z" transform="translate(-16.51 -73.475)"/><path class="b" d="M94.019,79.887A1.077,1.077,0,0,1,92.9,78.692V73.1h.479v5.592c0,.479.159.8.719.8h.323v.4Z" transform="translate(-18.763 -72.932)"/><path class="b" d="M107.8,79.871v-.559l3.595-5.832h-3.435V73h3.994v.479l-3.595,5.912h3.595v.479Z" transform="translate(-21.759 -72.912)"/><path class="b" d="M119.5,73.719a.362.362,0,1,1,.323-.4A.362.362,0,0,1,119.5,73.719Zm-.323,6.151V75.238h.479V79.87Z" transform="translate(-24.032 -72.912)"/><path class="b" d="M129.636,80.414V77.538a1.281,1.281,0,1,0-2.556,0v2.876H126.6V75.782h.479v.559a1.706,1.706,0,0,1,1.358-.639,1.508,1.508,0,0,1,1.2.479,1.687,1.687,0,0,1,.479,1.279v2.956h-.479Z" transform="translate(-25.54 -73.454)"/><path class="b" d="M139.4,80.494c-1.279,0-2-.879-2-2.4,0-1.438.8-2.4,2-2.4a1.744,1.744,0,0,1,1.518.719l-.323.323a1.327,1.327,0,0,0-1.2-.559,1.409,1.409,0,0,0-1.2.639,2.136,2.136,0,0,0-.323,1.358,2.286,2.286,0,0,0,.323,1.358,1.409,1.409,0,0,0,1.2.639,1.544,1.544,0,0,0,1.2-.559l.323.323a2.241,2.241,0,0,1-1.518.553Z" transform="translate(-27.713 -73.454)"/><path class="b" d="M155.5,79.887V73.1h4.154v.479h-3.595v2.636h3.115v.479h-3.115V79.41h3.595v.476Z" transform="translate(-31.352 -72.932)"/><path class="b" d="M169.356,80.432l-1.2-1.917-1.2,1.917h-.56l1.6-2.4L166.48,75.8h.559l1.2,1.838,1.118-1.838h.559L168.4,78.037l1.6,2.4Z" transform="translate(-33.545 -73.474)"/><path class="b" d="M179.856,80.109a1.58,1.58,0,0,1-1.118.4,1.483,1.483,0,0,1-1.358-.639v2.8H176.9V75.884h.479v.559a1.483,1.483,0,0,1,1.358-.639,1.58,1.58,0,0,1,1.118.4,3.7,3.7,0,0,1,0,3.915Zm-1.2-3.915c-1.118,0-1.279.959-1.279,1.917s.159,1.917,1.279,1.917,1.279-.959,1.279-1.917-.16-1.912-1.279-1.912Z" transform="translate(-35.656 -73.475)"/><path class="b" d="M187.879,78.277c0,1.2.559,1.838,1.518,1.838a1.59,1.59,0,0,0,1.279-.559l.4.323a2.064,2.064,0,0,1-1.677.719c-1.279,0-2-.8-2-2.4,0-1.518.719-2.4,1.838-2.4s1.838.879,1.838,2.237v.236h-3.2ZM190.436,77a1.3,1.3,0,0,0-2.4,0,2.465,2.465,0,0,0-.159.879H190.6a2.138,2.138,0,0,0-.159-.88Z" transform="translate(-37.768 -73.474)"/><path class="b" d="M200.956,76.619a1.144,1.144,0,0,0-.879-.4c-.8,0-1.2.639-1.2,1.438v2.875H198.4V75.9h.479v.639a1.6,1.6,0,0,1,1.358-.639,1.228,1.228,0,0,1,1.118.479Z" transform="translate(-39.98 -73.495)"/><path class="b" d="M208.758,80.071a1.077,1.077,0,0,1-1.118-1.2V75.838H207v-.4h.639V74h.479v1.438h1.036v.4h-1.038v3.036c0,.479.239.8.719.8h.323v.4Z" transform="translate(-41.709 -73.113)"/></g><g transform="translate(0 14.46)"><path class="c" d="M0,23.4H17.416v2.956H3.036v9.587h14.38V38.9H3.036V50.881h14.38v2.956H0Z" transform="translate(0 -22.042)"/><path class="d" d="M25.2,33.4h3.115L35.9,49.774,43.414,33.4h3.115L36.065,55.928h-.479Z" transform="translate(-5.068 -24.053)"/><path class="d" d="M57.856,44.765c.159,5.113,3.674,8.948,8.468,8.948,4.714,0,6.95-2.636,8.628-5.353l2.4,1.279c-2.317,4.474-5.832,6.711-10.706,6.711A11.406,11.406,0,0,1,54.9,44.608,11.6,11.6,0,0,1,66.484,32.7c6.391,0,11.584,4.632,11.664,12.065Zm17.1-2.556A8.3,8.3,0,0,0,66.485,35.5c-3.994,0-7.03,2.154-8.388,6.711Z" transform="translate(-11.041 -23.912)"/><path class="d" d="M95.536,36.535c1.677-2.478,3.515-3.835,5.832-3.835a4.03,4.03,0,0,1,2.556.8l-1.518,2.478a3.471,3.471,0,0,0-1.518-.4c-2.154,0-3.994,1.838-4.873,4.955a29.8,29.8,0,0,0-.479,6.871v8.548H92.5V33.259h3.036Z" transform="translate(-18.603 -23.912)"/><path class="c" d="M111.858,26.356V23.4h16.057l-12.7,27.481h12.065v2.956H110.5l12.782-27.481Z" transform="translate(-22.223 -22.042)"/><path class="e" d="M141.694,24.1a2.4,2.4,0,1,1-2.4-2.4,2.4,2.4,0,0,1,2.4,2.4Zm-3.755,6.95h2.876V53.575h-2.876Z" transform="translate(-27.531 -21.7)"/><path class="e" d="M155.417,37.232c2.317-3.036,5.113-4.632,8.468-4.632,4.955,0,8.388,3.435,8.388,10.465V55.688H169.4V43.465c0-5.273-1.677-8.229-5.992-8.229a7.166,7.166,0,0,0-5.912,3.036c-1.677,2.237-1.917,4.394-1.917,7.989v9.427H152.7V33.239h2.876v3.993Z" transform="translate(-30.71 -23.892)"/><path class="e" d="M206.528,51.215c-2.237,3.356-5.992,5.113-10.545,5.113-7.433,0-12.383-5.353-12.383-11.664,0-6.63,5.192-12.065,12.622-12.065,4.309,0,8.309,1.758,10.386,5.273l-2.317,1.438a9.745,9.745,0,0,0-8.148-3.915,9.118,9.118,0,1,0,.08,18.215,9.8,9.8,0,0,0,8.069-3.915Z" transform="translate(-36.924 -23.892)"/></g><path class="f" d="M223.324,3.6l2.317,9.427,9.507,2.317-9.507,2.4-2.317,9.427-2.4-9.427-9.427-2.4,9.427-2.317Z" transform="translate(-42.534 -3.6)"/></g></g></svg>