<svg xmlns="http://www.w3.org/2000/svg" xmlns:xlink="http://www.w3.org/1999/xlink" width="265" height="259.614" viewBox="0 0 265 259.614"><defs><style>.a{fill:#fff;}.b{fill:url(#a);}.c{fill:#1d194d;}</style><linearGradient id="a" x1="0.164" y1="0.836" x2="0.848" y2="0.152" gradientUnits="objectBoundingBox"><stop offset="0" stop-color="#1d194d"/><stop offset="0.52" stop-color="#008ba4"/><stop offset="1" stop-color="#43beb5"/></linearGradient></defs><g transform="translate(-1280 -773)"><rect class="a" width="265" height="259.614" transform="translate(1280 773)"/><g transform="translate(1306.931 880.724)"><path class="b" d="M196.042,336.245a21.722,21.722,0,1,1,15.37-6.373A21.722,21.722,0,0,1,196.042,336.245Zm1.163-28.915h7.241a2.815,2.815,0,0,0,2.667-3.621,2.867,2.867,0,0,0-2.949-2.047H189.918a2.839,2.839,0,0,0-2.669,3.358,2.786,2.786,0,0,0,2.839,2.315ZM193.6,317.873h3.646a2.812,2.812,0,0,0,2.674-3.656,2.848,2.848,0,0,0-2.8-2.016h-3.185c-1.293,0-2.585-.019-3.878,0a2.837,2.837,0,1,0,.072,5.672Zm-.743,7.756a2.788,2.788,0,0,0-2.829-2.809,2.827,2.827,0,0,0-2.843,2.812,2.875,2.875,0,0,0,2.874,2.86,2.836,2.836,0,0,0,2.8-2.872Z" transform="translate(-174.32 -292.8)"/><path class="c" d="M723.9,340.188h12.512v-.646c0-2.491.062-4.984-.019-7.482a2.631,2.631,0,0,1,3.555-2.462,2.37,2.37,0,0,1,1.552,2.172c.014.152,0,.307,0,.461v21.028a5.167,5.167,0,0,1-.056.862,2.358,2.358,0,0,1-2.247,2.047,2.664,2.664,0,0,1-2.708-1.839,2.937,2.937,0,0,1-.07-.743v-8.244H723.9v.646q0,3.852-.012,7.7a3.139,3.139,0,0,1-.268,1.224,2.119,2.119,0,0,1-1.716,1.231,2.976,2.976,0,0,1-2.344-.6,1.961,1.961,0,0,1-.754-1.383c-.033-.345-.058-.693-.058-1.037V331.861a2.577,2.577,0,0,1,5.148.1v7.483Z" transform="translate(-587.34 -320.59)"/><path class="c" d="M599.758,354.231a16.266,16.266,0,0,1-5.626-.932,11.2,11.2,0,0,1-6.874-6.693,16.081,16.081,0,0,1,.07-12.405,12.017,12.017,0,0,1,9.656-7.485,14.4,14.4,0,0,1,6.14.215,13.1,13.1,0,0,1,5.356,2.993,2.553,2.553,0,0,1,.819,2.522,2.465,2.465,0,0,1-3.729,1.566,3.089,3.089,0,0,1-.632-.5,6.487,6.487,0,0,0-4.139-1.967,10.569,10.569,0,0,0-4.059.372,7.433,7.433,0,0,0-5.09,4.6,10.234,10.234,0,0,0,.4,8.689,7.726,7.726,0,0,0,6.473,4.253,8.941,8.941,0,0,0,7-2.269,2.561,2.561,0,0,1,4.236,1.528,2.693,2.693,0,0,1-.946,2.491,9.512,9.512,0,0,1-2.621,1.784,11.936,11.936,0,0,1-4.173,1.091C601.258,354.137,600.519,354.181,599.758,354.231Z" transform="translate(-486.675 -318.356)"/><path class="c" d="M971.045,333.933v18.888a8.3,8.3,0,0,1-.053.98,2.414,2.414,0,0,1-2.173,2.134,2.478,2.478,0,0,1-2.928-2.617V333.96c-.253,0-.483-.027-.7-.027h-6.14a2.255,2.255,0,0,1-2.2-1.409,2.478,2.478,0,0,1,2.194-3.562q9.234-.037,18.469,0a2.457,2.457,0,0,1,2.391,3.232,2.387,2.387,0,0,1-2.387,1.74h-6.478Z" transform="translate(-767.804 -320.222)"/><path class="c" d="M850.57,371.085h14.742a3.7,3.7,0,0,1,1.084.13,2.429,2.429,0,0,1,1.648,2.674,2.37,2.37,0,0,1-1.9,2.194,5.071,5.071,0,0,1-.97.094h-9.362v6.471c.208,0,.431.019.646.019h10.88a3.669,3.669,0,0,1,1.255.176,2.571,2.571,0,0,1,1.146,3.965,2.721,2.721,0,0,1-2.154.946c-.754.024-1.508,0-2.262,0H853.235a2.864,2.864,0,0,1-1.4-.3,2.4,2.4,0,0,1-1.263-2.138v-14.23Z" transform="translate(-687.352 -352.189)"/><path class="c" d="M416.16,371.126c.263-.012.449-.029.637-.029h14.412a3.974,3.974,0,0,1,1.084.125A2.281,2.281,0,0,1,433.958,374a2.655,2.655,0,0,1-2.206,2.1,9.67,9.67,0,0,1-1.265.1h-9.135c-.012.29-.033.531-.033.775v7.87a7.385,7.385,0,0,1-.065.98,2.22,2.22,0,0,1-1.724,1.88,2.944,2.944,0,0,1-2.172-.323,2.3,2.3,0,0,1-1.177-2.119c-.012-.558,0-1.117,0-1.677v-12.45Z" transform="translate(-357.79 -352.198)"/><path class="c" d="M534.763,342.433v10.825a2.339,2.339,0,0,1-1.257,2.3,2.788,2.788,0,0,1-2.868-.108,2.008,2.008,0,0,1-.969-1.5,6.041,6.041,0,0,1-.055-.806V331.725a3.8,3.8,0,0,1,.181-1.247,2.576,2.576,0,0,1,2.628-1.508,2.411,2.411,0,0,1,2.305,2,3.965,3.965,0,0,1,.027.635Z" transform="translate(-443.863 -320.234)"/><path class="c" d="M416.147,334.479a21.967,21.967,0,0,1,.049-3.043,2.107,2.107,0,0,1,1.479-1.767,3.555,3.555,0,0,1,1.185-.222q6.831-.022,13.661,0a3.2,3.2,0,0,1,.97.148,2.37,2.37,0,0,1,1.337,3.555,2.576,2.576,0,0,1-2.329,1.364H416.63C416.5,334.512,416.367,334.493,416.147,334.479Z" transform="translate(-357.758 -320.593)"/><path class="c" d="M850.44,334.486c.033-1.077,0-2.08.116-3.068a2.262,2.262,0,0,1,2.281-1.979h13.656a4.826,4.826,0,0,1,1.088.113,2.382,2.382,0,0,1,1.825,2.377,2.457,2.457,0,0,1-1.8,2.471,3.744,3.744,0,0,1-.912.108H851.123C850.936,334.515,850.747,334.5,850.44,334.486Z" transform="translate(-687.253 -320.596)"/></g></g></svg>