<svg xmlns="http://www.w3.org/2000/svg" width="265" height="259.614" viewBox="0 0 265 259.614"><defs><style>.a{fill:#fff;}.b{fill:#143158;}.c{fill:#818386;}</style></defs><g transform="translate(-375 -1063)"><rect class="a" width="265" height="259.614" transform="translate(375 1063)"/><g transform="translate(428.108 1153.057)"><path class="b" d="M154.932,108.1V99.374H131.664l-.108,41.8h23.376v-8.726H141.79v-8.079h12.5v-8.618h-12.5v-7.756h13.142Zm-51.492,1.831-4.094-7.325,14-3.232H86.959l12.28,23.376L142.113,81.6Zm4.955,31.24,17.99-33.071-20.791,27.362Zm-33.933.215H85.235V99.374H74.463ZM44.3,141.279H55.072v-16.8H67.03v-8.51H55.072V108.1H68.215V99.267H44.408Z" transform="translate(-44.3 -81.6)"/><path class="c" d="M189.119,99.027v25.961L168.975,98.919H158.2v42.012h10.557V114.754L188.9,140.931h11.2v-41.9Zm-88.657,33.394L136.119,86.1,96.8,125.2Z" transform="translate(-40.245 -81.252)"/></g></g></svg>