<svg xmlns="http://www.w3.org/2000/svg" width="265" height="259.614" viewBox="0 0 265 259.614"><defs><style>.a{fill:#fff;}.b{fill:#1a2e59;}.c{fill:#1a2f56;}.d{fill:#6eacde;}.e{fill:#0a80c3;}.f{fill:#104d8b;}</style></defs><g transform="translate(-677 -1063)"><rect class="a" width="265" height="259.614" transform="translate(677 1063)"/><path class="b" d="M31.8,35.741V19.3a.752.752,0,0,1,.414-.715l5.041-2.9,3.762-2.069,5.417-3.16,7.26-4.175,6.244-3.762.639-.376a.527.527,0,0,1,.639,0l4.7,2.708,5.492,3.16c2.332,1.392,4.7,2.746,7.072,4.1l7.636,4.815,2.972,1.693.376.263a.451.451,0,0,1,.263.489V51.991a.752.752,0,0,1-.376.677l-4.138,2.257-3.235,1.881-4.288,2.332-3.762,2.332L63.474,67.49l-2.257,1.317a.639.639,0,0,1-.715,0L57.154,66.85,50.12,62.787l-5.153-2.934L38.8,56.092l-5.755-3.31-.828-.489a.376.376,0,0,1-.263-.451v-16.1ZM54.785,27.5V21.936a2.069,2.069,0,0,0-.263-1.053.94.94,0,0,0-.715-.414,2.671,2.671,0,0,0-1.5.339l-1.881,1.053-5.492,3.2a4.665,4.665,0,0,0-.828.677.6.6,0,0,0-.263.451,3.235,3.235,0,0,0,0,.865V44.017a2.52,2.52,0,0,0,1.279,2.107l7.523,4.326a3.762,3.762,0,0,0,.79.376c.79.188,1.091,0,1.354-.752h0a6.167,6.167,0,0,0,0-.865V36.381H66.86v12.6a1.693,1.693,0,0,0,.263.94,1.317,1.317,0,0,0,1.73.6h.339l1.129-.639,6.357-3.762a2.219,2.219,0,0,0,1.016-2.107V26.45a1.655,1.655,0,0,0-.752-1.166l-.978-.6-2.295-1.317L69.3,20.694a1.806,1.806,0,0,0-1.241,0,1.881,1.881,0,0,0-1.317,1.693v4.74c0,.188,0,.3-.339.3H54.747Z" transform="translate(748.433 1143.906)"/><path class="c" d="M46.944,33.936H43.182V30.362h8.012c.376,0,.414,0,.451.376a13.2,13.2,0,0,1-.865,5.116A8.953,8.953,0,0,1,42.2,41.8a12.222,12.222,0,0,1-2.031,0,9.442,9.442,0,0,1-5.454-2.708,10.269,10.269,0,0,1-2.708-5.116,11.887,11.887,0,0,1,0-3.762A10.081,10.081,0,0,1,34.38,24.8a9.329,9.329,0,0,1,4.063-2.708,9.667,9.667,0,0,1,3.273-.564,11.7,11.7,0,0,1,3.235.376,8.464,8.464,0,0,1,5.831,4.815l.376.828v.414H47.4a.677.677,0,0,1-.639-.376,4.063,4.063,0,0,0-2.295-1.956,5.906,5.906,0,0,0-4.251,0A5.078,5.078,0,0,0,37.2,28.03a7.523,7.523,0,0,0,0,7.11A5.078,5.078,0,0,0,40.7,38a5.417,5.417,0,0,0,4.063-.3,4.965,4.965,0,0,0,2.708-3.31.828.828,0,0,0-.527-.451Z" transform="translate(748.6 1197.697)"/><path class="c" d="M61.506,34.658a7.527,7.527,0,0,1-.376.978,10.571,10.571,0,0,1-1.994,3.235A8.313,8.313,0,0,1,55.714,41.2a10.722,10.722,0,0,1-2.9.6,11.285,11.285,0,0,1-3.2-.226,8.727,8.727,0,0,1-4.552-2.37,9.931,9.931,0,0,1-2.859-5.6,10.909,10.909,0,0,1,.376-5.492,9.555,9.555,0,0,1,4.589-5.454A8.878,8.878,0,0,1,51.2,21.53a11.887,11.887,0,0,1,3.047.188,8.652,8.652,0,0,1,5.981,4.213A14.147,14.147,0,0,1,61.093,28v.339h-4.1c-.414,0-.414,0-.564-.414a4.288,4.288,0,0,0-1.881-2.107,5.868,5.868,0,0,0-3.762-.6,5.116,5.116,0,0,0-4.1,3.16,7.26,7.26,0,0,0,0,6.583,5.567,5.567,0,0,0,3.273,2.859,5.981,5.981,0,0,0,3.047,0,4.74,4.74,0,0,0,3.2-2.407l.79-.376c0-.339,0-.376.489-.376Z" transform="translate(776.657 1197.652)"/><path class="c" d="M45.455,33.456H39.023a.258.258,0,0,1-.263-.263V30.3a1.994,1.994,0,0,1,0-.451H45.38V22.171c0-.451,0-.451.489-.451h3.649V40.792H45.756c-.376,0-.451,0-.451-.414V34.209Z" transform="translate(767.618 1198.252)"/><path class="c" d="M37.52,21.68h3.762c.451,0,.451,0,.451.451V40.94a27.875,27.875,0,0,1-4.364,0Z" transform="translate(763.816 1198.142)"/><path class="d" d="M63.866,16.091l-.489-.263-2.859-1.542L52.731,9.771c-2.37-1.354-4.74-2.708-7.072-4.1L41.145,3V19.551a1.956,1.956,0,0,1,1.317-1.5,1.806,1.806,0,0,1,1.241,0L48.067,20.6l2.295,1.317.978.6a1.655,1.655,0,0,1,.752,1.166V41.256a2.219,2.219,0,0,1-1.2,2.069l-6.357,3.762-1.128.639h-.339a1.317,1.317,0,0,1-1.73-.6,1.693,1.693,0,0,1-.263-.94V62.7l7.26-3.875,3.762-2.332,4.063-2.332,3.235-1.881L63.6,49.87a.752.752,0,0,0,.376-.677V16.58a.451.451,0,0,0-.113-.489Z" transform="translate(774.034 1146.554)"/><path class="e" d="M51.829,13.4a1.354,1.354,0,0,1,.263.677V31.648a2.219,2.219,0,0,1-1.2,2.069l-6.357,3.762-1.128.639h-.339a1.317,1.317,0,0,1-1.73-.6,1.693,1.693,0,0,1-.263-.94V53.089L48.33,49.1l3.762-2.332,4.063-2.332,3.235-1.881L63.6,40.149a.752.752,0,0,0,.376-.677V6.859a.489.489,0,0,0,0-.339Z" transform="translate(774.034 1156.275)"/><path class="b" d="M41.32,7Z" transform="translate(774.725 1157.6)"/><path class="b" d="M41.38,7h0Z" transform="translate(774.891 1157.6)"/><path class="b" d="M41.27,7.07Z" transform="translate(774.587 1157.794)"/><path class="f" d="M43.865,25.8a.376.376,0,0,1,0-.226,4.665,4.665,0,0,1,.828-.677l5.492-3.2,1.881-1.053a2.671,2.671,0,0,1,1.5-.339.94.94,0,0,1,.715.414,2.069,2.069,0,0,1,.263,1.053v5.379H66.435c.226,0,.3,0,.3-.3V5.482l-.978-.564-4.7-2.708a.527.527,0,0,0-.639,0l-.639.376L53.532,6.347,46.31,10.3l-5.417,3.16-3.762,2.069-5.041,2.9a.715.715,0,0,0-.3.263Z" transform="translate(748.406 1144.072)"/><path class="b" d="M41.22,7.12Z" transform="translate(774.449 1157.932)"/></g></svg>