<svg xmlns="http://www.w3.org/2000/svg" width="265" height="259.614" viewBox="0 0 265 259.614"><defs><style>.a{fill:#fff;}.b{fill:#77787b;}.c{fill:#d71920;}.d{fill:#9e0b0f;}</style></defs><g transform="translate(-978 -1063)"><rect class="a" width="265" height="259.614" transform="translate(978 1063)"/><g transform="translate(1016.297 1173.079)"><path class="b" d="M75.035,22.1h-7.9V14.2H62V34.368h5.137V26.7h7.9v7.669h5.137V14.2H75.035Z" transform="translate(-14.456 -3.311)"/><path class="b" d="M126.5,14.2h15.644v4.524H131.331v3.447h9.662V26.7h-9.662v7.669H126.5Z" transform="translate(-29.495 -3.311)"/><path class="b" d="M162.852,18.224a5.157,5.157,0,0,1,4.6,3.528H172.9a10.158,10.158,0,0,0-9.969-8.051h-.153A10.294,10.294,0,0,0,152.5,24.13a10.32,10.32,0,0,0,10.276,10.505h.231a10.064,10.064,0,0,0,9.892-7.972h-5.444a5.13,5.13,0,0,1-4.6,3.374c-3.221-.076-5.137-2.99-5.137-5.981,0-2.761,1.84-5.751,5.137-5.828" transform="translate(-35.558 -3.195)"/><path class="b" d="M205.081,24.229a10.341,10.341,0,0,1-10.352,10.505h-.153a10.253,10.253,0,0,1-10.276-10.2,11.081,11.081,0,0,1,.767-4.294,10.157,10.157,0,0,1,9.509-6.442h.231a10.167,10.167,0,0,1,10.276,10.429m-10.276,5.9c3.447-.076,5.137-3.374,5.137-5.9,0-2.607-1.687-5.9-5.137-5.981a5.626,5.626,0,0,0-5.291,5.9c0,3.067,1.994,5.9,5.291,5.981" transform="translate(-42.972 -3.217)"/><path class="c" d="M17.638,0,0,6.978V35.045l17.638,6.978,17.638-6.978V6.978ZM31.211,32.209,21.7,35.967V23.849l-4.064-1.61h0l-4.064,1.61V35.965L4.064,32.209V9.739l9.509-3.758V18.1l4.064,1.61L21.7,18.1V5.981L31.21,9.738V32.209Z"/><path class="d" d="M0,6.978v27.99l17.638,6.978V22.238l-4.064,1.61V35.965L4.064,32.209V9.739l9.509-3.758V18.1l4.064,1.61V0Z"/><path class="a" d="M32.446,34.025l-9.509,3.757V25.667l-4.064-1.61-4.064,1.61V37.783L5.3,34.025V11.557L14.809,7.8V19.916l4.064,1.61,4.064-1.61V7.8l9.509,3.757Z" transform="translate(-1.236 -1.819)"/><g transform="translate(72.294 10.889)"><path class="b" d="M107.261,14.2V24.783a14.89,14.89,0,0,1-.153,2.53,3.3,3.3,0,0,1-1.457,2.223,3.826,3.826,0,0,1-2.223.539A3.469,3.469,0,0,1,99.979,28a8.82,8.82,0,0,1-.539-3.221V14.2H94.3V24.629a13.588,13.588,0,0,0,.46,4.294,8.692,8.692,0,0,0,1.917,3.144c1.917,2.07,5.063,2.53,6.825,2.53a8.755,8.755,0,0,0,6.671-2.607c1.534-1.534,2.3-3.221,2.3-7.362V14.2Z" transform="translate(-94.282 -14.2)"/></g><path class="b" d="M230.039,27.543h0a5.494,5.494,0,0,0,1.917-1.227,7.143,7.143,0,0,0,2.147-5.291,6.778,6.778,0,0,0-2.377-5.368c-1.077-.92-2.454-1.457-6.135-1.457H218V34.368h4.908V28h2.377l3.834,6.364h5.137Zm-7.131-8.818h2.914c1.077,0,3.374,0,3.374,2.377,0,2.454-2.223,2.454-3.221,2.454h-3.067Z" transform="translate(-50.83 -3.311)"/><g transform="translate(185.114 11.196)"><path class="b" d="M242.167,14.831H241.4V14.6h1.763v.231H242.4v1.917h-.307V14.831Z" transform="translate(-241.4 -14.6)"/><path class="b" d="M244.276,14.6h.384l.691,1.84.691-1.84h.383v2.223h-.307v-1.84h0l-.691,1.84H245.2l-.691-1.84h0v1.84H244.2V14.6Z" transform="translate(-242.053 -14.6)"/></g></g></g></svg>