<svg xmlns="http://www.w3.org/2000/svg" xmlns:xlink="http://www.w3.org/1999/xlink" width="265" height="259.614" viewBox="0 0 265 259.614"><defs><style>.a{fill:#fff;}.b{fill:url(#a);}.c{fill:#232176;}.d{fill:#72be44;}</style><linearGradient id="a" x1="0.001" y1="0.502" x2="0.999" y2="0.502" gradientUnits="objectBoundingBox"><stop offset="0.123" stop-color="#232176"/><stop offset="0.523" stop-color="#0060ae"/><stop offset="0.885" stop-color="#232176"/></linearGradient></defs><g transform="translate(-1280 -1063)"><rect class="a" width="265" height="259.614" transform="translate(1280 1063)"/><g transform="translate(1324.382 1153.057)"><path class="b" d="M107.58,111.655c.108.323.215.539.323.862a7.105,7.105,0,0,0,4.2,4.74l1.616.646-.323.323c-.97.539-2.047,1.077-3.016,1.508a25.609,25.609,0,0,1-5.6,1.616,29.614,29.614,0,0,1-6.894.323,28.322,28.322,0,0,1-4.2-.646,17.678,17.678,0,0,1-4.632-1.4,23.186,23.186,0,0,1-6.033-3.663,17.972,17.972,0,0,1-3.986-4.093,17.2,17.2,0,0,1-2.8-6.033,21.081,21.081,0,0,1-.323-6.894,17.267,17.267,0,0,1,2.154-6.787,15.97,15.97,0,0,1,3.339-4.2,26.111,26.111,0,0,1,3.339-2.693,18.637,18.637,0,0,1,5.386-2.37,33.5,33.5,0,0,1,4.74-.862,27.456,27.456,0,0,1,4.2-.215,17.616,17.616,0,0,1,2.37.215c1.077.108,2.154.323,3.232.539a20.46,20.46,0,0,1,4.309,1.508,25.634,25.634,0,0,1,5.817,3.77,40.646,40.646,0,0,1,6.033,6.14c.97,1.185,1.724,2.585,2.585,3.878,1.4,2.262,2.8,4.632,4.2,6.894a26.669,26.669,0,0,0,3.016,3.878,13.073,13.073,0,0,0,4.2,3.016,18.156,18.156,0,0,0,3.016,1.293c.97.323,2.047.646,3.016.862.862.215,1.831.323,2.8.539a.971.971,0,0,1,.539.108c1.293,0,2.693.108,3.986.108a22.107,22.107,0,0,0,7-1.077,18.138,18.138,0,0,0,6.679-3.878,10.829,10.829,0,0,0,3.339-7.433,11.072,11.072,0,0,0-.646-4.955,11.619,11.619,0,0,0-3.878-5.386,16.81,16.81,0,0,0-5.494-2.909,19.941,19.941,0,0,0-4.955-.862H149.7a.807.807,0,0,0,.108.539,37.907,37.907,0,0,1,1.077,7c.215,2.262.108,4.632.108,6.894a26.415,26.415,0,0,1-.215,2.909c-.108,1.724-.431,3.555-.646,5.278,0,.108,0,.215-.108.215-.108.539-.108.539-.754.646a9.565,9.565,0,0,1-2.478.108,11.217,11.217,0,0,1-5.171-1.939,1.023,1.023,0,0,1-.431-1.185,15.29,15.29,0,0,0,.539-2.37c.431-1.939.754-3.878,1.077-5.709a23.55,23.55,0,0,0,.323-3.878,32.188,32.188,0,0,0-.215-7.217c0-.215-.108-.323-.108-.646a7.419,7.419,0,0,0-.862.323,18.95,18.95,0,0,0-5.709,3.339,47.909,47.909,0,0,0-5.925,6.463l-1.293,1.616-.323.323a6.179,6.179,0,0,1-.431-.754c-1.508-2.585-3.124-5.278-4.632-7.864-.215-.431-.215-.539.108-.862a30.046,30.046,0,0,1,4.74-4.309,26.926,26.926,0,0,1,4.417-2.693,25.479,25.479,0,0,1,8.726-2.478,27.457,27.457,0,0,1,4.2-.215,37.37,37.37,0,0,1,4.848.646,25.6,25.6,0,0,1,4.093,1.185,26.588,26.588,0,0,1,7.217,4.093,18.324,18.324,0,0,1,3.663,3.986,18.747,18.747,0,0,1,2.909,7.11,19.129,19.129,0,0,1,.215,4.955,18.108,18.108,0,0,1-4.094,10.557,20.562,20.562,0,0,1-5.278,4.309,20.919,20.919,0,0,1-7.541,2.585,29.613,29.613,0,0,1-6.894.323c-1.4-.108-2.693-.431-4.094-.646a19.412,19.412,0,0,1-5.494-1.831c-.862-.431-1.616-.862-2.478-1.4a24.29,24.29,0,0,1-3.878-2.585A28.891,28.891,0,0,1,126,111.655a44.483,44.483,0,0,1-3.447-5.278c-1.616-2.693-3.232-5.494-5.063-8.079a26.44,26.44,0,0,0-4.74-5.063,18.908,18.908,0,0,0-4.524-2.585,27.285,27.285,0,0,0-3.878-1.293c-1.077-.215-2.262-.431-3.339-.646a33.264,33.264,0,0,0-4.632-.108,19.835,19.835,0,0,0-8.295,1.831,14.668,14.668,0,0,0-6.033,4.524,11.21,11.21,0,0,0-2.262,6.033,16.226,16.226,0,0,0,.108,3.232,10.04,10.04,0,0,0,1.4,3.77,14.243,14.243,0,0,0,4.955,4.848,16,16,0,0,0,6.248,2.154,25.35,25.35,0,0,0,5.709.215,18.126,18.126,0,0,0,8.4-2.8C106.719,112.194,107.149,111.978,107.58,111.655ZM128.91,97.866a18.758,18.758,0,0,1,1.293-1.508,29.277,29.277,0,0,1,3.986-4.2,10.233,10.233,0,0,1,2.047-1.724,27.162,27.162,0,0,1,6.356-3.232c.539-.215,1.185-.323,1.831-.539a.814.814,0,0,1,.108.431,23.915,23.915,0,0,1,.646,5.494V95.82c0,1.185-.108,2.478-.215,3.663a65.163,65.163,0,0,1-1.4,7.756c-.108.539-.215,1.185-.323,1.724a7.638,7.638,0,0,0,5.278,1.293c0-.108.108-.215.108-.323.108-1.185.323-2.37.431-3.555.108-1.293.215-2.585.215-3.878,0-1.077.108-2.154,0-3.232,0-.754-.108-1.508-.108-2.37-.108-1.4-.215-2.8-.431-4.093-.323-1.939-.754-3.878-1.185-5.709,0-.108-.108-.323-.108-.431h.215a27.278,27.278,0,0,1,8.4,1.077,19.663,19.663,0,0,1,3.447,1.508,24.2,24.2,0,0,1,4.417,3.663.376.376,0,0,0,.215.108,4.428,4.428,0,0,0-.862-1.4,21.049,21.049,0,0,0-4.094-3.447,24.767,24.767,0,0,0-5.6-2.8,23.388,23.388,0,0,0-6.033-1.4c-.323,0-.539-.108-.862-.108a19.212,19.212,0,0,0-4.309,0,15.71,15.71,0,0,0-4.955,1.077c-1.4.539-2.8.97-4.093,1.616a27.7,27.7,0,0,0-5.925,4.094l-1.724,1.724Q127.294,94.958,128.91,97.866Zm-22.191,16.589a.817.817,0,0,1-.431.215,23.939,23.939,0,0,1-3.447,1.508,15.269,15.269,0,0,1-6.571.97c-1.293-.108-2.585,0-3.878-.215a21.523,21.523,0,0,1-7.11-2.478,13.327,13.327,0,0,1-4.74-4.417l-.97-1.616a15.124,15.124,0,0,1-1.4-3.663,5.559,5.559,0,0,1-.215-1.185,1.189,1.189,0,0,0,0,.862,17.948,17.948,0,0,0,.862,3.232,15.9,15.9,0,0,0,4.309,5.925c1.077.97,2.262,1.724,3.447,2.693a14.886,14.886,0,0,0,3.663,1.939,17.4,17.4,0,0,0,3.878,1.077,27.637,27.637,0,0,0,8.4.539,23.176,23.176,0,0,0,6.14-1.4,11.177,11.177,0,0,0,1.077-.431,11.53,11.53,0,0,1-1.508-1.724A22.568,22.568,0,0,1,106.719,114.456Z" transform="translate(-33.143 -81.6)"/><path class="c" d="M77.3,133.935q-.162.969-.323,1.616c-.215,1.077-.431,2.154-.646,3.339-.323,1.616-.646,3.124-.862,4.74-.323,1.616-.539,3.232-.862,4.848a4.581,4.581,0,0,0-.215,1.185c-.108.323-.215.431-.539.431h-4.2v-.646l1.293-7.11c.323-1.508.539-2.909.862-4.417v-.431h-3.77c-.539,0-.539.108-.646.539a25.052,25.052,0,0,0-.539,3.016c-.431,2.154-.754,4.2-1.185,6.356a13.852,13.852,0,0,1-.431,2.047c-.108.431-.108.431-.539.539h-3.77c-.323,0-.431-.108-.431-.323a.648.648,0,0,1,.108-.431c.539-3.124,1.185-6.248,1.724-9.264l.323-1.939c.108-.323,0-.431-.323-.431H61.146c-.431,0-.431-.108-.431-.431v-.323c.108-.754.323-1.508.431-2.154s.215-.754.862-.754h.862c.539,0,.539,0,.646-.539a6.262,6.262,0,0,1,.97-2.693,7.429,7.429,0,0,1,5.063-3.878,13.134,13.134,0,0,1,6.463.108c.97.323.97.431.646,1.293-.323.754-.539,1.616-.862,2.37-.108.431-.215.431-.646.323a5.871,5.871,0,0,0-2.37-.539H71.488a3.288,3.288,0,0,0-3.232,2.37c-.108.215-.108.431-.215.646-.108.431,0,.539.431.539H77.3Z" transform="translate(-34.323 -78.134)"/><path class="c" d="M156.8,155.932c1.293-7.541,3.016-14.866,3.986-22.514a27.347,27.347,0,0,1,4.2,0,7.329,7.329,0,0,1-.215,2.154c.215,0,.323-.215.539-.323A5.782,5.782,0,0,1,169.3,133.2a4.787,4.787,0,0,1,5.386,3.339,9.073,9.073,0,0,1,.431,2.909,11.379,11.379,0,0,1-1.4,5.6,8.907,8.907,0,0,1-5.925,4.632,7.688,7.688,0,0,1-4.417-.215c-.431-.108-.539-.108-.646.323-.108.754-.323,1.508-.431,2.262l-.646,3.555c0,.323-.215.431-.539.431h-4.093A.376.376,0,0,0,156.8,155.932Zm13.358-16.159a3.324,3.324,0,0,0-.539-1.939,1.592,1.592,0,0,0-1.724-.754,3.055,3.055,0,0,0-2.154,1.293,7.831,7.831,0,0,0-1.508,3.339c-.215,1.077-.323,2.047-.539,3.124a.917.917,0,0,0,.539,1.185,2.923,2.923,0,0,0,3.447-.539A8.894,8.894,0,0,0,170.158,139.773Z" transform="translate(-26.885 -77.617)"/><path class="c" d="M152.226,149.474a28.492,28.492,0,0,1,.215-2.909c-.215.215-.323.215-.323.323a5.684,5.684,0,0,1-3.232,2.693c-2.909.97-5.925-.323-6.571-3.555a10.689,10.689,0,0,1,2.37-9.049,9.735,9.735,0,0,1,6.787-3.663,16.071,16.071,0,0,1,2.262-.215,21.828,21.828,0,0,1,4.632.646c.323.108.431.215.431.539,0,.215,0,.323-.108.431-.539,2.693-1.077,5.386-1.616,8.187a32.051,32.051,0,0,0-.539,4.632,8.153,8.153,0,0,1-.108,1.616c0,.323-.108.431-.323.431h-3.447C152.549,149.582,152.441,149.474,152.226,149.474Zm1.293-12.5c-.108-.108-.108-.108-.215-.108a4.246,4.246,0,0,0-4.309,1.724,8.808,8.808,0,0,0-1.293,2.154,6.1,6.1,0,0,0-.431,3.663,1.673,1.673,0,0,0,2.154,1.508,2.443,2.443,0,0,0,1.724-1.185,8.847,8.847,0,0,0,1.724-3.986c.215-1.077.431-2.047.646-3.124C153.411,137.517,153.518,137.193,153.518,136.978Z" transform="translate(-28.02 -77.622)"/><path class="c" d="M110.965,133.508c.215,0,.323-.108.539-.108h3.878c.431,0,.539,0,.539.539.215,1.831.539,3.663.754,5.386.215,1.185.323,2.262.539,3.447a1.366,1.366,0,0,0,.108.646c0,.215.108.323.108.646.108-.108.215-.108.215-.215.539-1.508,1.077-2.909,1.616-4.417l2.262-5.494a.718.718,0,0,1,.754-.539h4.2a.334.334,0,0,1,.215.108c-.108.215-.108.431-.215.539-1.185,2.478-2.478,4.955-3.663,7.433-.97,1.939-1.939,3.878-3.016,5.817a25.99,25.99,0,0,1-5.278,7.11,9.809,9.809,0,0,1-4.417,2.37c-.323.108-.431,0-.646-.431a17.215,17.215,0,0,1-.539-2.262,3.33,3.33,0,0,1-.215-.862c-.108-.431,0-.539.431-.754a8.4,8.4,0,0,0,4.524-3.339,1.634,1.634,0,0,0,.323-1.4c-.862-3.663-1.616-7.325-2.37-11.1-.108-.646-.323-1.293-.431-1.939C111.073,134.37,111.073,133.939,110.965,133.508Z" transform="translate(-30.603 -77.599)"/><path class="c" d="M50.494,135.8l.323-.323a7.132,7.132,0,0,1,2.909-2.047,5.941,5.941,0,0,1,4.093,0,3.459,3.459,0,0,1,2.154,2.693,11.634,11.634,0,0,1-.215,4.309c-.323,1.616-.539,3.124-.862,4.74-.215,1.293-.431,2.478-.646,3.77-.108.431-.215.539-.646.539H53.726c-.323,0-.431-.108-.431-.431a.807.807,0,0,1,.108-.539c.431-2.37.862-4.74,1.4-7.11a27.815,27.815,0,0,0,.323-3.124,1.5,1.5,0,0,0-1.724-1.4,3.114,3.114,0,0,0-1.939,1.185,9.614,9.614,0,0,0-1.616,3.339c-.431,2.262-.97,4.632-1.293,6.894-.215,1.077-.323.97-1.185.97H44.031c-.323,0-.431-.108-.431-.431V148.4l.97-4.848c.431-2.585.97-5.063,1.4-7.648.108-.754.215-1.616.323-2.37.108-.431.108-.539.539-.539h3.124c.539,0,.539.108.539.539a7.274,7.274,0,0,1-.215,1.508v.215C50.387,135.8,50.387,135.8,50.494,135.8Z" transform="translate(-35.628 -77.63)"/><path class="c" d="M83.1,135.9c.108-.108.215-.108.215-.215a7.1,7.1,0,0,1,2.909-2.154,5.669,5.669,0,0,1,4.2-.108,3.276,3.276,0,0,1,2.154,2.8,9.87,9.87,0,0,1-.108,3.555c-.323,1.724-.646,3.447-.97,5.278-.215,1.293-.539,2.693-.754,3.986-.108.323-.215.431-.539.431H86.334c-.431,0-.431-.108-.431-.431,0-.215.108-.431.108-.646.539-2.693,1.077-5.386,1.508-8.079a8.707,8.707,0,0,0,.108-1.724c0-1.293-.862-1.831-2.154-1.508a3.5,3.5,0,0,0-1.724,1.293,6.266,6.266,0,0,0-1.293,2.693c-.323,1.4-.646,2.8-.862,4.2l-.646,3.555c-.108.539-.215.646-.754.646H76.315c-.108,0-.108,0-.215-.108a2.372,2.372,0,0,1,.108-.862c.539-2.585.97-5.278,1.508-7.864.323-1.4.539-2.909.862-4.309.108-.754.215-1.616.323-2.37.108-.539.108-.539.646-.539h3.016c.539,0,.539.108.539.539a3.873,3.873,0,0,1-.215,1.185C82.994,135.472,82.887,135.58,83.1,135.9Z" transform="translate(-33.118 -77.625)"/><path class="c" d="M179.432,143.443a2.536,2.536,0,0,0,2.047,2.478,5.41,5.41,0,0,0,2.262.215,13.746,13.746,0,0,0,3.016-.754c.108,0,.215-.108.323-.108.215,0,.431,0,.431.323,0,.431.108.754.108,1.185s.108.862.108,1.4,0,.539-.431.754a11.457,11.457,0,0,1-3.77.97,13.113,13.113,0,0,1-3.555-.108,5.718,5.718,0,0,1-4.955-4.632,11.87,11.87,0,0,1-.215-1.939,10.853,10.853,0,0,1,.323-2.693,11.4,11.4,0,0,1,2.37-4.524,8.753,8.753,0,0,1,3.232-2.262,9.436,9.436,0,0,1,2.909-.646,6.047,6.047,0,0,1,4.094,1.077,4.606,4.606,0,0,1,1.939,4.309,4.444,4.444,0,0,1-2.909,3.878,10.355,10.355,0,0,1-3.124.862,22.141,22.141,0,0,1-3.77.215C179.863,143.335,179.648,143.443,179.432,143.443Zm.539-3.663h.215a14.734,14.734,0,0,0,3.124-.215,2.707,2.707,0,0,0,1.508-.646,1.246,1.246,0,0,0-.431-2.154,1.366,1.366,0,0,0-.646-.108,3.8,3.8,0,0,0-3.232,1.724A1.784,1.784,0,0,0,179.971,139.78Z" transform="translate(-25.495 -77.624)"/><path class="c" d="M136.41,132.1h-4.848c-.969,0-.969,0-.754-.97l.646-3.232H147.4c.431,0,.431.108.431.539-.108.754-.323,1.616-.431,2.37,0,.215-.108.539-.108.754-.108.431-.108.431-.539.539H141.8c-.539,0-.539,0-.646.539-.323,1.508-.646,3.016-.862,4.632-.539,2.909-1.077,5.709-1.616,8.618l-.646,3.555c-.108.646-.215.646-.754.646h-3.663c-.323,0-.431-.108-.431-.431v-.431c.323-1.508.539-3.016.862-4.524.323-1.4.539-2.909.862-4.309.431-2.37.862-4.848,1.4-7.217A3.665,3.665,0,0,1,136.41,132.1Z" transform="translate(-28.902 -78.024)"/><path class="c" d="M193.358,149.8a11.719,11.719,0,0,1-4.309-.754c-.108,0-.215-.108-.323-.108-.323-.215-.431-.323-.323-.754.323-.862.539-1.724.862-2.585.108-.323.215-.323.539-.215a7.473,7.473,0,0,0,3.016.862,8.153,8.153,0,0,0,1.616-.108,1.387,1.387,0,0,0,1.185-1.4,1.035,1.035,0,0,0-.646-.969,6.107,6.107,0,0,0-1.4-.862,9.049,9.049,0,0,1-2.585-1.939,3.293,3.293,0,0,1-.754-2.154,4.674,4.674,0,0,1,2.154-4.309,6.087,6.087,0,0,1,2.693-1.185,10.51,10.51,0,0,1,5.171.108c.323.108.539.215.862.323s.431.215.323.539a11.774,11.774,0,0,0-.539,1.831,6.861,6.861,0,0,0-.215.754c-.108.323-.215.431-.539.323-.215,0-.323-.108-.539-.215a6.183,6.183,0,0,0-3.124-.215,1.264,1.264,0,0,0-1.077.969,1.3,1.3,0,0,0,.754,1.4c.431.215.862.539,1.293.754a8.626,8.626,0,0,1,2.262,1.616,4.3,4.3,0,0,1,1.185,3.232,5.435,5.435,0,0,1-3.986,4.74,8.588,8.588,0,0,1-1.616.323Z" transform="translate(-24.448 -77.627)"/><path class="c" d="M108.79,129.615c-.215,1.293-.539,2.693-.754,4.093h3.339a2.372,2.372,0,0,1-.108.862c-.215.862-.323,1.616-.539,2.478-.108.323-.108.431-.539.431h-2.37c-.539,0-.646.108-.646.539-.431,2.047-.754,4.094-1.185,6.14a2.318,2.318,0,0,0,0,.862,1.174,1.174,0,0,0,1.185,1.077h1.4c0,.215.108.431,0,.646a16.932,16.932,0,0,1-.431,2.478c-.108.539-.215.646-.754.754a8.4,8.4,0,0,1-3.663,0,3.142,3.142,0,0,1-2.693-3.124,26.412,26.412,0,0,1,.215-2.909c.323-1.831.754-3.663,1.077-5.6,0-.215.108-.431.108-.646v-.431H100.6c0-.215-.108-.323,0-.431.215-.97.323-1.831.539-2.8.108-.539.108-.539.646-.539h1.077a.5.5,0,0,0,.539-.323c.108-.539.215-1.077.323-1.508.215-.969,0-1.077,1.293-1.4a24.648,24.648,0,0,0,3.016-.862A6.872,6.872,0,0,0,108.79,129.615Z" transform="translate(-31.229 -77.908)"/><path class="c" d="M38.57,149.991H36.523a.286.286,0,0,1-.323-.323v-.431c.431-2.262.862-4.632,1.293-6.894.539-2.693.97-5.278,1.508-7.972.323-1.616.646-3.124.97-4.74a6.3,6.3,0,0,0,.215-1.4c.108-.431.108-.431.539-.431h3.77c.539,0,.539.108.431.646-.646,3.232-1.293,6.571-1.831,9.8-.539,2.585-.97,5.171-1.508,7.756-.215,1.077-.431,2.262-.646,3.339-.108.431-.108.539-.646.539a9.269,9.269,0,0,1-1.724.108Z" transform="translate(-36.2 -78.032)"/><path class="c" d="M92.6,149.559v-.646c.539-2.8,1.077-5.709,1.616-8.51.431-2.047.754-3.986,1.185-6.033.215-.97.215-.97,1.185-.97H99.71c.539,0,.646.108.539.646-.431,2.478-.97,4.955-1.4,7.325-.431,2.478-.97,4.955-1.4,7.325,0,.108,0,.215-.108.215-.108.431-.108.431-.539.431H93.893A2.733,2.733,0,0,1,92.6,149.559Z" transform="translate(-31.844 -77.599)"/><path class="c" d="M113.094,103.2a5.494,5.494,0,1,1-5.494,5.494A5.488,5.488,0,0,1,113.094,103.2Zm3.878,5.494a3.825,3.825,0,1,0-7.648,0,3.825,3.825,0,0,0,7.648,0Z" transform="translate(-30.685 -79.933)"/><path class="d" d="M96,129.69a2.437,2.437,0,0,1,1.185-2.262,1.738,1.738,0,0,1,.97-.323,2.449,2.449,0,0,1,1.939.323,2.425,2.425,0,0,1,.97,2.478c-.323,2.154-3.016,2.693-4.309,1.724A1.993,1.993,0,0,1,96,129.69Z" transform="translate(-31.583 -78.09)"/><path class="d" d="M184.731,126.807c.215.323.108.539,0,.862a3.33,3.33,0,0,1-.215.862c.215,0,.215-.108.323-.108.323,0,.646-.108.969-.108a.807.807,0,0,1,.754.646,2.265,2.265,0,0,1-1.077,2.693,2.42,2.42,0,0,1-1.939.215.819.819,0,0,1-.646-.862,4.041,4.041,0,0,1,.108-1.077,22.062,22.062,0,0,1,.539-2.585C183.87,126.7,183.977,126.592,184.731,126.807Zm-.539,3.77c.108.215.108.431.215.431a.807.807,0,0,0,.539-.108,1.543,1.543,0,0,0,.539-1.185c0-.215,0-.539-.323-.539-.215-.108-.431,0-.646.215A3.125,3.125,0,0,0,184.193,130.578Z" transform="translate(-24.87 -78.116)"/><path class="d" d="M170.647,131.763c-.646,0-.646,0-.862.646-.108.646-.323.754-.862.754a.286.286,0,0,1-.323-.323v-.215c.215-1.293.539-2.585.754-3.986a.463.463,0,0,1,.431-.431,10.449,10.449,0,0,0,1.831-.108,1.172,1.172,0,0,1,1.077.754,2.68,2.68,0,0,1-.97,2.585A1.542,1.542,0,0,1,170.647,131.763Zm-.539-.969c.108,0,.108.108.215.108a.681.681,0,0,0,.862-.431,1.425,1.425,0,0,0,.215-1.293c-.108-.215-.323-.215-.539-.108a.8.8,0,0,0-.539.646C170.216,130.147,170.216,130.47,170.108,130.793Z" transform="translate(-25.974 -78.009)"/><path class="d" d="M176.263,129.6a2.126,2.126,0,0,1-2.8,2.047,1.43,1.43,0,0,1-.862-1.185,2.9,2.9,0,0,1,.539-1.616,1.489,1.489,0,0,1,1.185-.646h.431A1.246,1.246,0,0,1,176.263,129.6Zm-1.508-.754a1.329,1.329,0,0,0-.969,1.616c0,.215.108.431.323.431a.712.712,0,0,0,.646-.108A1.614,1.614,0,0,0,174.754,128.847Z" transform="translate(-25.665 -78.002)"/><path class="d" d="M151.616,128.417a5.406,5.406,0,0,1,1.293-.215c.539,0,.754.108.754.646a6.624,6.624,0,0,1-.108,1.508c0,.215-.108.539-.108.754-.108.539-.323.646-.862.539-.108,0-.215-.108-.323-.108-.108-.431.108-.862.108-1.293,0-.215.108-.539.108-.754a4.666,4.666,0,0,0-.108-.539.833.833,0,0,0-.862.754L151.185,131c-.108.754-.323.969-1.185.646,0-1.077.539-2.154.431-3.232C150.97,128.094,151.293,128.094,151.616,128.417Z" transform="translate(-27.411 -78.003)"/><path class="d" d="M158.816,128.417a5.406,5.406,0,0,1,1.293-.215c.539,0,.754.108.754.646a6.624,6.624,0,0,1-.108,1.508c0,.215-.108.539-.108.754-.108.539-.323.646-.862.539-.108,0-.215-.108-.323-.108-.108-.431.108-.862.108-1.293,0-.215.108-.539.108-.754a4.666,4.666,0,0,0-.108-.539.833.833,0,0,0-.862.754L158.385,131c-.108.754-.323.969-1.185.646,0-1.077.539-2.154.431-3.232C158.277,128.094,158.6,128.094,158.816,128.417Z" transform="translate(-26.854 -78.003)"/><path class="d" d="M198.11,131.55a3.335,3.335,0,0,1-2.047.108c-.539-.108-.754-.646-.862-1.185a2.422,2.422,0,0,1,.97-2.154,2.162,2.162,0,0,1,1.831-.108,1.06,1.06,0,0,1,.431,1.4,1.238,1.238,0,0,1-.969.646,1.366,1.366,0,0,0-.646.108c-.215,0-.323,0-.323.215a.344.344,0,0,0,.323.323h.646C197.894,130.9,198,130.9,198.11,131.55Zm-1.616-2.047c.754.215.97,0,.97-.539C196.925,128.857,196.709,128.965,196.494,129.5Z" transform="translate(-23.921 -78.012)"/><path class="d" d="M165.9,130.365c-.108.431,0,.431.215.539h.539a1.366,1.366,0,0,0,.646-.108c.215.646.108.862-.431.862h-1.293a1.036,1.036,0,0,1-.97-.862,2.314,2.314,0,0,1,.97-2.478,1.927,1.927,0,0,1,1.724-.108c.108,0,.215.108.323.215a1.046,1.046,0,0,1-.646,1.724A1.614,1.614,0,0,1,165.9,130.365Zm0-.97c.646.215.97.108.97-.539A1.031,1.031,0,0,0,165.9,129.4Z" transform="translate(-26.288 -78.012)"/><path class="d" d="M155.432,128.105c.215.108.431.108.539.215a.452.452,0,0,1-.323.646c-.431.108-.539.539-.646.97s-.108.969-.215,1.4a.692.692,0,0,1-.539.539c-.323,0-.539-.108-.539-.539a8.449,8.449,0,0,0,.215-1.508c0-.215.108-.431.108-.646-.108,0-.215-.108-.323-.215-.215-.215-.108-.431.108-.539.323-.108.323-.323.431-.539l.646-.97a1.029,1.029,0,0,1,1.077-.215.486.486,0,0,1,.323.323c.108.215,0,.323-.215.431-.108.108-.323.108-.431.215C155.647,127.782,155.432,127.89,155.432,128.105Z" transform="translate(-27.133 -78.121)"/><path class="d" d="M180.208,128.973c0,.323.215.431.431.539a1.257,1.257,0,0,1,.754,1.185,1.146,1.146,0,0,1-1.077.97,5.244,5.244,0,0,1-1.293-.108c-.215,0-.323-.215-.323-.431s.215-.323.431-.323h.539c.215,0,.323-.108.431-.108,0-.323-.215-.431-.431-.646l-.323-.323a.987.987,0,0,1,.539-1.724,5.192,5.192,0,0,1,1.293,0,.286.286,0,0,1,.323.323c0,.215-.108.431-.323.431h-.646C180.424,128.973,180.316,128.973,180.208,128.973Z" transform="translate(-25.194 -78.02)"/><path class="d" d="M176,131.535c0-.539.108-.754.539-.646.108,0,.215.108.323.108a1.6,1.6,0,0,0,.646-.108,1.435,1.435,0,0,1-.323-.539c-.108-.108-.108-.108-.215-.108a1.185,1.185,0,0,1-.646-1.077,1.027,1.027,0,0,1,.862-.862,5.191,5.191,0,0,1,1.293,0,.286.286,0,0,1,.323.323c0,.215-.108.431-.323.431-.323,0-.646-.108-.97.108.108.108.108.323.215.323.108.108.215.108.323.215a1.311,1.311,0,0,1,.646,1.077,1.256,1.256,0,0,1-1.077,1.077A4.322,4.322,0,0,1,176,131.535Z" transform="translate(-25.402 -77.997)"/><path class="d" d="M193.319,127.3c0,.323-.108.539,0,.754s.323.215.646.323c0,.323-.108.539-.431.539-.431.108-.539.323-.539.754,0,.108-.108.323-.108.431-.108.323-.108.539.215.754a.518.518,0,0,1,.215.646c-.108.215-.323.215-.539.215a.807.807,0,0,1-.539-.108c-.431-.108-.539-.431-.539-.862a3.146,3.146,0,0,1,.215-.969,1.047,1.047,0,0,0-.108-.97.4.4,0,0,1-.108-.323c-.108-.215,0-.323.215-.431.108-.108.323-.215.323-.323C192.349,127.408,192.78,127.408,193.319,127.3Z" transform="translate(-24.193 -78.07)"/><path class="d" d="M164.419,127.3c0,.323-.108.539,0,.754s.323.215.646.323c0,.323-.108.539-.431.539-.431.108-.539.323-.539.754,0,.108-.108.323-.108.431-.108.323-.108.539.215.754a.518.518,0,0,1,.215.646c-.108.215-.323.215-.539.215a.807.807,0,0,1-.539-.108c-.431-.108-.539-.431-.539-.862a3.146,3.146,0,0,1,.215-.969,1.047,1.047,0,0,0-.108-.97.4.4,0,0,1-.108-.323c-.108-.215,0-.323.215-.431.108-.108.323-.215.323-.323C163.449,127.408,163.88,127.408,164.419,127.3Z" transform="translate(-26.425 -78.07)"/><path class="d" d="M200.233,128.123h.539a.323.323,0,1,1,0,.646h-.646c-.108,0-.215.108-.323.108.108.108.108.323.215.323a.817.817,0,0,0,.431.215c.323.323.646.646.539,1.077-.108.539-.431.862-.862.862h-1.4c-.215,0-.431-.108-.323-.431a.4.4,0,0,1,.431-.431.971.971,0,0,1,.539.108c.215,0,.431,0,.431-.108a.817.817,0,0,0-.215-.431c-.108-.108-.215-.108-.323-.215a1.38,1.38,0,0,1-.431-1.508,1.1,1.1,0,0,1,.646-.539c.108.323.431.323.754.323Z" transform="translate(-23.674 -78.032)"/><path class="d" d="M189.6,126.7c.431,0,.539.108.539.539a.648.648,0,0,1-.108.431c-.215,1.185-.431,2.262-.646,3.447-.108.646-.215.754-.754.754-.323,0-.431-.108-.431-.431a3.146,3.146,0,0,1,.215-.969c.215-1.077.431-2.047.646-3.124C189.062,126.808,189.17,126.7,189.6,126.7Z" transform="translate(-24.46 -78.117)"/><path class="d" d="M148.939,128.205a1.235,1.235,0,0,1,1.077.108,19.024,19.024,0,0,1-.431,2.154c0,.215-.108.539-.108.754a.68.68,0,0,1-.97.431.648.648,0,0,1-.108-.431c.108-.646.215-1.293.323-1.831A5.558,5.558,0,0,0,148.939,128.205Z" transform="translate(-27.534 -78.006)"/><path class="d" d="M181.931,128.206c.97-.215,1.185,0,.97.862-.108.646-.215,1.4-.323,2.047-.108.431-.646.754-.97.539a.648.648,0,0,1-.108-.431c0-.323.108-.539.108-.862C181.715,129.606,181.823,128.96,181.931,128.206Z" transform="translate(-24.978 -78.006)"/><path class="d" d="M156.341,128.1a2.982,2.982,0,0,1,.969.108v.539c-.108.754-.323,1.616-.431,2.37a.591.591,0,0,1-.431.646c-.539.108-.754,0-.646-.646C155.91,130.147,156.125,129.177,156.341,128.1Z" transform="translate(-26.965 -78.009)"/><path class="d" d="M161.554,128.1c.323,0,.646.108.969.108v.431a20.376,20.376,0,0,1-.539,2.478.771.771,0,0,1-.969.539.43.43,0,0,1-.215-.431,2,2,0,0,1,.215-.754c.108-.646.323-1.4.431-2.047C161.446,128.315,161.554,128.315,161.554,128.1Z" transform="translate(-26.576 -78.009)"/><path class="d" d="M150.065,127.883c-.323,0-.754.108-.862-.323a.666.666,0,0,1,.215-.754.92.92,0,0,1,.754,0A1.772,1.772,0,0,1,150.065,127.883Z" transform="translate(-27.475 -78.115)"/><path class="d" d="M182.1,127.339c0-.431.108-.539.431-.539a.727.727,0,0,1,.646.431c0,.431-.215.646-.539.646C182.208,127.877,182.1,127.77,182.1,127.339Z" transform="translate(-24.931 -78.109)"/><path class="d" d="M187.231,128.206c.97-.215,1.185,0,.97.862-.108.646-.215,1.4-.323,2.047-.108.431-.646.754-.969.539a.648.648,0,0,1-.108-.431c0-.323.108-.539.108-.862A7.465,7.465,0,0,1,187.231,128.206Z" transform="translate(-24.568 -78.006)"/><path class="d" d="M187.4,127.339c0-.431.108-.539.431-.539a.727.727,0,0,1,.646.431c0,.431-.215.646-.539.646C187.508,127.877,187.4,127.77,187.4,127.339Z" transform="translate(-24.522 -78.109)"/><path class="d" d="M190.331,128.206c.969-.215,1.185,0,.969.862-.108.646-.215,1.4-.323,2.047-.108.431-.646.754-.97.539a.648.648,0,0,1-.108-.431c0-.323.108-.539.108-.862A7.464,7.464,0,0,1,190.331,128.206Z" transform="translate(-24.329 -78.006)"/><path class="d" d="M190.5,127.339c0-.431.108-.539.431-.539a.727.727,0,0,1,.646.431c0,.431-.215.646-.539.646C190.608,127.877,190.5,127.77,190.5,127.339Z" transform="translate(-24.283 -78.109)"/><path class="d" d="M194.131,128.206c.97-.215,1.185,0,.97.862-.108.646-.215,1.4-.323,2.047-.108.431-.646.754-.969.539a.648.648,0,0,1-.108-.431c0-.323.108-.539.108-.862A14.87,14.87,0,0,1,194.131,128.206Z" transform="translate(-24.035 -78.006)"/><path class="d" d="M194.3,127.339c0-.431.108-.539.431-.539a.727.727,0,0,1,.646.431c0,.431-.215.646-.539.646C194.408,127.877,194.3,127.77,194.3,127.339Z" transform="translate(-23.989 -78.109)"/><path class="d" d="M161.6,127.346a.6.6,0,0,1,.539-.646.509.509,0,0,1,.539.539.7.7,0,0,1-.539.646A.509.509,0,0,1,161.6,127.346Z" transform="translate(-26.515 -78.117)"/><path class="d" d="M157.039,127.877a.509.509,0,0,1-.539-.539c0-.323.215-.539.646-.539a.493.493,0,0,1,.431.539C157.47,127.554,157.254,127.877,157.039,127.877Z" transform="translate(-26.909 -78.109)"/><path class="d" d="M125.339,97.718c-1.077-1.939-2.262-3.77-3.339-5.6l1.724-1.724a22.4,22.4,0,0,1,5.925-4.093,26.95,26.95,0,0,1,4.094-1.616,25.371,25.371,0,0,1,4.955-1.077,28.766,28.766,0,0,1,4.309,0c.323,0,.539.108.862.108a19.671,19.671,0,0,1,6.033,1.4,27.228,27.228,0,0,1,5.6,2.8,24.805,24.805,0,0,1,4.094,3.447,3.467,3.467,0,0,1,.862,1.4.334.334,0,0,0-.215-.108,17.788,17.788,0,0,0-4.417-3.663,19.663,19.663,0,0,0-3.447-1.508,24.708,24.708,0,0,0-8.4-1.077h-.215c0,.215,0,.323.108.431.431,1.939.862,3.77,1.185,5.709.215,1.4.323,2.693.431,4.094a16.676,16.676,0,0,1,.108,2.37v3.232c0,1.293-.108,2.585-.215,3.878-.108,1.185-.323,2.37-.431,3.555,0,.108-.108.215-.108.323a7.638,7.638,0,0,1-5.278-1.293c.108-.539.215-1.185.323-1.724a61.474,61.474,0,0,0,1.4-7.756c.108-1.185.215-2.478.215-3.663V92.331a31.839,31.839,0,0,0-.646-5.494c0-.108-.108-.215-.108-.431-.646.215-1.185.323-1.831.539a29.437,29.437,0,0,0-6.356,3.232c-.754.539-1.4,1.185-2.047,1.724a49.4,49.4,0,0,0-3.986,4.2A7.722,7.722,0,0,1,125.339,97.718Z" transform="translate(-29.573 -81.451)"/><path class="d" d="M106.578,112.88c.431.646.862,1.293,1.293,1.831s.97,1.077,1.508,1.724a11.177,11.177,0,0,1-1.077.431,23.177,23.177,0,0,1-6.14,1.4,27.637,27.637,0,0,1-8.4-.539c-1.293-.323-2.585-.646-3.878-1.077a14.887,14.887,0,0,1-3.663-1.939,42.212,42.212,0,0,1-3.447-2.693,14.8,14.8,0,0,1-4.309-5.925,15.848,15.848,0,0,1-.862-3.232V102a5.559,5.559,0,0,1,.215,1.185,15.124,15.124,0,0,0,1.4,3.663,12.827,12.827,0,0,0,.97,1.616,16.812,16.812,0,0,0,4.74,4.417,20.708,20.708,0,0,0,7.11,2.478,23.416,23.416,0,0,0,3.878.215,19.06,19.06,0,0,0,6.571-.97,33.29,33.29,0,0,0,3.447-1.508C106.362,112.988,106.47,112.88,106.578,112.88Z" transform="translate(-33.002 -80.024)"/><path class="d" d="M116.856,108.571a3.879,3.879,0,1,1-3.878-3.77A3.707,3.707,0,0,1,116.856,108.571Z" transform="translate(-30.57 -79.808)"/></g></g></svg>