<svg xmlns="http://www.w3.org/2000/svg" width="265" height="259.614" viewBox="0 0 265 259.614"><defs><style>.a{fill:#fff;}.b{fill:#00759b;}</style></defs><g transform="translate(-375 -1353)"><rect class="a" width="265" height="259.614" transform="translate(375 1353)"/><path class="b" d="M756.654,107.508h4.926c.324.038.437-.093.446-.43a6.134,6.134,0,0,0-.99-3.625,5,5,0,0,0-5.5-2.362,4.761,4.761,0,0,0-3.05,2.107,6.083,6.083,0,0,0-1.128,3.845c.02.44.028.465.482.465q2.409,0,4.818,0m4,6.749h-8.77c-.524,0-.53,0-.526.524a19.771,19.771,0,0,0,.09,2.965,5.188,5.188,0,0,0,1.165,2.49,5.139,5.139,0,0,0,7.072.933,5.081,5.081,0,0,0,1.355-1.578.73.73,0,0,1,.722-.421c2.356.012,4.711,0,7.067.006.513,0,.535.034.4.536a11.523,11.523,0,0,1-2.7,4.807,16.133,16.133,0,0,1-2.941,2.5,12.221,12.221,0,0,1-3.567,1.554,7.916,7.916,0,0,1-2.029.292c-.484.009-.972.142-1.468.11a14.74,14.74,0,0,1-4.677-.944,12.995,12.995,0,0,1-5.165-3.649,13.763,13.763,0,0,1-1.807-2.647,12.67,12.67,0,0,1-1.007-2.849,22.66,22.66,0,0,1-.4-5.247c0-1.872-.015-3.746,0-5.617a17.327,17.327,0,0,1,.281-3.349,13.323,13.323,0,0,1,3.069-6.211,12.733,12.733,0,0,1,3.058-2.57,11.323,11.323,0,0,1,2.611-1.142,14.214,14.214,0,0,1,4.45-.574,13.687,13.687,0,0,1,6.408,1.766,13.3,13.3,0,0,1,2.568,1.866,11.377,11.377,0,0,1,1.623,1.933,15.112,15.112,0,0,1,2.2,5.47,10.9,10.9,0,0,1,.27,2.318c-.013,2.066,0,4.132,0,6.2,0,.508-.026.533-.531.533h-8.808" transform="translate(-182.239 1377.09)"/><path class="b" d="M726.843,111.344v15.84c0,.629,0,.633-.619.633h-6.671c-.536,0-.536,0-.538-.553,0-.448,0-.893,0-1.34,0-.069.017-.157-.062-.194s-.13.037-.18.083a11.435,11.435,0,0,1-3.153,2.091,9.176,9.176,0,0,1-2.839.8,16.541,16.541,0,0,1-1.722.116,10.081,10.081,0,0,1-6.69-2.392,11.142,11.142,0,0,1-2.887-3.621,10.671,10.671,0,0,1-1.111-4.419c-.288-7.644-.039-15.29-.124-22.932-.006-.578.056-.635.649-.638h6.669c.617,0,.646.034.646.661,0,7.02.011,14.043-.009,21.063a5.475,5.475,0,0,0,1.734,4.069,4.8,4.8,0,0,0,3.391,1.405,5.888,5.888,0,0,0,2.278-.3,4.845,4.845,0,0,0,2.281-1.774,5.925,5.925,0,0,0,1.067-3.021c.057-.808.059-1.615.061-2.423q.009-9.515,0-19.03c0-.646,0-.649.638-.649H726.1c.134,0,.265,0,.4.012a.322.322,0,0,1,.339.376c-.006.121,0,.242,0,.363v15.769" transform="translate(-192.019 1377.239)"/><path class="b" d="M650.041,111.5V95.659c0-.646.025-.671.674-.671q3.316,0,6.634,0c.559,0,.593.039.6.6,0,.374,0,.75,0,1.124,0,.092,0,.2.114.242.1.032.153-.048.218-.1a13.9,13.9,0,0,1,4.067-2.245,10.122,10.122,0,0,1,4.212-.472,9.975,9.975,0,0,1,4.9,1.68,11.736,11.736,0,0,1,4.39,5.346,9.737,9.737,0,0,1,.721,3.666q-.013,11.22,0,22.439c0,.121-.005.242,0,.363.008.238-.09.354-.34.354q-3.537-.006-7.069,0c-.336,0-.362-.19-.362-.448,0-1.713,0-3.43,0-5.145q0-7.74,0-15.478a6.345,6.345,0,0,0-1-3.67,5.1,5.1,0,0,0-3.066-2.2,5.373,5.373,0,0,0-4.246.59,4.853,4.853,0,0,0-2.358,3.384,17.4,17.4,0,0,0-.181,3.208q-.009,9.57,0,19.139c0,.613,0,.613-.627.613h-6.706c-.552,0-.571-.017-.571-.568V111.5" transform="translate(-203.372 1377.073)"/><path class="b" d="M737.872,107.21v22.364c0,.12,0,.242,0,.363,0,.216-.108.307-.313.3-.061,0-.121,0-.181,0h-6.852c-.471,0-.488-.017-.488-.49q0-22.545,0-45.091c0-.505.028-.533.532-.536h6.743c.544,0,.562.02.562.58v22.51" transform="translate(-185.275 1374.818)"/><path class="b" d="M679.25,111.338V95.572c0-.67.024-.7.692-.7q3.353,0,6.7,0c.519,0,.564.04.567.551,0,.579,0,1.159,0,1.74,0,.093-.038.222.045.272.121.069.189-.074.268-.134a13.4,13.4,0,0,1,2.2-1.454,9.926,9.926,0,0,1,3.589-.891c1.612-.125,3.231-.083,4.849-.083.482,0,.521.038.521.514q0,2.917,0,5.836c0,.441-.033.473-.476.476-1.329,0-2.659-.017-3.988,0a6.654,6.654,0,0,0-4.6,1.794,7.326,7.326,0,0,0-2.213,3.814,8.339,8.339,0,0,0-.188,1.863q-.02,8.987-.009,17.975c0,.651,0,.654-.634.654q-3.39,0-6.777,0c-.521,0-.552-.028-.552-.558V111.338" transform="translate(-196.764 1377.25)"/><path class="b" d="M643.521,111.352v15.8c0,.661,0,.661-.665.661q-3.371,0-6.741,0c-.532,0-.56-.023-.56-.547V95.409c0-.516.065-.584.589-.584q3.392-.007,6.78,0c.533,0,.6.07.6.616v15.913" transform="translate(-206.649 1377.239)"/><path class="b" d="M642.769,88.553c0,.99-.007,1.982,0,2.971,0,.291-.093.411-.395.411q-2.954-.013-5.908,0c-.3,0-.4-.119-.4-.411q.013-2.95,0-5.9c0-.337.143-.441.459-.441q2.9.011,5.8,0c.324,0,.451.1.448.439-.015.98-.006,1.956-.006,2.936" transform="translate(-206.533 1375.057)"/></g></svg>