<svg xmlns="http://www.w3.org/2000/svg" width="265" height="259.614" viewBox="0 0 265 259.614"><defs><style>.a{fill:#fff;}.b{fill:#ed1b2e;}</style></defs><g transform="translate(-677 -1353)"><rect class="a" width="265" height="259.614" transform="translate(677 1353)"/><g transform="translate(745.81 1438.82)"><path d="M51.864,93.459a13.043,13.043,0,0,1,.493,4.37c0,1.269,0,5.494-2.4,8.318a5.79,5.79,0,0,1-4.441,2.186,4.325,4.325,0,0,1-4.23-2.89Zm7.262-8.318c.215-.215.423-.423.282-.634-.352-.423-2.749-.215-2.961-.141a1.282,1.282,0,0,0-.564.423l-1.269,1.48a13.743,13.743,0,0,0-8.46-2.468C37.059,83.8,31.7,90.428,31.7,98.882a13.347,13.347,0,0,0,3.6,9.729l-2.679,3.1c-.141.141-.352.352-.282.493.07.352,2.82.215,3.031.141.352-.07.423-.215.7-.493l1.339-1.546a13.519,13.519,0,0,0,8.672,2.679c8.39,0,14.311-6.063,14.311-15.157a13.422,13.422,0,0,0-3.663-9.8ZM40.09,102.836c-.352-.846-.7-1.9-.7-5.076,0-6.7,3.455-10.081,6.979-10.081a4.58,4.58,0,0,1,4.295,2.96Z" transform="translate(-9.352 -24.723)"/><path d="M90.657,90.509v21.079c0,.7-.215,1.058-1.128,1.058H83.82c-.987,0-1.269-.215-1.269-1.058V90.509H76.626c-.846,0-1.128-.141-1.128-.987V85.717c0-.564.141-.917,1.058-.917H96.58c.634,0,1.128.07,1.128.846v3.878c0,.493-.07.987-1.058.987H90.657Z" transform="translate(-22.273 -25.018)"/><path d="M135.823,104.3c-.07,2.186-.141,4.653-2.82,6.627-1.339,1.058-4.018,2.327-8.742,2.327a15.164,15.164,0,0,1-8.248-1.974c-3.1-1.973-3.314-4.511-3.314-7.191V85.546c0-.634.282-.846.987-.846h6.063c.776,0,1.128.07,1.128.917v17.907c.07,1.762.07,4.441,4.441,4.441,4.018,0,4.093-2.89,4.159-4.441V85.617c0-.7.215-.846.987-.846h4.23c.846,0,1.128.07,1.128.917Z" transform="translate(-33.247 -24.988)"/><path class="b" d="M86.378,30.737c-.634,3.807-1.9,5.217-7.4,11.35a14.045,14.045,0,0,0-3.807,10.856C62.832,47.657,60.506,34.615,60.506,34.615c-3.807,6.2-1.128,14.593-1.128,14.593C56.417,47.446,51.06,45.33,47.535,43.5c-5.358-2.961-5.639-6.063-5.639-6.063a14.514,14.514,0,0,0,.423,10.856S30.192,44.343,31.743,31.865a22.092,22.092,0,0,1,9.87-15.512s-.776,8.953,6.486,12.266c0,0-.7-9.306,4.018-16.708C57.756,3.1,66.71.282,70.658,0a11.385,11.385,0,0,0-3.242,9.87c.7,5.494,3.384,7.684,3.031,14.663a14.817,14.817,0,0,0,7.541-8.248A20.313,20.313,0,0,0,78.9,5.569s11.211,2.187,16,10.856a29.7,29.7,0,0,1,3.242,12.2c6.908-3.172,5.78-12.055,5.78-12.055a22.092,22.092,0,0,1,9.87,15.512c1.551,12.478-10.5,16.285-10.5,16.285a13.87,13.87,0,0,0,.7-10.856s-2.82,7.541-17.836,10.856a18.845,18.845,0,0,0,.212-17.627Z" transform="translate(-9.323)"/><path d="M161.277,106.725h8.812c.564,0,.987,0,.987.846v4.094c0,.846-.493.917-.987.917H154.157c-.7,0-.987-.141-1.058-1.058V85.717c.07-.917.564-.917.987-.917h6.134c.635,0,.987.07,1.058.917Z" transform="translate(-45.166 -25.018)"/><path d="M18.118,85.717c-.07-.917-.564-.917-.987-.917H11c-.634,0-.987.07-1.058.917v17.695c0,3.6-1.269,4.441-4.018,4.653A8.228,8.228,0,0,1,1.2,106.725c-.776-.493-1.2-.352-1.2.352V111.1c0,1.128,3.663,2.327,6.274,2.327,4.23,0,7.049-.846,9.024-2.327,1.831-1.339,2.82-2.961,2.82-6.274Z" transform="translate(0.001 -25.018)"/><path d="M173.318,87.168c0,.282-.215.564-.846.564h-.352V86.6h.564C173.107,86.674,173.318,86.815,173.318,87.168Zm.776,2.679-.776-1.2a6.5,6.5,0,0,1-.352-.564,1.024,1.024,0,0,0,.987-1.058c0-.564-.352-.917-1.269-.917h-1.2v3.736h.634v-1.62h.282l1.058,1.621Zm-1.48-4.653a2.889,2.889,0,0,1,2.82,2.89,2.784,2.784,0,0,1-2.82,2.82,2.889,2.889,0,0,1-2.82-2.89,2.924,2.924,0,0,1,2.82-2.821Zm0-.493a3.309,3.309,0,0,0-3.314,3.314,3.265,3.265,0,0,0,3.314,3.314,3.356,3.356,0,0,0,3.314-3.314,3.183,3.183,0,0,0-3.314-3.315Z" transform="translate(-49.946 -24.988)"/></g></g></svg>