<svg xmlns="http://www.w3.org/2000/svg" width="233.309" height="26.033" viewBox="0 0 233.309 26.033"><defs><style>.a{fill:#fff;}</style></defs><g transform="translate(-237.281 -417.767)"><g transform="translate(294.671 417.767)"><rect class="a" width="0.445" height="26.033"/></g><path class="a" d="M282.675,444.661v-20.71a.493.493,0,0,0-.985,0v2.144q-.833.109-1.584.251v-1.972a.493.493,0,0,0-.985,0v2.176q-.747.169-1.43.362V425.08a.493.493,0,0,0-.985,0v2.125q-.717.225-1.4.46v-1.64a.493.493,0,1,0-.985,0v1.984c-.454.159-.906.317-1.362.469v-1.44a.493.493,0,1,0-.985,0v1.754c-.419.127-.848.248-1.293.358v-1.256a.493.493,0,0,0-.985,0v1.479c-.382.077-.777.148-1.191.21v-1.139a.493.493,0,1,0-.985,0v1.264q-.531.057-1.1.094v-1.115a.493.493,0,0,0-.986,0V439.1a.493.493,0,0,0,.333.466l6.485,2.22a.533.533,0,0,0,.085.029l2.282.781.017.005,7.385,2.528a.493.493,0,0,0,.652-.466Zm-15.151-7.878-1.1-.289v-5.706q.571-.035,1.1-.09v6.086Zm0,2.34-1.1-.377v-1.234l1.1.289v1.323Zm2.176-1.769-1.191-.313v-6.464q.619-.088,1.191-.2v6.977Zm0,2.514-1.191-.408v-1.4l1.191.313v1.5Zm2.278-1.915-1.293-.34v-7.449c.445-.107.875-.222,1.293-.344v8.133Zm0,2.695-1.293-.443v-1.574l1.293.339v1.677Zm2.347-2.079-1.362-.357v-8.7c.458-.149.909-.3,1.362-.462v9.517Zm0,2.882-1.362-.466v-1.755l1.362.358v1.863Zm2.38-2.256-1.4-.366V428.708q.682-.238,1.4-.469V439.2Zm0,3.071-1.4-.478v-1.942l1.4.367v2.052Zm2.415-2.436-1.43-.376V427.938c.458-.133.93-.261,1.43-.379V439.83Zm0,3.263-1.43-.49v-2.131l1.43.376v2.245Zm2.569-2.589-1.584-.416V427.346c.5-.1,1.03-.183,1.584-.258V440.5Zm0,3.467-1.584-.542v-2.323l1.584.416v2.449ZM254.52,439.1V428.687a.493.493,0,0,0-.985,0V429.8q-.572-.037-1.1-.094v-1.264a.493.493,0,1,0-.985,0v1.139c-.413-.061-.809-.133-1.191-.21v-1.479a.493.493,0,0,0-.985,0v1.256c-.445-.111-.874-.232-1.293-.358v-1.754a.493.493,0,1,0-.985,0v1.44c-.456-.152-.908-.309-1.362-.469v-1.984a.493.493,0,1,0-.985,0v1.64q-.679-.235-1.4-.46V425.08a.493.493,0,0,0-.985,0v1.832q-.683-.193-1.43-.362v-2.176a.493.493,0,0,0-.985,0v1.972q-.751-.142-1.584-.251v-2.144a.493.493,0,0,0-.985,0v20.71a.492.492,0,0,0,.652.466l7.385-2.528.017-.005,2.282-.781a.533.533,0,0,0,.085-.029l6.485-2.22a.493.493,0,0,0,.333-.466Zm-14.67.99-1.584.416V427.088c.554.076,1.086.16,1.584.258v12.743Zm0,3.342-1.584.542v-2.449l1.584-.416v2.323Zm2.415-3.976-1.43.376V427.558c.5.118.972.246,1.43.379v11.517Zm0,3.149-1.43.49v-2.245l1.43-.376V442.6Zm2.38-3.774-1.4.366V428.239q.715.23,1.4.469v10.121Zm0,2.959-1.4.478v-2.052l1.4-.367v1.942Zm2.347-3.576-1.362.357v-9.517c.453.158.9.313,1.362.462v8.7Zm0,2.773-1.362.466v-1.863l1.362-.358v1.755Zm2.278-3.372-1.293.34v-8.133c.418.122.848.237,1.293.344v7.449Zm0,2.592-1.293.443v-1.677l1.293-.339v1.574Zm2.176-3.164-1.191.313v-6.977q.573.112,1.191.2v6.464Zm0,2.419-1.191.408v-1.5l1.191-.313v1.4Zm2.088-2.967-1.1.289V430.7q.531.055,1.1.09v5.706Zm0,2.252-1.1.377V437.8l1.1-.289v1.234Z" transform="translate(0 -3.161)"/><g transform="translate(305.512 419.173)"><path class="a" d="M396.338,420.93a5.244,5.244,0,0,1,5.612,5.436,5.591,5.591,0,0,1-11.18,0A5.232,5.232,0,0,1,396.338,420.93Zm.015,9.271a3.829,3.829,0,1,0-3.57-3.835A3.566,3.566,0,0,0,396.353,430.2Z" transform="translate(-390.77 -420.93)"/><path class="a" d="M429.761,431.053a8.848,8.848,0,0,1-3.923.808,5.469,5.469,0,1,1-.044-10.931,5.954,5.954,0,0,1,3.952,1.308l-1.279,1.381a3.693,3.693,0,0,0-2.659-1.058,3.824,3.824,0,0,0,.088,7.64,5.381,5.381,0,0,0,2.072-.367v-2.645h-2.189v-1.528h3.981Z" transform="translate(-407.091 -420.93)"/><path class="a" d="M455.028,423.634a2.947,2.947,0,0,0-2.365-1.073,3.584,3.584,0,0,0-3.6,3.805c0,2.263,1.381,3.835,3.526,3.835a3.054,3.054,0,0,0,2.527-1.2l1.484,1.043a4.915,4.915,0,0,1-4.025,1.822,5.467,5.467,0,1,1,.088-10.931,4.857,4.857,0,0,1,3.776,1.587Z" transform="translate(-422.015 -420.93)"/><path class="a" d="M483.143,421.525h1.6l4.481,10.4H487.11l-.97-2.38H481.63l-.94,2.38h-2.072Zm2.351,6.435-1.6-4.232-1.631,4.232Z" transform="translate(-439.567 -421.26)"/><path class="a" d="M505.671,425.555H507.7l4,6.446h.024v-6.446h1.533v8.611h-1.946l-4.087-6.653H507.2v6.653h-1.533Z" transform="translate(-454.594 -423.499)"/><path class="a" d="M529.494,425.555h1.326l3.709,8.611h-1.751l-.8-1.971h-3.734l-.778,1.971h-1.714Zm1.946,5.327-1.326-3.5-1.35,3.5Z" transform="translate(-465.746 -423.499)"/><path class="a" d="M548.5,425.555h1.533V432.8H553.7v1.362H548.5Z" transform="translate(-478.386 -423.499)"/><path class="a" d="M561.859,430.432l-3.235-4.877H560.5l2.165,3.624,2.189-3.624h1.776l-3.235,4.877v3.734h-1.533Z" transform="translate(-484.007 -423.499)"/><path class="a" d="M579.944,426.893H577.3v-1.338h6.811v1.338h-2.639v7.273h-1.532Z" transform="translate(-494.384 -423.499)"/><path class="a" d="M595.959,425.555h1.533v8.611h-1.533Z" transform="translate(-504.745 -423.499)"/><path class="a" d="M610.464,427.3a2.439,2.439,0,0,0-1.958-.888,2.967,2.967,0,0,0-2.979,3.15,2.889,2.889,0,0,0,2.919,3.174,2.529,2.529,0,0,0,2.092-1l1.228.863a4.068,4.068,0,0,1-3.333,1.508,4.526,4.526,0,1,1,.073-9.049,4.021,4.021,0,0,1,3.126,1.314Z" transform="translate(-509.121 -423.225)"/><path class="a" d="M628.483,427.081a2.109,2.109,0,0,0-1.581-.742c-.706,0-1.52.34-1.52,1.18,0,.79.669,1.022,1.642,1.326,1.106.341,2.517.827,2.517,2.517,0,1.849-1.447,2.749-3.138,2.749a3.923,3.923,0,0,1-2.955-1.228l1.095-1.022a2.451,2.451,0,0,0,1.885.949c.717,0,1.557-.353,1.557-1.277,0-.9-.9-1.155-1.983-1.5-1.046-.328-2.177-.839-2.177-2.444,0-1.752,1.593-2.53,3.15-2.53a3.758,3.758,0,0,1,2.505.925Z" transform="translate(-520.015 -423.225)"/><path class="a" d="M651.721,421.525h3.394c2.38,0,3.923.837,3.923,3.012,0,2.292-1.837,3.085-4.041,3.085h-1.425v4.3h-1.851Zm3.144,4.54c1.2,0,2.307-.294,2.307-1.527s-1.1-1.455-2.248-1.455h-1.352v2.982Z" transform="translate(-535.719 -421.26)"/><path class="a" d="M676.437,425.062a4.342,4.342,0,0,1,4.646,4.5,4.628,4.628,0,0,1-9.255,0A4.332,4.332,0,0,1,676.437,425.062Zm.012,7.674a3.169,3.169,0,1,0-2.955-3.174A2.951,2.951,0,0,0,676.45,432.736Z" transform="translate(-546.888 -423.225)"/><path class="a" d="M697.074,425.555h2.992c1.617,0,3.174.645,3.174,2.468a2.288,2.288,0,0,1-1.97,2.323l2.3,3.819H701.72l-1.994-3.649h-1.119v3.649h-1.532Zm2.786,3.709c.863,0,1.848-.207,1.848-1.253,0-.936-.924-1.167-1.715-1.167h-1.387v2.42Z" transform="translate(-560.911 -423.499)"/><path class="a" d="M715.66,426.893h-2.639v-1.338h6.811v1.338h-2.639v7.273H715.66Z" transform="translate(-569.769 -423.499)"/><path class="a" d="M731.427,425.555h1.326l3.71,8.611H734.71l-.8-1.971h-3.734l-.778,1.971h-1.715Zm1.946,5.327-1.326-3.5-1.35,3.5Z" transform="translate(-577.912 -423.499)"/><path class="a" d="M750.438,425.555h1.532V432.8h3.661v1.362h-5.193Z" transform="translate(-590.553 -423.499)"/></g><g transform="translate(332.562 437.56)"><path class="a" d="M453.482,462.582a2.957,2.957,0,0,1,2.059.662,2.393,2.393,0,0,1,.731,1.869,2.843,2.843,0,0,1-.238,1.194,2.255,2.255,0,0,1-.706.876,2.108,2.108,0,0,1-.749.36,4.482,4.482,0,0,1-1.1.109h-1.863v-.31l.428-.037.129-.107v-4.162l-.129-.107-.428-.044v-.3Zm-.628.347v4.376h.6a2.02,2.02,0,0,0,1.544-.545,2.913,2.913,0,0,0,0-3.291,2.028,2.028,0,0,0-1.548-.541Z" transform="translate(-451.619 -462.453)"/><path class="a" d="M468.008,462.44h.5l1.811,4.731.454.092v.31h-1.715v-.31l.469-.037.055-.107-.546-1.443h-1.783l-.538,1.443.077.107.491.037v.31H465.8v-.31l.436-.092Zm.118.794-.745,2.1H468.9Z" transform="translate(-459.497 -462.374)"/><path class="a" d="M478.606,462.582h4.269v1.162h-.417l-.1-.7-.107-.115h-1.155V467.2l.125.107.509.037v.31h-1.974v-.31l.505-.037.129-.107v-4.269h-1.155l-.107.115-.107.7h-.413Z" transform="translate(-466.609 -462.453)"/><path class="a" d="M492.091,462.44h.5l1.812,4.731.454.092v.31h-1.716v-.31l.469-.037.056-.107-.546-1.443h-1.782l-.539,1.443.077.107.491.037v.31h-1.479v-.31l.435-.092Zm.118.794-.745,2.1h1.524Z" transform="translate(-472.874 -462.374)"/><path class="a" d="M506.044,471.979a.456.456,0,0,1,.337.14.469.469,0,0,1,.139.343.455.455,0,0,1-.141.338.46.46,0,0,1-.336.139.473.473,0,0,1-.343-.137.454.454,0,0,1-.14-.34.469.469,0,0,1,.14-.341A.463.463,0,0,1,506.044,471.979Z" transform="translate(-481.582 -467.673)"/><path class="a" d="M517.726,467.652v-.31l.483-.037.129-.107v-4.162l-.129-.107-.483-.044v-.3h1.919v.3l-.483.044-.129.107V467.2l.129.107.483.037v.31Z" transform="translate(-488.339 -462.453)"/><path class="a" d="M526.5,467.652v-.31l.461-.059.137-.144v-4.1l-.137-.107-.483-.044v-.3H527.9v.188l2.579,3.871v-3.553l-.136-.137-.454-.066v-.3h1.586v.3l-.454.066-.136.137v4.564h-.5l-2.878-4.292v3.779l.136.144.454.059v.31Z" transform="translate(-493.202 -462.453)"/><path class="a" d="M542.58,467.385v-1.328h.446l.089.867.1.129a1.481,1.481,0,0,0,.38.129,2.278,2.278,0,0,0,.465.044,1.305,1.305,0,0,0,.836-.245.8.8,0,0,0,.308-.662q0-.579-1.085-1.041l-.181-.077a3.007,3.007,0,0,1-1.026-.625,1.107,1.107,0,0,1-.251-.751,1.3,1.3,0,0,1,.477-1.05,1.911,1.911,0,0,1,1.268-.4,3.858,3.858,0,0,1,.637.054,4.569,4.569,0,0,1,.651.16v1.17H545.3l-.115-.72-.111-.125a1.166,1.166,0,0,0-.313-.121,1.69,1.69,0,0,0-.369-.039,1.088,1.088,0,0,0-.749.245.846.846,0,0,0-.277.666.7.7,0,0,0,.194.507,2.907,2.907,0,0,0,.865.485l.188.074a2.845,2.845,0,0,1,.952.546,1.069,1.069,0,0,1,.249.372,1.244,1.244,0,0,1,.083.457,1.332,1.332,0,0,1-.535,1.1,2.241,2.241,0,0,1-1.421.418,4.252,4.252,0,0,1-.744-.062A2.757,2.757,0,0,1,542.58,467.385Z" transform="translate(-502.145 -462.338)"/><path class="a" d="M555.012,467.652v-.31l.483-.037.129-.107v-4.162l-.129-.107-.483-.044v-.3h1.919v.3l-.483.044-.129.107V467.2l.129.107.483.037v.31Z" transform="translate(-509.05 -462.453)"/><path class="a" d="M566.883,465.1h1.885v.31l-.417.037-.125.1v1.808a7.777,7.777,0,0,1-.846.2,4.307,4.307,0,0,1-.718.066,3.057,3.057,0,0,1-.705-.077,2.314,2.314,0,0,1-.6-.225,2.5,2.5,0,0,1-.957-.967,2.729,2.729,0,0,1-.348-1.362,2.538,2.538,0,0,1,.734-1.913,2.719,2.719,0,0,1,1.976-.711,4.723,4.723,0,0,1,.708.056,5.732,5.732,0,0,1,.745.166v1.2H567.8l-.114-.686-.106-.136a2.053,2.053,0,0,0-.426-.148,1.93,1.93,0,0,0-.433-.048,1.73,1.73,0,0,0-1.378.58,2.34,2.34,0,0,0-.5,1.59,2.487,2.487,0,0,0,.522,1.67,1.77,1.77,0,0,0,1.419.611,2.986,2.986,0,0,0,.367-.024,3.349,3.349,0,0,0,.4-.076v-1.571l-.129-.1-.535-.037Z" transform="translate(-514.074 -462.338)"/><path class="a" d="M579.085,462.582h1.834v.3l-.469.044-.129.107v1.782h2.6v-1.782l-.129-.107-.469-.044v-.3h1.837v.3l-.432.044-.129.107V467.2l.129.107.432.037v.31h-1.837v-.31l.469-.037.129-.107v-2.033h-2.6V467.2l.129.107.469.037v.31h-1.834v-.31l.428-.037.129-.107v-4.162l-.129-.107-.428-.044Z" transform="translate(-522.422 -462.453)"/><path class="a" d="M594.737,462.582h4.269v1.162h-.417l-.1-.7-.107-.115h-1.155V467.2l.125.107.509.037v.31h-1.974v-.31l.505-.037.129-.107v-4.269h-1.155l-.107.115-.107.7h-.413Z" transform="translate(-531.116 -462.453)"/><path class="a" d="M607.278,471.979a.456.456,0,0,1,.338.14.469.469,0,0,1,.138.343.476.476,0,0,1-.476.477.474.474,0,0,1-.343-.137.454.454,0,0,1-.14-.34.481.481,0,0,1,.483-.483Z" transform="translate(-537.814 -467.673)"/><path class="a" d="M620.437,462.44h.5l1.812,4.731.454.092v.31h-1.716v-.31l.469-.037.055-.107-.546-1.443H619.68l-.539,1.443.077.107.491.037v.31h-1.48v-.31l.436-.092Zm.118.794-.745,2.1h1.524Z" transform="translate(-544.166 -462.374)"/><path class="a" d="M637.477,467.363a4.944,4.944,0,0,1-.76.2,4.367,4.367,0,0,1-.764.068,2.982,2.982,0,0,1-.7-.077,2.332,2.332,0,0,1-.59-.225,2.5,2.5,0,0,1-.957-.969,2.734,2.734,0,0,1-.349-1.36,2.479,2.479,0,0,1,2.624-2.624,4.2,4.2,0,0,1,.714.065,5.8,5.8,0,0,1,.781.194v1.162h-.421l-.115-.686-.1-.136a2.158,2.158,0,0,0-.424-.148,1.832,1.832,0,0,0-.421-.048,1.7,1.7,0,0,0-1.358.583,2.349,2.349,0,0,0-.5,1.587,2.477,2.477,0,0,0,.524,1.674,1.814,1.814,0,0,0,1.45.607,2.246,2.246,0,0,0,.326-.024,2.068,2.068,0,0,0,.33-.076l.118-.118.185-.842h.406Z" transform="translate(-552.569 -462.338)"/><path class="a" d="M647.044,462.582h4.269v1.162H650.9l-.1-.7-.107-.115h-1.155V467.2l.125.107.509.037v.31h-1.974v-.31l.506-.037.129-.107v-4.269h-1.155l-.107.115-.107.7h-.413Z" transform="translate(-560.171 -462.453)"/><path class="a" d="M660.919,467.652v-.31l.484-.037.129-.107v-4.162l-.129-.107-.484-.044v-.3h1.919v.3l-.484.044-.129.107V467.2l.129.107.484.037v.31Z" transform="translate(-567.878 -462.453)"/><path class="a" d="M672.407,462.292a2.41,2.41,0,0,1,.9.166,2.319,2.319,0,0,1,.76.5,2.451,2.451,0,0,1,.581.878,3.051,3.051,0,0,1,.2,1.118,3.174,3.174,0,0,1-.1.794,2.755,2.755,0,0,1-.288.7,2.3,2.3,0,0,1-.864.858,2.371,2.371,0,0,1-1.192.308,2.482,2.482,0,0,1-.909-.166,2.251,2.251,0,0,1-.755-.484,2.448,2.448,0,0,1-.581-.882,3.32,3.32,0,0,1,0-2.251,2.417,2.417,0,0,1,.576-.874,2.319,2.319,0,0,1,.762-.5A2.438,2.438,0,0,1,672.407,462.292Zm0,.409a1.426,1.426,0,0,0-1.209.607,3.231,3.231,0,0,0,0,3.29,1.481,1.481,0,0,0,2.4,0,3.219,3.219,0,0,0,0-3.284A1.413,1.413,0,0,0,672.407,462.7Z" transform="translate(-572.902 -462.292)"/><path class="a" d="M685.522,467.652v-.31l.461-.059.137-.144v-4.1l-.137-.107-.483-.044v-.3h1.421v.188l2.579,3.871v-3.553l-.136-.137-.454-.066v-.3H690.5v.3l-.454.066-.137.137v4.564h-.5l-2.878-4.292v3.779l.136.144.454.059v.31Z" transform="translate(-581.532 -462.453)"/></g></g></svg>