<svg xmlns="http://www.w3.org/2000/svg" width="412" height="45.971" viewBox="0 0 412 45.971"><defs><style>.a{fill:#252839;}</style></defs><g transform="translate(-237.281 -417.767)"><g transform="translate(338.625 417.767)"><rect class="a" width="0.785" height="45.971"/></g><path class="a" d="M317.441,460.9V424.328a.87.87,0,0,0-1.74,0v3.786q-1.471.193-2.8.444v-3.482a.87.87,0,0,0-1.74,0v3.843q-1.319.3-2.525.639v-3.235a.87.87,0,0,0-1.74,0v3.753q-1.266.4-2.464.812v-2.9a.87.87,0,1,0-1.74,0v3.5c-.8.281-1.6.559-2.405.827V429.78a.87.87,0,1,0-1.74,0v3.1c-.74.224-1.5.437-2.284.633v-2.218a.87.87,0,0,0-1.74,0V433.9c-.675.137-1.373.262-2.1.371v-2.012a.87.87,0,0,0-1.74,0v2.233q-.937.1-1.946.166v-1.969a.87.87,0,0,0-1.74,0v18.386a.87.87,0,0,0,.589.823l11.452,3.919a.934.934,0,0,0,.15.051l4.03,1.379.03.009,13.041,4.464a.87.87,0,0,0,1.151-.823Zm-26.756-13.911-1.946-.511V436.4q1.008-.062,1.946-.159v10.747Zm0,4.133-1.946-.666v-2.18l1.946.511v2.335ZM294.529,448l-2.1-.553V436.032q1.094-.155,2.1-.353V448Zm0,4.439-2.1-.721v-2.474l2.1.553v2.642Zm4.023-3.382-2.284-.6V435.3c.787-.188,1.546-.392,2.284-.608v14.362Zm0,4.759-2.284-.782v-2.779l2.284.6v2.962Zm4.145-3.671-2.405-.631V434.154c.809-.263,1.606-.538,2.405-.816v16.806Zm0,5.088-2.405-.823v-3.1l2.405.632v3.29Zm4.2-3.984-2.464-.647V432.729q1.2-.42,2.464-.828v19.348Zm0,5.423-2.464-.844V452.4l2.464.648v3.624Zm4.265-4.3-2.525-.664V431.368c.809-.235,1.643-.462,2.525-.67V452.37Zm0,5.762-2.525-.865V453.5l2.525.663v3.964Zm4.537-4.571-2.8-.735v-22.5c.88-.173,1.82-.323,2.8-.456V453.56Zm0,6.123-2.8-.957v-4.1l2.8.735v4.325Zm-47.978-8.606V432.691a.87.87,0,1,0-1.74,0v1.969q-1.01-.065-1.947-.166v-2.233a.87.87,0,0,0-1.74,0v2.012c-.73-.108-1.429-.234-2.1-.371v-2.612a.87.87,0,0,0-1.74,0v2.218c-.787-.2-1.543-.409-2.284-.633v-3.1a.87.87,0,1,0-1.74,0v2.543c-.805-.268-1.6-.546-2.405-.827v-3.5a.87.87,0,1,0-1.74,0v2.9q-1.2-.414-2.464-.812v-3.753a.87.87,0,0,0-1.74,0v3.235q-1.207-.34-2.525-.639v-3.843a.87.87,0,0,0-1.74,0v3.482q-1.326-.251-2.8-.444v-3.786a.87.87,0,1,0-1.74,0V460.9a.869.869,0,0,0,1.151.823l13.042-4.464.03-.009,4.029-1.379a.936.936,0,0,0,.15-.051l11.452-3.919a.87.87,0,0,0,.589-.823Zm-25.905,1.748-2.8.735V429.868c.978.133,1.917.283,2.8.456v22.5Zm0,5.9-2.8.957v-4.325l2.8-.735v4.1Zm4.264-7.021-2.525.664V430.7c.882.208,1.716.435,2.525.67v20.337Zm0,5.561-2.525.865v-3.964l2.525-.663v3.762Zm4.2-6.665-2.464.647V431.9q1.263.406,2.464.828V450.6Zm0,5.226-2.464.844v-3.624l2.464-.648v3.429Zm4.145-6.315-2.405.631V433.338c.8.279,1.6.553,2.405.816v15.358Zm0,4.9-2.405.823v-3.29l2.405-.632v3.1Zm4.023-5.954-2.284.6V434.694c.738.216,1.5.419,2.284.608v13.154Zm0,4.577-2.284.782v-2.962l2.284-.6v2.779Zm3.843-5.587-2.1.553v-12.32q1.011.2,2.1.353v11.414Zm0,4.271-2.1.721V449.8l2.1-.553v2.474Zm3.686-5.239-1.947.511V436.243q.937.1,1.947.159v10.077Zm0,3.978-1.947.666v-2.335l1.947-.511v2.18Z" transform="translate(0 -1.224)"/><g transform="translate(357.77 420.25)"><path class="a" d="M400.6,420.93c5.734,0,9.911,3.71,9.911,9.6,0,5.734-4.176,9.7-9.911,9.7-5.656,0-9.833-3.97-9.833-9.7C390.77,424.64,394.947,420.93,400.6,420.93Zm.026,16.371c3.763,0,6.331-2.854,6.331-6.771,0-3.788-2.517-6.72-6.331-6.72-3.788,0-6.3,2.931-6.3,6.72C394.324,434.447,396.893,437.3,400.629,437.3Z" transform="translate(-390.77 -420.93)"/><path class="a" d="M437.12,438.806a15.626,15.626,0,0,1-6.928,1.427c-5.915,0-10.04-3.97-10.04-9.7,0-5.89,4.307-9.6,9.962-9.6a10.514,10.514,0,0,1,6.979,2.31l-2.258,2.439a6.522,6.522,0,0,0-4.7-1.868c-3.865,0-6.382,2.931-6.382,6.72,0,3.917,2.491,6.771,6.538,6.771a9.5,9.5,0,0,0,3.658-.648v-4.67h-3.865v-2.7h7.031Z" transform="translate(-397.087 -420.93)"/><path class="a" d="M461.161,425.7a5.2,5.2,0,0,0-4.177-1.894c-3.788,0-6.356,2.931-6.356,6.72,0,4,2.438,6.771,6.227,6.771a5.393,5.393,0,0,0,4.462-2.127l2.62,1.842a8.679,8.679,0,0,1-7.108,3.217c-5.734,0-9.808-3.97-9.808-9.7,0-5.89,4.307-9.6,9.963-9.6,2.387,0,5.215.882,6.668,2.8Z" transform="translate(-402.864 -420.93)"/><path class="a" d="M486.609,421.525h2.828l7.913,18.369h-3.736l-1.712-4.2h-7.965l-1.66,4.2h-3.658Zm4.151,11.364-2.828-7.472-2.88,7.472Z" transform="translate(-409.657 -421.058)"/><path class="a" d="M505.671,425.555h3.587l7.066,11.383h.042V425.555h2.707V440.76h-3.437l-7.216-11.748h-.042V440.76h-2.707Z" transform="translate(-415.474 -421.924)"/><path class="a" d="M532.362,425.555H534.7l6.55,15.205h-3.092l-1.418-3.48H530.15l-1.375,3.48h-3.028Zm3.436,9.407-2.341-6.186-2.384,6.186Z" transform="translate(-419.79 -421.924)"/><path class="a" d="M548.5,425.555h2.707v12.8h6.465v2.406H548.5Z" transform="translate(-424.683 -421.924)"/><path class="a" d="M564.336,434.166l-5.712-8.611h3.307l3.823,6.4,3.865-6.4h3.136l-5.712,8.611v6.594h-2.707Z" transform="translate(-426.858 -421.924)"/><path class="a" d="M581.966,427.917H577.3v-2.362h12.027v2.362h-4.661V440.76h-2.706Z" transform="translate(-430.875 -421.924)"/><path class="a" d="M595.959,425.555h2.707V440.76h-2.707Z" transform="translate(-434.885 -421.924)"/><path class="a" d="M615.541,429.014a4.307,4.307,0,0,0-3.458-1.568,5.239,5.239,0,0,0-5.261,5.563c0,3.307,2.018,5.606,5.154,5.606a4.466,4.466,0,0,0,3.694-1.761l2.169,1.524a7.183,7.183,0,0,1-5.885,2.663,7.736,7.736,0,0,1-8.118-8.032c0-4.875,3.565-7.947,8.247-7.947a7.1,7.1,0,0,1,5.52,2.32Z" transform="translate(-436.579 -421.818)"/><path class="a" d="M632.34,428.627a3.725,3.725,0,0,0-2.792-1.31c-1.246,0-2.685.6-2.685,2.083,0,1.4,1.181,1.8,2.9,2.341,1.954.6,4.445,1.461,4.445,4.445,0,3.265-2.556,4.854-5.541,4.854a6.928,6.928,0,0,1-5.219-2.169l1.934-1.8a4.328,4.328,0,0,0,3.328,1.676c1.267,0,2.749-.623,2.749-2.255,0-1.589-1.59-2.04-3.5-2.642-1.846-.579-3.844-1.482-3.844-4.317,0-3.093,2.813-4.467,5.563-4.467a6.636,6.636,0,0,1,4.424,1.633Z" transform="translate(-440.795 -421.818)"/><path class="a" d="M651.721,421.525h5.993c4.2,0,6.928,1.479,6.928,5.319,0,4.047-3.244,5.448-7.135,5.448H654.99v7.6h-3.269Zm5.552,8.016c2.127,0,4.073-.519,4.073-2.7s-1.946-2.569-3.969-2.569H654.99v5.267Z" transform="translate(-446.874 -421.058)"/><path class="a" d="M679.968,425.062c4.747,0,8.2,3.072,8.2,7.947a8.173,8.173,0,0,1-16.344,0C671.828,428.134,675.286,425.062,679.968,425.062Zm.022,13.552c3.114,0,5.24-2.363,5.24-5.606,0-3.136-2.083-5.563-5.24-5.563-3.136,0-5.219,2.426-5.219,5.563C674.771,436.251,676.9,438.614,679.99,438.614Z" transform="translate(-451.197 -421.818)"/><path class="a" d="M697.074,425.555h5.284c2.856,0,5.6,1.138,5.6,4.359a4.041,4.041,0,0,1-3.479,4.1l4.059,6.744h-3.265l-3.522-6.443H699.78v6.443h-2.706Zm4.919,6.55c1.524,0,3.264-.365,3.264-2.212,0-1.653-1.632-2.061-3.028-2.061H699.78v4.274Z" transform="translate(-456.625 -421.924)"/><path class="a" d="M717.682,427.917h-4.661v-2.362h12.027v2.362h-4.661V440.76h-2.706Z" transform="translate(-460.054 -421.924)"/><path class="a" d="M734.3,425.555h2.341l6.551,15.205h-3.093l-1.418-3.48h-6.593l-1.375,3.48h-3.028Zm3.436,9.407-2.341-6.186-2.383,6.186Z" transform="translate(-463.205 -421.924)"/><path class="a" d="M750.438,425.555h2.706v12.8h6.465v2.406h-9.171Z" transform="translate(-468.098 -421.924)"/></g><g transform="translate(405.537 452.719)"><path class="a" d="M454.91,462.582a5.222,5.222,0,0,1,3.635,1.17,4.227,4.227,0,0,1,1.291,3.3,5.02,5.02,0,0,1-.421,2.109,3.984,3.984,0,0,1-1.247,1.547,3.725,3.725,0,0,1-1.323.635,7.919,7.919,0,0,1-1.935.192h-3.291v-.547l.756-.065.228-.189v-7.35l-.228-.189-.756-.078v-.535Zm-1.108.612v7.728h1.056a3.567,3.567,0,0,0,2.727-.962,5.144,5.144,0,0,0,.006-5.812,3.581,3.581,0,0,0-2.733-.955Z" transform="translate(-451.619 -462.354)"/><path class="a" d="M469.7,462.44h.88l3.2,8.355.8.163v.547h-3.029v-.547l.827-.065.1-.189-.964-2.547h-3.148l-.951,2.547.137.189.867.065v.547H465.8v-.547l.769-.163Zm.209,1.4-1.316,3.7h2.691Z" transform="translate(-454.668 -462.324)"/><path class="a" d="M478.606,462.582h7.539v2.052h-.736l-.182-1.237-.189-.2H483v7.539l.221.189.9.065v.547h-3.485v-.547l.893-.065.228-.189v-7.539h-2.039l-.189.2-.188,1.237h-.73Z" transform="translate(-457.421 -462.354)"/><path class="a" d="M493.781,462.44h.879l3.2,8.355.8.163v.547h-3.03v-.547l.827-.065.1-.189-.965-2.547h-3.147l-.951,2.547.137.189.867.065v.547h-2.612v-.547l.769-.163Zm.208,1.4-1.316,3.7h2.691Z" transform="translate(-459.846 -462.324)"/><path class="a" d="M506.414,471.979a.8.8,0,0,1,.6.247.828.828,0,0,1,.245.605.8.8,0,0,1-.248.6.813.813,0,0,1-.593.245.836.836,0,0,1-.606-.242.8.8,0,0,1-.247-.6.827.827,0,0,1,.247-.6A.819.819,0,0,1,506.414,471.979Z" transform="translate(-463.216 -464.375)"/><path class="a" d="M517.726,471.535v-.547l.853-.065.228-.189v-7.35l-.228-.189-.853-.078v-.535h3.388v.535l-.853.078-.228.189v7.35l.228.189.853.065v.547Z" transform="translate(-465.832 -462.354)"/><path class="a" d="M526.519,471.535v-.547l.814-.1.242-.254v-7.246l-.242-.189-.853-.078v-.535h2.509v.332l4.555,6.836v-6.275l-.241-.242-.8-.117v-.535h2.8v.535l-.8.117-.241.242v8.06h-.879l-5.083-7.578v6.673l.241.254.8.1v.547Z" transform="translate(-467.714 -462.354)"/><path class="a" d="M542.58,471.223v-2.346h.788l.157,1.531.176.228a2.615,2.615,0,0,0,.671.228,4.022,4.022,0,0,0,.821.078,2.305,2.305,0,0,0,1.476-.433,1.417,1.417,0,0,0,.544-1.17q0-1.023-1.915-1.838c-.14-.06-.246-.107-.32-.137a5.31,5.31,0,0,1-1.812-1.1,1.954,1.954,0,0,1-.443-1.326,2.3,2.3,0,0,1,.843-1.854,3.375,3.375,0,0,1,2.239-.707,6.81,6.81,0,0,1,1.124.1,8.059,8.059,0,0,1,1.15.283v2.065h-.7l-.2-1.271-.2-.221a2.06,2.06,0,0,0-.553-.213,2.982,2.982,0,0,0-.652-.068,1.921,1.921,0,0,0-1.323.433,1.493,1.493,0,0,0-.489,1.177,1.242,1.242,0,0,0,.342.9,5.135,5.135,0,0,0,1.528.857c.075.031.185.073.333.13a5.029,5.029,0,0,1,1.681.964,1.888,1.888,0,0,1,.44.658,2.2,2.2,0,0,1,.146.808,2.352,2.352,0,0,1-.944,1.946,3.958,3.958,0,0,1-2.509.739,7.5,7.5,0,0,1-1.313-.11A4.868,4.868,0,0,1,542.58,471.223Z" transform="translate(-471.176 -462.31)"/><path class="a" d="M555.012,471.535v-.547l.853-.065.228-.189v-7.35l-.228-.189-.853-.078v-.535H558.4v.535l-.853.078-.228.189v7.35l.228.189.853.065v.547Z" transform="translate(-473.848 -462.354)"/><path class="a" d="M569.048,467.2h3.329v.547l-.736.066-.221.182v3.193a13.716,13.716,0,0,1-1.494.352,7.6,7.6,0,0,1-1.267.116,5.4,5.4,0,0,1-1.246-.137,4.085,4.085,0,0,1-1.052-.4,4.422,4.422,0,0,1-1.689-1.708,4.82,4.82,0,0,1-.615-2.4,4.482,4.482,0,0,1,1.3-3.378,4.8,4.8,0,0,1,3.489-1.255,8.337,8.337,0,0,1,1.25.1,10.1,10.1,0,0,1,1.315.293v2.118h-.745l-.2-1.212-.188-.24a3.624,3.624,0,0,0-.753-.261,3.41,3.41,0,0,0-.765-.086,3.056,3.056,0,0,0-2.434,1.024,4.132,4.132,0,0,0-.889,2.808,4.391,4.391,0,0,0,.922,2.948,3.125,3.125,0,0,0,2.506,1.079,5.272,5.272,0,0,0,.648-.042,5.921,5.921,0,0,0,.714-.134v-2.775l-.228-.182-.944-.066Z" transform="translate(-475.793 -462.31)"/><path class="a" d="M579.085,462.582h3.239v.535l-.828.078-.228.189v3.147h4.594v-3.147l-.228-.189-.827-.078v-.535h3.244v.535l-.762.078-.228.189v7.35l.228.189.762.065v.547h-3.244v-.547l.827-.065.228-.189v-3.59h-4.594v3.59l.228.189.828.065v.547h-3.239v-.547l.756-.065.228-.189v-7.35l-.228-.189-.756-.078Z" transform="translate(-479.024 -462.354)"/><path class="a" d="M594.737,462.582h7.539v2.052h-.736l-.182-1.237-.189-.2h-2.039v7.539l.221.189.9.065v.547h-3.486v-.547l.893-.065.228-.189v-7.539h-2.04l-.188.2-.189,1.237h-.73Z" transform="translate(-482.389 -462.354)"/><path class="a" d="M607.648,471.979a.806.806,0,0,1,.6.247.828.828,0,0,1,.244.605.807.807,0,0,1-.247.6.815.815,0,0,1-.593.245.837.837,0,0,1-.606-.242.8.8,0,0,1-.247-.6.85.85,0,0,1,.853-.853Z" transform="translate(-484.982 -464.375)"/><path class="a" d="M622.127,462.44h.88l3.2,8.355.8.163v.547h-3.03v-.547l.827-.065.1-.189-.964-2.547h-3.147l-.951,2.547.137.189.867.065v.547H618.23v-.547l.769-.163Zm.209,1.4-1.316,3.7h2.691Z" transform="translate(-487.44 -462.324)"/><path class="a" d="M640.631,471.184a8.733,8.733,0,0,1-1.342.349,7.713,7.713,0,0,1-1.349.12,5.264,5.264,0,0,1-1.232-.137,4.117,4.117,0,0,1-1.042-.4,4.419,4.419,0,0,1-1.691-1.711,4.828,4.828,0,0,1-.616-2.4,4.377,4.377,0,0,1,4.633-4.633,7.408,7.408,0,0,1,1.261.115,10.228,10.228,0,0,1,1.378.342v2.052h-.743l-.2-1.212-.176-.24a3.81,3.81,0,0,0-.749-.261,3.236,3.236,0,0,0-.743-.086,3,3,0,0,0-2.4,1.03,4.149,4.149,0,0,0-.886,2.8,4.374,4.374,0,0,0,.925,2.956,3.2,3.2,0,0,0,2.561,1.072,3.964,3.964,0,0,0,.576-.042,3.66,3.66,0,0,0,.583-.134l.209-.208.326-1.486h.717Z" transform="translate(-490.693 -462.31)"/><path class="a" d="M647.044,462.582h7.539v2.052h-.736l-.182-1.237-.189-.2h-2.039v7.539l.221.189.9.065v.547H649.07v-.547l.893-.065.228-.189v-7.539h-2.039l-.189.2-.188,1.237h-.73Z" transform="translate(-493.635 -462.354)"/><path class="a" d="M660.919,471.535v-.547l.854-.065.228-.189v-7.35l-.228-.189-.854-.078v-.535h3.389v.535l-.854.078-.228.189v7.35l.228.189.854.065v.547Z" transform="translate(-496.618 -462.354)"/><path class="a" d="M674.278,462.292a4.255,4.255,0,0,1,1.59.293,4.1,4.1,0,0,1,1.342.88,4.328,4.328,0,0,1,1.027,1.55,5.386,5.386,0,0,1,.349,1.974,5.61,5.61,0,0,1-.169,1.4,4.864,4.864,0,0,1-.508,1.237,4.066,4.066,0,0,1-1.525,1.515,4.186,4.186,0,0,1-2.1.544,4.384,4.384,0,0,1-1.606-.293,3.975,3.975,0,0,1-1.333-.854,4.323,4.323,0,0,1-1.026-1.557,5.864,5.864,0,0,1,0-3.974,4.269,4.269,0,0,1,1.017-1.544,4.1,4.1,0,0,1,1.346-.877A4.306,4.306,0,0,1,674.278,462.292Zm0,.723a2.519,2.519,0,0,0-2.134,1.072,5.706,5.706,0,0,0,.007,5.81,2.615,2.615,0,0,0,4.238,0,5.685,5.685,0,0,0,0-5.8A2.5,2.5,0,0,0,674.278,463.015Z" transform="translate(-498.563 -462.292)"/><path class="a" d="M685.539,471.535v-.547l.814-.1.242-.254v-7.246l-.242-.189-.853-.078v-.535h2.509v.332l4.555,6.836v-6.275l-.241-.242-.8-.117v-.535h2.8v.535l-.8.117-.241.242v8.06H692.4l-5.083-7.578v6.673l.241.254.8.1v.547Z" transform="translate(-501.903 -462.354)"/></g></g></svg>