<svg xmlns="http://www.w3.org/2000/svg" width="265" height="259.614" viewBox="0 0 265 259.614"><defs><style>.a{fill:#fff;}.b{fill:#6c3;}.c{fill:#333;}</style></defs><g transform="translate(-978 -1353)"><rect class="a" width="265" height="259.614" transform="translate(978 1353)"/><g transform="translate(1013.592 1446.224)"><g transform="translate(0 0)"><path class="b" d="M36.106,72.2a36.108,36.108,0,1,1,36.1-36.094c0,.777-.027,1.566-.075,2.343L66.59,38.1c.041-.654.061-1.328.061-1.99a30.527,30.527,0,1,0-3.814,14.8L67.694,53.6A36.06,36.06,0,0,1,36.106,72.2Z" transform="translate(0.01 0.007)"/></g><path class="c" d="M276.7,357.16a9.336,9.336,0,0,1,2.3,6.649v14.758H273.2V365.491a5.466,5.466,0,0,0-1.39-3.958,5.031,5.031,0,0,0-3.781-1.437,5.682,5.682,0,0,0-4.353,1.99,7.184,7.184,0,0,0-1.616,4.816v11.67h-5.79V365.491a5.516,5.516,0,0,0-1.369-3.958,4.955,4.955,0,0,0-3.753-1.437,5.716,5.716,0,0,0-4.394,1.99,7.184,7.184,0,0,0-1.616,4.816v11.67H239.4V354.927h5.743V359.3q2.34-4.506,8.311-4.6a8.763,8.763,0,0,1,5.191,1.478,7.756,7.756,0,0,1,2.937,4.176q2.262-5.569,8.795-5.654A8.28,8.28,0,0,1,276.7,357.16Z" transform="translate(-223.081 -330.529)"/><circle class="c" cx="2.779" cy="2.779" r="2.779" transform="translate(65.273 42.49)"/><g transform="translate(88.209 20.35)"><path class="c" d="M1318.1,300.532a5.872,5.872,0,0,1,1.444,4.176v9.264h-3.631v-8.209a3.418,3.418,0,0,0-.871-2.478,3.154,3.154,0,0,0-2.37-.9,3.589,3.589,0,0,0-2.732,1.246,4.524,4.524,0,0,0-1.015,3.025v7.325h-3.631v-8.216a3.441,3.441,0,0,0-.862-2.478,3.11,3.11,0,0,0-2.357-.9,3.614,3.614,0,0,0-2.759,1.246,4.525,4.525,0,0,0-1.015,3.025v7.325h-3.6V299.143h3.6v2.746a5.455,5.455,0,0,1,5.218-2.882,5.551,5.551,0,0,1,3.256.926,4.875,4.875,0,0,1,1.847,2.623,5.487,5.487,0,0,1,5.517-3.55,5.148,5.148,0,0,1,3.956,1.525Z" transform="translate(-1294.7 -298.973)"/><path class="c" d="M1711.573,301.515a8.3,8.3,0,0,1,1.791,5.688c0,.484-.006.845-.027,1.083h-10.954a4.131,4.131,0,0,0,4.244,3.379,5.678,5.678,0,0,0,2.18-.431,5.278,5.278,0,0,0,1.818-1.233l1.939,2.023a7.565,7.565,0,0,1-2.7,1.887,9.108,9.108,0,0,1-3.535.668,8.247,8.247,0,0,1-4.006-.94,6.557,6.557,0,0,1-2.677-2.65,8.6,8.6,0,0,1,.021-7.864,6.835,6.835,0,0,1,2.677-2.677,7.878,7.878,0,0,1,3.91-.953,6.663,6.663,0,0,1,5.323,2.021Zm-1.508,4.353a3.577,3.577,0,0,0-1.083-2.609,3.8,3.8,0,0,0-2.718-.97,3.846,3.846,0,0,0-2.65.953,4.2,4.2,0,0,0-1.314,2.623h7.766Z" transform="translate(-1671.178 -299.439)"/><path class="c" d="M1965.145,299.691a5.98,5.98,0,0,1,3.016-.791v3.495a4.9,4.9,0,0,0-3.679,1.07,4.132,4.132,0,0,0-1.376,3.257v7.159H1959.5V299.043h3.6V301.9a5.391,5.391,0,0,1,2.041-2.207Z" transform="translate(-1914.212 -298.88)"/><path class="c" d="M2107.051,301.882a7.24,7.24,0,0,0-2.125-.361,2.874,2.874,0,0,0-1.458.323,1.059,1.059,0,0,0-.538.988,1.167,1.167,0,0,0,.682,1.07,10.832,10.832,0,0,0,2.154.791,21.664,21.664,0,0,1,2.555.926,4.693,4.693,0,0,1,1.73,1.363,3.625,3.625,0,0,1,.736,2.37,3.819,3.819,0,0,1-1.662,3.331,7.139,7.139,0,0,1-4.189,1.164,10.827,10.827,0,0,1-3.357-.539,7.862,7.862,0,0,1-2.773-1.539l1.246-2.527a7.4,7.4,0,0,0,2.384,1.349,7.911,7.911,0,0,0,2.636.484,3.143,3.143,0,0,0,1.594-.347,1.138,1.138,0,0,0,.6-1.043,1.256,1.256,0,0,0-.695-1.164,12.263,12.263,0,0,0-2.248-.862,18.509,18.509,0,0,1-2.439-.872,4.455,4.455,0,0,1-1.635-1.3,3.557,3.557,0,0,1-.695-2.289,3.878,3.878,0,0,1,1.594-3.345,6.652,6.652,0,0,1,4.006-1.151,10.269,10.269,0,0,1,2.9.416,9.156,9.156,0,0,1,2.541,1.164l-1.3,2.609a10.262,10.262,0,0,0-2.243-1.007Z" transform="translate(-2044.022 -298.694)"/><path class="c" d="M2319.9,301h3.6v14.844h-3.6Z" transform="translate(-2250.061 -300.838)"/><path class="c" d="M2405,301.027l3.77-.027,3.878,11.288L2416.462,301h3.631l-5.661,14.844h-3.723Z" transform="translate(-2329.363 -300.838)"/><path class="c" d="M2642.473,301.515a8.3,8.3,0,0,1,1.792,5.688c0,.484-.007.845-.027,1.083h-10.955a4.132,4.132,0,0,0,4.244,3.379,5.678,5.678,0,0,0,2.18-.431,5.276,5.276,0,0,0,1.818-1.233l1.939,2.023a7.565,7.565,0,0,1-2.705,1.887,9.109,9.109,0,0,1-3.535.668,8.245,8.245,0,0,1-4.005-.94,6.558,6.558,0,0,1-2.677-2.65,8.6,8.6,0,0,1,.02-7.864,6.84,6.84,0,0,1,2.677-2.677,7.877,7.877,0,0,1,3.91-.953,6.672,6.672,0,0,1,5.323,2.021Zm-1.508,4.353a3.576,3.576,0,0,0-1.082-2.609,3.8,3.8,0,0,0-2.719-.969,3.847,3.847,0,0,0-2.65.953,4.2,4.2,0,0,0-1.315,2.623h7.766Z" transform="translate(-2538.663 -299.439)"/></g><g transform="translate(88.198 37.816)"><path class="c" d="M1298.866,582.365a2.873,2.873,0,0,1-1.539.518,1.647,1.647,0,0,1-1.26-.49,2.047,2.047,0,0,1-.463-1.472v-4.144h-.994l-.014-.688h1.008V574.3h.892v1.792l2.262-.014v.7H1296.5v4c0,.862.323,1.293.953,1.293a2.261,2.261,0,0,0,1.158-.375Z" transform="translate(-1294.595 -572.985)"/><path class="c" d="M1374.6,598.31a3.959,3.959,0,0,1,.783,2.773h-5.8a2.654,2.654,0,0,0,.824,1.8,2.533,2.533,0,0,0,1.806.681,3.209,3.209,0,0,0,1.233-.238,2.834,2.834,0,0,0,.982-.674l.5.5a3.475,3.475,0,0,1-1.213.845,4.029,4.029,0,0,1-1.56.3,3.584,3.584,0,0,1-1.791-.443,3.158,3.158,0,0,1-1.226-1.24,3.635,3.635,0,0,1-.443-1.818,3.7,3.7,0,0,1,.443-1.812,3.176,3.176,0,0,1,1.226-1.246,3.483,3.483,0,0,1,1.765-.443A2.986,2.986,0,0,1,1374.6,598.31Zm-.014,2.084a2.555,2.555,0,0,0-.722-1.73,2.36,2.36,0,0,0-1.724-.646,2.457,2.457,0,0,0-1.751.654,2.6,2.6,0,0,0-.811,1.73h5.007Z" transform="translate(-1363.647 -594.414)"/><path class="c" d="M1486.991,598.163a2.628,2.628,0,0,0-1.342.348,2.434,2.434,0,0,0-.933.961,2.909,2.909,0,0,0-.334,1.417,2.951,2.951,0,0,0,.334,1.424,2.323,2.323,0,0,0,.933.97,2.628,2.628,0,0,0,1.342.348,3.19,3.19,0,0,0,1.24-.238,2.467,2.467,0,0,0,.947-.688l.5.531a3.112,3.112,0,0,1-1.172.862,3.9,3.9,0,0,1-1.567.307,3.549,3.549,0,0,1-1.777-.443,3.173,3.173,0,0,1-1.226-1.246,3.643,3.643,0,0,1-.443-1.812,3.7,3.7,0,0,1,.443-1.812,3.173,3.173,0,0,1,1.226-1.246,3.514,3.514,0,0,1,1.777-.443,3.966,3.966,0,0,1,1.479.266,3.322,3.322,0,0,1,1.152.742l-.5.6a2.8,2.8,0,0,0-2.078-.847Z" transform="translate(-1470.627 -594.512)"/><path class="c" d="M1610.123,558.6a2.7,2.7,0,0,1,.709,1.989v4.278h-.906v-4.074a2.113,2.113,0,0,0-.545-1.539,2,2,0,0,0-1.508-.559,2.321,2.321,0,0,0-1.812.763,2.921,2.921,0,0,0-.66,1.99v3.413h-.892V555h.892v4.544a2.763,2.763,0,0,1,2.766-1.676,2.621,2.621,0,0,1,1.956.729Z" transform="translate(-1583.383 -555)"/><path class="c" d="M1737.8,597.92a2.7,2.7,0,0,1,.709,1.99v4.278h-.906v-4.078a2.113,2.113,0,0,0-.545-1.539,2,2,0,0,0-1.508-.559,2.363,2.363,0,0,0-1.724.668,2.735,2.735,0,0,0-.736,1.75v3.747h-.892v-6.962h.892v1.621a2.587,2.587,0,0,1,1.056-1.219,3.362,3.362,0,0,1,1.7-.422A2.585,2.585,0,0,1,1737.8,597.92Z" transform="translate(-1702.384 -594.324)"/><path class="c" d="M1854.711,597.64a3.206,3.206,0,0,1,1.246,1.24,3.605,3.605,0,0,1,.449,1.806,3.68,3.68,0,0,1-.449,1.826,3.14,3.14,0,0,1-1.246,1.246,3.6,3.6,0,0,1-1.806.443,3.672,3.672,0,0,1-1.805-.443,3.23,3.23,0,0,1-1.246-1.246,3.68,3.68,0,0,1-.449-1.826,3.6,3.6,0,0,1,.449-1.806,3.165,3.165,0,0,1,1.246-1.24,3.6,3.6,0,0,1,1.805-.443,3.529,3.529,0,0,1,1.806.443Zm-3.161.668a2.4,2.4,0,0,0-.933.97,2.949,2.949,0,0,0-.334,1.424,2.984,2.984,0,0,0,.334,1.437,2.325,2.325,0,0,0,.933.969,2.819,2.819,0,0,0,2.711,0,2.392,2.392,0,0,0,.926-.969,3.047,3.047,0,0,0,.334-1.437,2.952,2.952,0,0,0-.334-1.424,2.394,2.394,0,0,0-.927-.969A2.819,2.819,0,0,0,1851.55,598.308Z" transform="translate(-1811.6 -594.322)"/><path class="c" d="M1981,555h.892v9.858H1981Z" transform="translate(-1934.235 -555)"/><path class="c" d="M2028.11,597.64a3.2,3.2,0,0,1,1.246,1.24,3.6,3.6,0,0,1,.449,1.806,3.678,3.678,0,0,1-.449,1.826,3.134,3.134,0,0,1-1.246,1.246,3.6,3.6,0,0,1-1.805.443,3.675,3.675,0,0,1-1.806-.443,3.222,3.222,0,0,1-1.246-1.246,3.681,3.681,0,0,1-.449-1.826,3.6,3.6,0,0,1,.449-1.805,3.162,3.162,0,0,1,1.247-1.24,3.6,3.6,0,0,1,1.805-.443,3.529,3.529,0,0,1,1.806.443Zm-3.16.668a2.391,2.391,0,0,0-.927.97,2.948,2.948,0,0,0-.334,1.424,2.98,2.98,0,0,0,.334,1.437,2.35,2.35,0,0,0,.927.97,2.819,2.819,0,0,0,2.711,0,2.408,2.408,0,0,0,.933-.97,3.045,3.045,0,0,0,.334-1.437,2.948,2.948,0,0,0-.334-1.424,2.37,2.37,0,0,0-.933-.97A2.819,2.819,0,0,0,2024.95,598.308Z" transform="translate(-1973.188 -594.322)"/><path class="c" d="M2149.633,597.035v6.233a3.586,3.586,0,0,1-.422,1.764A2.9,2.9,0,0,1,2148,606.2a3.914,3.914,0,0,1-1.826.4,4.435,4.435,0,0,1-2.855-1.063l.423-.64a4.016,4.016,0,0,0,1.117.7,3.391,3.391,0,0,0,1.274.238,2.617,2.617,0,0,0,1.908-.695,2.486,2.486,0,0,0,.709-1.867v-1.131a2.735,2.735,0,0,1-1.063,1.144,3.082,3.082,0,0,1-1.593.408,3.191,3.191,0,0,1-1.656-.431,3,3,0,0,1-1.131-1.2,3.617,3.617,0,0,1-.4-1.73,3.683,3.683,0,0,1,.4-1.73,2.972,2.972,0,0,1,1.137-1.185A3.208,3.208,0,0,1,2146.1,597a3.059,3.059,0,0,1,1.581.4,2.851,2.851,0,0,1,1.063,1.152v-1.526h.885Zm-2.1,5.613a2.4,2.4,0,0,0,.892-.933,2.808,2.808,0,0,0,.323-1.342,2.861,2.861,0,0,0-.323-1.355,2.308,2.308,0,0,0-.892-.933,2.6,2.6,0,0,0-2.576,0,2.42,2.42,0,0,0-.9.933,2.96,2.96,0,0,0,0,2.7,2.45,2.45,0,0,0,.893.933,2.479,2.479,0,0,0,1.293.34,2.563,2.563,0,0,0,1.287-.349Z" transform="translate(-2085.105 -594.139)"/><path class="c" d="M2275.856,559.077a.617.617,0,0,1,.17.443.632.632,0,0,1-.177.449.609.609,0,0,1-.872,0,.646.646,0,0,1,0-.892.59.59,0,0,1,.443-.177.6.6,0,0,1,.436.177Zm-.893,2.453h.893v6.958h-.893Z" transform="translate(-2208.021 -558.634)"/><path class="c" d="M2323.5,598.31a3.959,3.959,0,0,1,.783,2.773h-5.8a2.656,2.656,0,0,0,.824,1.8,2.533,2.533,0,0,0,1.805.681,3.206,3.206,0,0,0,1.233-.238,2.838,2.838,0,0,0,.981-.674l.5.5a3.471,3.471,0,0,1-1.213.845,4.032,4.032,0,0,1-1.56.3,3.586,3.586,0,0,1-1.792-.443,3.159,3.159,0,0,1-1.226-1.24,3.63,3.63,0,0,1-.442-1.818,3.7,3.7,0,0,1,.442-1.812,3.18,3.18,0,0,1,1.226-1.246,3.484,3.484,0,0,1,1.765-.443A2.986,2.986,0,0,1,2323.5,598.31Zm-.014,2.084a2.554,2.554,0,0,0-.721-1.73,2.36,2.36,0,0,0-1.724-.646,2.459,2.459,0,0,0-1.75.654,2.6,2.6,0,0,0-.812,1.73h5.007Z" transform="translate(-2247.905 -594.414)"/><path class="c" d="M2432.863,597.879a3.454,3.454,0,0,0-.969-.137,1.99,1.99,0,0,0-1.07.258.848.848,0,0,0-.4.777.823.823,0,0,0,.216.586,1.674,1.674,0,0,0,.545.368,8.007,8.007,0,0,0,.914.314,10.169,10.169,0,0,1,1.172.416,2.05,2.05,0,0,1,.77.6,1.587,1.587,0,0,1,.323,1.029,1.656,1.656,0,0,1-.715,1.445,3.053,3.053,0,0,1-1.792.5,4.268,4.268,0,0,1-1.465-.252,3.318,3.318,0,0,1-1.185-.715l.361-.64a3.526,3.526,0,0,0,2.323.892,2.048,2.048,0,0,0,1.152-.293.948.948,0,0,0,.443-.852.9.9,0,0,0-.224-.633,1.607,1.607,0,0,0-.565-.388,9.306,9.306,0,0,0-.933-.323,10.452,10.452,0,0,1-1.144-.408,2.058,2.058,0,0,1-.742-.58,1.515,1.515,0,0,1-.307-.988,1.562,1.562,0,0,1,.682-1.383,2.989,2.989,0,0,1,1.709-.463,4.354,4.354,0,0,1,1.158.157,3.892,3.892,0,0,1,.994.431l-.348.674A3.809,3.809,0,0,0,2432.863,597.879Z" transform="translate(-2351.902 -594.139)"/><path class="c" d="M2582.956,559.077a.611.611,0,0,1,.17.443.632.632,0,0,1-.178.449.609.609,0,0,1-.872,0,.646.646,0,0,1,0-.892.633.633,0,0,1,.879,0Zm-.893,2.453h.893v6.958h-.893Z" transform="translate(-2494.199 -558.634)"/><path class="c" d="M2640.9,597.92a2.7,2.7,0,0,1,.708,1.99v4.278h-.906v-4.078a2.115,2.115,0,0,0-.545-1.539,2,2,0,0,0-1.508-.559,2.362,2.362,0,0,0-1.724.668,2.739,2.739,0,0,0-.736,1.75v3.747h-.892v-6.962h.892v1.621a2.588,2.588,0,0,1,1.056-1.219,3.361,3.361,0,0,1,1.7-.422,2.585,2.585,0,0,1,1.959.727Z" transform="translate(-2543.963 -594.324)"/><path class="c" d="M2755.691,598.163a2.627,2.627,0,0,0-1.342.348,2.434,2.434,0,0,0-.933.961,2.91,2.91,0,0,0-.334,1.417,2.951,2.951,0,0,0,.334,1.424,2.328,2.328,0,0,0,.933.969,2.61,2.61,0,0,0,1.343.348,3.189,3.189,0,0,0,1.24-.238,2.467,2.467,0,0,0,.947-.688l.5.531a3.114,3.114,0,0,1-1.171.862,3.9,3.9,0,0,1-1.568.307,3.549,3.549,0,0,1-1.778-.443,3.171,3.171,0,0,1-1.226-1.246,3.646,3.646,0,0,1-.442-1.812,3.7,3.7,0,0,1,.442-1.812,3.177,3.177,0,0,1,1.226-1.246,3.516,3.516,0,0,1,1.778-.443,3.962,3.962,0,0,1,1.478.266,3.32,3.32,0,0,1,1.152.742l-.5.6A2.8,2.8,0,0,0,2755.691,598.163Z" transform="translate(-2652.899 -594.512)"/></g></g></g></svg>