<svg xmlns="http://www.w3.org/2000/svg" xmlns:xlink="http://www.w3.org/1999/xlink" width="265" height="259.614" viewBox="0 0 265 259.614"><defs><style>.a{fill:#fff;}.b{fill:#e9e9ec;}.c{fill:#2a527e;}.d{fill:#3f5f53;}.e{fill:url(#a);}.f{fill:url(#b);}.g{fill:url(#c);}</style><linearGradient id="a" x1="-1.635" y1="10.095" x2="1.116" y2="10.095" gradientUnits="objectBoundingBox"><stop offset="0.005" stop-color="#8f9c95"/><stop offset="0.532" stop-color="#657a6f"/><stop offset="1" stop-color="#3f5f53"/></linearGradient><linearGradient id="b" x1="-1.219" y1="10.418" x2="1.535" y2="10.418" gradientUnits="objectBoundingBox"><stop offset="0.005" stop-color="#8591b0"/><stop offset="0.449" stop-color="#607398"/><stop offset="1" stop-color="#2a527e"/></linearGradient><linearGradient id="c" x1="-18.597" y1="22.604" x2="-15.798" y2="22.604" xlink:href="#a"/></defs><g transform="translate(-1280 -1353)"><rect class="a" width="265" height="259.614" transform="translate(1280 1353)"/><g transform="translate(1345.158 1441.045)"><path class="b" d="M8.815,82.559c1.616-1.965,3.3-3.79,5.123-5.615-2.737-13.476-2.456-31.3-1.264-41.689C33.239,34.133,48.891,28.448,48.891,21.5c0-7.721-19.512-13.9-43.656-13.9H3.2c.351.842.631,1.685.912,2.527H5.165c19.021,0,34.392,5.118,34.392,11.366,0,5.826-13.055,10.6-29.97,11.3C7.271,44.518,5.165,68.1,8.815,82.559Z" transform="translate(-0.954 -2.265)"/><path class="b" d="M16.7,71.17c-3.088-10.949-3.016-26.881-2.035-35.3,23.022-1.616,40.289-8.352,40.289-16.494C54.886,9.967,32.286,2.386,4.281,2.386H1.049L0,.07C1.4,0,2.877,0,4.281,0,37.69,0,64.714,8.633,64.714,19.3c0,9.194-20.284,16.985-47.377,18.881a117.5,117.5,0,0,0,4,29.127C20.073,68.221,18.46,69.626,16.7,71.17Z"/><path class="b" d="M23.942,28.049l4.983,2.456L26.68,25.452l3.861-4L25,21.943,22.4,17.1l-1.194,5.4-5.4.982,4.773,2.807-.772,5.4Z" transform="translate(-4.711 -5.099)"/><path class="b" d="M38.214,78.291A108.479,108.479,0,0,1,32.181,57.8c.7-.07-2.246.281-2.877.281.561,7.721,1.825,16.635,4.281,23.653a37.609,37.609,0,0,1,4.629-3.44Z" transform="translate(-8.735 -17.228)"/><path class="b" d="M55.958,76.257h.631a2.216,2.216,0,0,1,1.334.491,1.543,1.543,0,0,1,.561,1.264c0,.912-.491,1.474-1.616,1.616a4,4,0,0,1-.912.07h-.7v-3.37h.7ZM52.8,73.8V87.136h2.456V82.012H56.1a5.094,5.094,0,0,0,3.369-1.052,4.152,4.152,0,0,0,1.4-3.158,3.9,3.9,0,0,0-1.4-3.088,5.278,5.278,0,0,0-3.3-.912Z" transform="translate(-15.741 -22.003)"/><path class="b" d="M83.927,73.8,86.1,82.5h0l2.316-8.7H90.1l2.316,8.844h0L94.666,73.8h2.526L93.4,87.135H91.367l-2.1-8.488h0l-2.035,8.493H85.19L81.4,73.8Z" transform="translate(-24.268 -22.002)"/><path class="b" d="M123.375,82.082a9.034,9.034,0,0,0,1.544-.421,2.755,2.755,0,0,0,1.264-1.264,3.97,3.97,0,0,0,.561-2.246,4.353,4.353,0,0,0-.912-2.807,3.821,3.821,0,0,0-2.527-1.4,16.59,16.59,0,0,0-2.106-.14h-3.3V87.135h2.456V82.287h0V80.111h0V76.186h1.961a2.307,2.307,0,0,1,1.4.561,1.767,1.767,0,0,1,.631,1.4c0,1.264-1.052,1.965-3.016,1.965h-.561v1.755h0v.281a20.067,20.067,0,0,0,4.848,5.053c.491.351,1.052.7,1.616,1.052l.421-2.456A17.386,17.386,0,0,1,123.375,82.082Z" transform="translate(-35.149 -22.002)"/><path class="b" d="M76.058,76.94a6.626,6.626,0,0,0-2.035-2.527,4.632,4.632,0,0,0-2.807-.912,5.328,5.328,0,0,0-2.807.912,6.626,6.626,0,0,0-2.035,2.527,8.463,8.463,0,0,0-.772,3.44,7.659,7.659,0,0,0,1.616,4.913,4.914,4.914,0,0,0,3.931,1.965,4.991,4.991,0,0,0,3.932-2.036A7.4,7.4,0,0,0,76.7,80.308,7.04,7.04,0,0,0,76.058,76.94Zm-2.527,6.6a3.083,3.083,0,0,1-2.246,1.334,2.812,2.812,0,0,1-1.616-.561,4.615,4.615,0,0,1-1.194-1.616,6.079,6.079,0,0,1-.421-2.246,4.727,4.727,0,0,1,.982-3.158,2.893,2.893,0,0,1,2.316-1.334,2.724,2.724,0,0,1,2.316,1.334,5.133,5.133,0,0,1,.98,3.158,7.065,7.065,0,0,1-1.117,3.088Z" transform="translate(-19.557 -21.912)"/><path class="b" d="M107.886,76.256h4.492V73.8H105.5V87.135h6.878V84.749h-4.492V83.485h0V81.731h4.492V79.275h-4.492V76.258Z" transform="translate(-31.453 -22.002)"/><path class="b" d="M37.611,99.916h.912c1.334,0,2.106.491,2.106,1.544a2.693,2.693,0,0,1-.351,1.334,1.64,1.64,0,0,1-1.122.7,4.648,4.648,0,0,1-1.052.07h-.982ZM33.4,111.006h2.456l.842-5.193h.842a14.4,14.4,0,0,0,2.176-.14,4.217,4.217,0,0,0,1.965-.912,3.959,3.959,0,0,0,1.4-3.368,3.463,3.463,0,0,0-3.3-3.65,17.39,17.39,0,0,0-2.035-.14H35.576Z" transform="translate(-9.957 -29.097)"/><path class="b" d="M78.651,97.7h9.405l-.351,2.246H84.333l-1.755,11.089H80.122l1.755-11.089H78.3Z" transform="translate(-23.344 -29.127)"/><path class="b" d="M92.846,97.7h3.232l3.3,10.107L100.92,97.7h2.456l-2.111,13.335h-3.3L94.671,101h0l-1.616,10.037H90.6Z" transform="translate(-27.011 -29.127)"/><path class="b" d="M138.127,106.806c0,.281-.07.491-.07.7a1.332,1.332,0,0,0,.561,1.052,1.771,1.771,0,0,0,1.194.421,1.446,1.446,0,0,0,1.194-.491,1.483,1.483,0,0,0,.421-1.194,1.969,1.969,0,0,0-1.122-1.616l-.912-.631a6.052,6.052,0,0,1-1.264-.982,3.356,3.356,0,0,1-1.264-2.667,3.728,3.728,0,0,1,.421-1.895A3.585,3.585,0,0,1,140.8,97.4a4.525,4.525,0,0,1,1.4.215,3.2,3.2,0,0,1,1.544,1.194,3.03,3.03,0,0,1,.631,1.825,4.029,4.029,0,0,1-.07.842h-2.453a1.743,1.743,0,0,0,.07-.561A1.236,1.236,0,0,0,141.5,100a1.335,1.335,0,0,0-.912-.351,1.177,1.177,0,0,0-.982.421.969.969,0,0,0-.351.912c0,.561.421,1.052,1.123,1.616l.912.631a14.824,14.824,0,0,1,1.334,1.052,3.811,3.811,0,0,1,1.194,2.737,4.633,4.633,0,0,1-.561,2.246,4.138,4.138,0,0,1-1.685,1.616,4.273,4.273,0,0,1-1.965.421,4.036,4.036,0,0,1-2.737-.912,3.4,3.4,0,0,1-1.264-2.527v-.912h2.527Z" transform="translate(-40.426 -29.038)"/><path class="b" d="M68.987,105.912a2.631,2.631,0,0,0,.772-.07,3.211,3.211,0,0,0,2.527-1.474,4.227,4.227,0,0,0,.842-2.877,3.725,3.725,0,0,0-4-3.72c-.421,0-.912-.07-1.4-.07H64.776L62.6,111.035h2.456l1.825-11.089h.912a5.023,5.023,0,0,1,1.825.215,1.623,1.623,0,0,1,.982,1.474,2.052,2.052,0,0,1-.842,1.895,3.51,3.51,0,0,1-2.035.421H66.6l-.351,2.036a14.664,14.664,0,0,0,4,5.053c.491.351.912.7,1.474,1.052l1.334-2.106a14.041,14.041,0,0,1-4.071-4.075Z" transform="translate(-18.663 -29.127)"/><path class="b" d="M126.987,105.912a2.631,2.631,0,0,0,.772-.07,3.211,3.211,0,0,0,2.527-1.474,4.227,4.227,0,0,0,.842-2.877,3.725,3.725,0,0,0-4-3.72c-.421,0-.912-.07-1.4-.07h-2.952L120.6,111.036h2.456l1.825-11.089h.912a5.023,5.023,0,0,1,1.825.215,1.623,1.623,0,0,1,.982,1.474,2.218,2.218,0,0,1-.842,1.895,3.51,3.51,0,0,1-2.035.421H124.6l-.351,2.036a15.562,15.562,0,0,0,4,5.053l1.474,1.052,1.334-2.106a14.041,14.041,0,0,1-4.071-4.076Z" transform="translate(-35.954 -29.127)"/><path class="b" d="M53.327,97.7H50.31L43.5,111.035h2.667L51.5,100.3l.982,4.7H49.677l-1.122,2.316h4.352l.772,3.72h2.527Z" transform="translate(-12.969 -29.127)"/><path class="b" d="M117.133,99.946l.351-2.246h-6.808L108.5,111.035h6.948l.351-2.246h-4.492l.215-1.122h0l.351-2.246h4.417l.351-2.246h-4.417l.561-3.232Z" transform="translate(-32.347 -29.127)"/><path class="b" d="M157.525,100.5h1.895l-1.825,11.37H155.7Z" transform="translate(-46.419 -29.962)"/><path class="b" d="M162.955,100.5h2.176l2.947,8.282h0l1.334-8.282h1.895l-1.825,11.37h-2.106l-2.947-8.282h0l-1.334,8.282H161.2Z" transform="translate(-48.058 -29.962)"/><path class="b" d="M185.954,108.593a6.248,6.248,0,0,1-5.264,3.369c-2.948,0-4.913-2.737-4.417-5.966.491-3.158,3.3-5.9,6.248-5.9a4.3,4.3,0,0,1,4.281,3.51h-2.176a2.845,2.845,0,0,0-2.527-1.544A4.524,4.524,0,0,0,178.167,106c-.351,2.106.982,4,2.807,4a4.116,4.116,0,0,0,2.807-1.4Z" transform="translate(-52.528 -29.843)"/><path class="b" d="M191.365,114.3H189.68l-.281,1.685h1.755Z" transform="translate(-56.466 -34.076)"/><path class="b" d="M149.227,114.3h-1.685l-.842,3.3h1.264Z" transform="translate(-43.736 -34.076)"/><g transform="translate(37.059 51.588)"><path class="c" d="M55.958,76.257h.631a2.216,2.216,0,0,1,1.334.491,1.543,1.543,0,0,1,.561,1.264c0,.912-.491,1.474-1.616,1.616a4,4,0,0,1-.912.07h-.7v-3.37h.7ZM52.8,73.8V87.136h2.456V82.012H56.1a5.094,5.094,0,0,0,3.369-1.052,4.152,4.152,0,0,0,1.4-3.158,3.9,3.9,0,0,0-1.4-3.088,5.278,5.278,0,0,0-3.3-.912Z" transform="translate(-52.8 -73.59)"/><path class="c" d="M83.927,73.8,86.1,82.5h0l2.316-8.7H90.1l2.316,8.844h0L94.666,73.8h2.526L93.4,87.135H91.367l-2.1-8.488h0l-2.035,8.493H85.19L81.4,73.8Z" transform="translate(-61.327 -73.59)"/><path class="c" d="M123.375,82.082a9.034,9.034,0,0,0,1.544-.421,2.755,2.755,0,0,0,1.264-1.264,3.97,3.97,0,0,0,.561-2.246,4.353,4.353,0,0,0-.912-2.807,3.821,3.821,0,0,0-2.527-1.4,16.59,16.59,0,0,0-2.106-.14h-3.3V87.135h2.456V82.287h0V80.111h0V76.186h1.961a2.307,2.307,0,0,1,1.4.561,1.767,1.767,0,0,1,.631,1.4c0,1.264-1.052,1.965-3.016,1.965h-.561v1.755h0v.281a20.067,20.067,0,0,0,4.848,5.053c.491.351,1.052.7,1.616,1.052l.421-2.456A17.386,17.386,0,0,1,123.375,82.082Z" transform="translate(-72.208 -73.589)"/><path class="c" d="M76.058,76.94a6.626,6.626,0,0,0-2.035-2.527,4.632,4.632,0,0,0-2.807-.912,5.328,5.328,0,0,0-2.807.912,6.626,6.626,0,0,0-2.035,2.527,8.463,8.463,0,0,0-.772,3.44,7.659,7.659,0,0,0,1.616,4.913,4.914,4.914,0,0,0,3.931,1.965,4.991,4.991,0,0,0,3.932-2.036A7.4,7.4,0,0,0,76.7,80.308,7.04,7.04,0,0,0,76.058,76.94Zm-2.527,6.6a3.083,3.083,0,0,1-2.246,1.334,2.812,2.812,0,0,1-1.616-.561,4.615,4.615,0,0,1-1.194-1.616,6.079,6.079,0,0,1-.421-2.246,4.727,4.727,0,0,1,.982-3.158,2.893,2.893,0,0,1,2.316-1.334,2.724,2.724,0,0,1,2.316,1.334,5.133,5.133,0,0,1,.98,3.158,7.065,7.065,0,0,1-1.117,3.088Z" transform="translate(-56.616 -73.5)"/><path class="c" d="M107.886,76.256h4.492V73.8H105.5V87.135h6.878V84.749h-4.492V83.485h0V81.731h4.492V79.275h-4.492V76.258Z" transform="translate(-68.511 -73.59)"/></g><g transform="translate(109.281 70.257)"><path class="c" d="M157.525,100.5h1.895l-1.825,11.37H155.7Z" transform="translate(-155.7 -100.219)"/><path class="c" d="M162.955,100.5h2.176l2.947,8.282h0l1.334-8.282h1.895l-1.825,11.37h-2.106l-2.947-8.282h0l-1.334,8.282H161.2Z" transform="translate(-157.339 -100.219)"/><path class="c" d="M185.954,108.593a6.248,6.248,0,0,1-5.264,3.369c-2.948,0-4.913-2.737-4.417-5.966.491-3.158,3.3-5.9,6.248-5.9a4.3,4.3,0,0,1,4.281,3.51h-2.176a2.845,2.845,0,0,0-2.527-1.544A4.524,4.524,0,0,0,178.167,106c-.351,2.106.982,4,2.807,4a4.116,4.116,0,0,0,2.807-1.4Z" transform="translate(-161.81 -100.1)"/><path class="c" d="M191.365,114.3H189.68l-.281,1.685h1.755Z" transform="translate(-165.747 -104.333)"/></g><g transform="translate(23.443 68.353)"><path class="d" d="M37.611,99.916h.912c1.334,0,2.106.491,2.106,1.544a2.693,2.693,0,0,1-.351,1.334,1.64,1.64,0,0,1-1.122.7,4.648,4.648,0,0,1-1.052.07h-.982ZM33.4,111.006h2.456l.842-5.193h.842a14.4,14.4,0,0,0,2.176-.14,4.217,4.217,0,0,0,1.965-.912,3.959,3.959,0,0,0,1.4-3.368,3.463,3.463,0,0,0-3.3-3.65,17.39,17.39,0,0,0-2.035-.14H35.576Z" transform="translate(-33.4 -97.451)"/><path class="d" d="M78.651,97.7h9.405l-.351,2.246H84.333l-1.755,11.089H80.122l1.755-11.089H78.3Z" transform="translate(-46.785 -97.481)"/><path class="d" d="M92.846,97.7h3.232l3.3,10.107L100.92,97.7h2.456l-2.111,13.335h-3.3L94.671,101h0l-1.616,10.037H90.6Z" transform="translate(-50.453 -97.481)"/><path class="d" d="M138.127,106.806c0,.281-.07.491-.07.7a1.332,1.332,0,0,0,.561,1.052,1.771,1.771,0,0,0,1.194.421,1.446,1.446,0,0,0,1.194-.491,1.483,1.483,0,0,0,.421-1.194,1.969,1.969,0,0,0-1.122-1.616l-.912-.631a6.052,6.052,0,0,1-1.264-.982,3.356,3.356,0,0,1-1.264-2.667,3.728,3.728,0,0,1,.421-1.895A3.585,3.585,0,0,1,140.8,97.4a4.525,4.525,0,0,1,1.4.215,3.2,3.2,0,0,1,1.544,1.194,3.03,3.03,0,0,1,.631,1.825,4.029,4.029,0,0,1-.07.842h-2.453a1.743,1.743,0,0,0,.07-.561A1.236,1.236,0,0,0,141.5,100a1.335,1.335,0,0,0-.912-.351,1.177,1.177,0,0,0-.982.421.969.969,0,0,0-.351.912c0,.561.421,1.052,1.123,1.616l.912.631a14.824,14.824,0,0,1,1.334,1.052,3.811,3.811,0,0,1,1.194,2.737,4.633,4.633,0,0,1-.561,2.246,4.138,4.138,0,0,1-1.685,1.616,4.273,4.273,0,0,1-1.965.421,4.036,4.036,0,0,1-2.737-.912,3.4,3.4,0,0,1-1.264-2.527v-.912h2.527Z" transform="translate(-63.869 -97.391)"/><path class="d" d="M68.987,105.912a2.631,2.631,0,0,0,.772-.07,3.211,3.211,0,0,0,2.527-1.474,4.227,4.227,0,0,0,.842-2.877,3.725,3.725,0,0,0-4-3.72c-.421,0-.912-.07-1.4-.07H64.776L62.6,111.035h2.456l1.825-11.089h.912a5.023,5.023,0,0,1,1.825.215,1.623,1.623,0,0,1,.982,1.474,2.052,2.052,0,0,1-.842,1.895,3.51,3.51,0,0,1-2.035.421H66.6l-.351,2.036a14.664,14.664,0,0,0,4,5.053c.491.351.912.7,1.474,1.052l1.334-2.106a14.041,14.041,0,0,1-4.071-4.075Z" transform="translate(-42.106 -97.481)"/><path class="d" d="M126.987,105.912a2.631,2.631,0,0,0,.772-.07,3.211,3.211,0,0,0,2.527-1.474,4.227,4.227,0,0,0,.842-2.877,3.725,3.725,0,0,0-4-3.72c-.421,0-.912-.07-1.4-.07h-2.952L120.6,111.036h2.456l1.825-11.089h.912a5.023,5.023,0,0,1,1.825.215,1.623,1.623,0,0,1,.982,1.474,2.218,2.218,0,0,1-.842,1.895,3.51,3.51,0,0,1-2.035.421H124.6l-.351,2.036a15.562,15.562,0,0,0,4,5.053l1.474,1.052,1.334-2.106a14.041,14.041,0,0,1-4.071-4.076Z" transform="translate(-59.397 -97.481)"/><path class="d" d="M53.327,97.7H50.31L43.5,111.035h2.667L51.5,100.3l.982,4.7H49.677l-1.122,2.316h4.352l.772,3.72h2.527Z" transform="translate(-36.411 -97.481)"/><path class="d" d="M117.133,99.946l.351-2.246h-6.808L108.5,111.035h6.948l.351-2.246h-4.492l.215-1.122h0l.351-2.246h4.417l.351-2.246h-4.417l.561-3.232Z" transform="translate(-55.79 -97.481)"/><path class="d" d="M149.227,114.3h-1.685l-.842,3.3h1.264Z" transform="translate(-67.178 -102.429)"/></g><path class="e" d="M8.815,82.589c1.616-1.965,3.3-3.79,5.123-5.615C11.2,63.5,11.482,45.671,12.68,35.354,33.244,34.231,48.9,28.546,48.9,21.6,48.9,13.877,29.384,7.7,5.24,7.7H3.2c.351.842.631,1.685.912,2.527H5.165c19.021,0,34.392,5.12,34.392,11.368,0,5.826-13.055,10.6-29.97,11.3C7.271,44.548,5.165,68.2,8.815,82.589Z" transform="translate(-0.954 -2.295)"/><path class="f" d="M16.7,71.17c-3.088-10.949-3.016-26.881-2.035-35.3,23.022-1.616,40.289-8.352,40.289-16.494C54.886,9.967,32.286,2.456,4.281,2.456H1.049C.7,1.685.351.842,0,.07,1.4.07,2.877,0,4.281,0,37.69,0,64.714,8.633,64.714,19.3c0,9.194-20.284,16.985-47.377,18.881a117.5,117.5,0,0,0,4,29.127C20.073,68.3,18.46,69.626,16.7,71.17Z"/><path class="c" d="M23.942,28.149l4.983,2.386L26.68,25.482l3.861-4L25,22.043l-2.6-4.848-1.194,5.334-5.4.982,4.773,2.807L19.8,31.794Z" transform="translate(-4.711 -5.128)"/><path class="g" d="M38.214,78.291A108.479,108.479,0,0,1,32.181,57.8c.7-.07-2.246.281-2.877.281.561,7.721,1.825,16.635,4.281,23.653a37.609,37.609,0,0,1,4.629-3.44Z" transform="translate(-8.735 -17.228)"/></g></g></svg>