<svg xmlns="http://www.w3.org/2000/svg" width="265" height="259.614" viewBox="0 0 265 259.614"><defs><style>.a{fill:#fff;}.b{fill:#cd3a3e;}</style></defs><g transform="translate(-375 -1643)"><rect class="a" width="265" height="259.614" transform="translate(375 1643)"/><g transform="translate(430.801 1704.618)"><path class="b" d="M121.3,117.464c-1.185-1.185-2.262-2.37-3.447-3.447-6.248-6.248-12.5-12.6-18.852-18.852a8.678,8.678,0,0,1,0-12.819l21.76-21.76,5.386-5.386c.108.108.323.215.431.323l5.494,5.494a8.648,8.648,0,0,1,.108,12.173c-3.663,3.77-7.433,7.433-11.1,11.2l-7.541,7.541a8.875,8.875,0,0,0-.108,12.6c.215.215.323.431.431.539L130.135,88.81c.646.646,1.077,1.185,1.616,1.724a30.526,30.526,0,0,1,2.585,2.693,8.733,8.733,0,0,1-.539,11.634c-4.093,4.2-8.295,8.295-12.388,12.388A.334.334,0,0,1,121.3,117.464Z" transform="translate(-42.986 -55.2)"/><path d="M67.052,152c-1.293,0-2.478-.108-3.663,0a1.59,1.59,0,0,1-1.724-.862c-1.293-1.939-2.693-3.878-3.986-5.709-.108-.108-.323-.323-.431-.323H51.217V152H46.8V128.3H56.818a12.2,12.2,0,0,1,5.817,1.4,7.4,7.4,0,0,1,3.878,5.494,8.573,8.573,0,0,1-.539,4.955,7.053,7.053,0,0,1-3.986,3.878c-.108.108-.215.108-.431.215ZM51.109,141.442H52.4a43.17,43.17,0,0,0,5.278-.108c2.154-.215,4.093-1.293,4.309-4.093.215-1.939-.431-3.77-2.37-4.524a6.3,6.3,0,0,0-2.37-.539c-2.047-.108-3.986-.108-6.033-.108H51C51.109,135.194,51.109,138.211,51.109,141.442Z" transform="translate(-46.8 -49.554)"/><path d="M126.617,148.337h13.358V152H122.2V128.3h17.236v3.663H126.617v6.14h11.419v3.663H126.617Z" transform="translate(-40.976 -49.554)"/><path d="M95.346,152H91.468a.955.955,0,0,1-1.077-.646c-.539-1.508-1.293-2.909-1.831-4.417a.591.591,0,0,0-.646-.431H77.033a.591.591,0,0,0-.646.431c-.646,1.616-1.293,3.232-2.047,4.74-.108.108-.215.323-.431.323H69.6c.431-.862.754-1.724,1.185-2.585l9.049-20.037c.323-.754.754-1.185,1.616-1.077a24.29,24.29,0,0,0,2.8,0,.5.5,0,0,1,.539.323c2.262,4.955,4.417,9.911,6.679,14.866,1.185,2.693,2.478,5.386,3.663,8.079C95.238,151.677,95.238,151.785,95.346,152ZM82.419,132.718c-1.508,3.555-2.909,6.894-4.417,10.341h8.833C85.328,139.612,83.927,136.165,82.419,132.718Z" transform="translate(-45.039 -49.555)"/><path d="M118.592,128.2c-.539,1.293-1.077,2.478-1.616,3.77-2.8,6.571-5.709,13.035-8.51,19.606a.591.591,0,0,1-.646.431H104.48a.721.721,0,0,1-.754-.431c-2.047-4.632-3.986-9.264-6.033-13.789-1.293-3.016-2.585-5.925-3.878-8.941-.108-.215-.108-.323-.215-.539h4.2c.431,0,.539.108.646.431,2.478,5.925,5.063,11.742,7.541,17.559a.334.334,0,0,0,.108.215c.108-.215.108-.323.215-.431,2.585-5.817,5.063-11.634,7.541-17.451.108-.215.215-.431.539-.431Z" transform="translate(-43.185 -49.562)"/><path d="M145.6,128.3h4.417v20.037H162.4v3.77H145.6Z" transform="translate(-39.169 -49.554)"/><path d="M183.8,148.229V152H167V128.3h4.417v20.037C175.51,148.229,179.6,148.229,183.8,148.229Z" transform="translate(-37.516 -49.554)"/><path d="M188.2,128.3h4.309V152H188.2Z" transform="translate(-35.879 -49.554)"/><path d="M140,167.578c-.754-.646-.646-.97.431-1.831v-.108a1.386,1.386,0,0,1-.108-2.478,3.479,3.479,0,0,1,3.232-.323.687.687,0,0,0,.646,0,12.637,12.637,0,0,1,1.185-.539.106.106,0,0,1,.108.108c-.108.323,0,.754-.215.97s-.646,0-.97,0a2.02,2.02,0,0,1-.431,1.724,3.293,3.293,0,0,1-2.154.754,1.833,1.833,0,0,0-.754.108c-.323.215-.323.431.108.539.539.108,1.185.215,1.724.323a1.531,1.531,0,0,1,.646.215,1.262,1.262,0,0,1,.431,2.262,4.875,4.875,0,0,1-4.524.862,1.111,1.111,0,0,1-.215-2.047A2.345,2.345,0,0,1,140,167.578Zm1.185,2.154a.106.106,0,0,0,.108.108,12.637,12.637,0,0,0,1.185-.539c.539-.431.431-.969-.215-1.185a5.681,5.681,0,0,0-1.293-.323c-.431-.108-.646,0-.754.323a.991.991,0,0,0-.108,1.077C140.327,169.733,140.758,169.733,141.189,169.733Zm1.616-5.817c-.108-.215-.215-.539-.431-.646s-.539,0-.754,0a1.193,1.193,0,0,0-.431,1.508.768.768,0,0,0,.646.323A1.1,1.1,0,0,0,142.8,163.916Z" transform="translate(-39.713 -46.928)"/><path d="M94.009,162.608c-.323,1.616-.539,3.124-.862,4.632h.646c.108.323.108.539-.215.539a5.681,5.681,0,0,1-1.293.323c-.539.108-.754-.215-.754-.754,0-.215.108-.539.108-.862a5.975,5.975,0,0,1-.646.862,1.77,1.77,0,0,1-1.724.754.857.857,0,0,1-.97-.97,14.87,14.87,0,0,1,.323-2.154l.323-1.293c.108-.323,0-.431-.323-.431-.108,0-.215-.108-.323-.215.108-.108.215-.215.323-.215l1.616-.323c.323,0,.431.108.323.431-.215,1.077-.431,2.154-.754,3.232,0,.215-.108.323-.108.539a4.666,4.666,0,0,0,.108.539,1.366,1.366,0,0,0,.646-.108,2.644,2.644,0,0,0,1.185-1.831,18.268,18.268,0,0,0,.431-2.37c0-.108.215-.215.323-.215A9.945,9.945,0,0,1,94.009,162.608Z" transform="translate(-43.595 -46.913)"/><path d="M117.408,168.1H115.9c.323-1.508.646-3.124.97-4.632a6.862,6.862,0,0,0-.754-.215c.215-.215.215-.431.431-.431l1.616-.323c.323,0,.431.108.323.431s-.108.646-.215,1.185c.323-.323.539-.646.754-.862a5.058,5.058,0,0,1,.97-.646c1.077-.323,1.724.215,1.508,1.293-.108.754-.323,1.4-.431,2.154a3.873,3.873,0,0,0-.215,1.185h.754c.108.323,0,.431-.215.539a4.1,4.1,0,0,1-1.077.323c-.754.108-.97-.215-.862-.97l.646-2.909c.108-.323.215-.646-.108-.862s-.646.108-.862.323a3.746,3.746,0,0,0-1.077,2.154A10.4,10.4,0,0,0,117.408,168.1Z" transform="translate(-41.463 -46.913)"/><path d="M150.908,168.1H149.4c.108-.646.215-1.293.323-1.831.215-.862.323-1.616.539-2.478.108-.215,0-.431-.323-.431a.232.232,0,0,1-.215-.215c0-.108,0-.215.108-.215a3.661,3.661,0,0,1,2.154-.323c-.108.539-.215.969-.323,1.4.431-.431.862-.754,1.293-1.185a.823.823,0,0,1,.539-.215c.969-.215,1.508.215,1.4,1.185a22.065,22.065,0,0,1-.539,2.585c-.108.323-.108.539-.215.862h.431c.108,0,.215.108.323.108a.4.4,0,0,1-.108.323,2.591,2.591,0,0,1-1.724.431.452.452,0,0,1-.323-.646l.646-2.909c0-.215.108-.431.108-.646,0-.539-.323-.646-.754-.323a3.137,3.137,0,0,0-1.293,1.939C151.339,166.267,151.124,167.236,150.908,168.1Z" transform="translate(-38.876 -46.909)"/><path d="M89.186,161.593c-.108-.215-.323-.323-.431-.539a.528.528,0,0,0-.97.108c-.215.539-.323,1.077-.539,1.724h1.185c.108.646,0,.754-.539.754h-.754c-.108.862-.323,1.831-.431,2.693a8.315,8.315,0,0,0-.215,1.616,3.088,3.088,0,0,1-2.693,2.693c0-.215,0-.431.108-.431a3.144,3.144,0,0,0,1.185-2.262l.646-4.2h-.754c-.215-.431.108-.539.323-.646.431-.108.539-.323.646-.754.431-1.939,1.724-2.262,3.555-1.939.108,0,.215.323.215.431a6.4,6.4,0,0,1-.431.862C89.294,161.485,89.186,161.485,89.186,161.593Z" transform="translate(-43.942 -47.083)"/><path d="M109.679,164.653a3.23,3.23,0,0,1-2.154,3.339,3.142,3.142,0,0,1-1.724.108,1.486,1.486,0,0,1-1.293-1.293c-.431-1.508.323-3.878,2.478-4.2a2.213,2.213,0,0,1,1.185,0C109.14,162.714,109.679,163.468,109.679,164.653Zm-3.878,1.508h0a1.171,1.171,0,0,1,.108.539.807.807,0,0,0,.539.862.87.87,0,0,0,.97-.431c.108-.108.108-.215.215-.323a5.8,5.8,0,0,0,.431-2.37c0-.646-.215-1.077-.646-1.185s-.862.215-1.077.754a.376.376,0,0,1-.108.215C106.124,164.868,105.909,165.514,105.8,166.161Z" transform="translate(-42.352 -46.911)"/><path d="M97.43,162.5a1.934,1.934,0,0,1,2.154,2.154,3.23,3.23,0,0,1-2.154,3.339,9.265,9.265,0,0,1-1.724.108,1.733,1.733,0,0,1-1.4-1.293C93.875,164.87,95.168,162.5,97.43,162.5Zm.646,2.154h0c-.108-.215,0-.539-.108-.754a1.374,1.374,0,0,0-.539-.754c-.323-.215-.646,0-.862.323a4.4,4.4,0,0,0-.646,3.447.712.712,0,0,0,1.293.323c.108-.215.323-.431.431-.646A12.525,12.525,0,0,1,98.076,164.654Z" transform="translate(-43.137 -46.913)"/><path d="M129.7,166.59c0,.215.108.431,0,.539a2.709,2.709,0,0,1-3.124.97,1.8,1.8,0,0,1-1.077-2.047,3.542,3.542,0,0,1,2.047-3.232,2.431,2.431,0,0,1,1.724-.215,1.093,1.093,0,0,1,.539,1.939,8.9,8.9,0,0,1-1.4.754,2.372,2.372,0,0,1-.862.108c-.431,0-.431.215-.539.539a1.181,1.181,0,0,0,1.831,1.185A3.778,3.778,0,0,0,129.7,166.59Zm-2.585-1.831.108.108a1.557,1.557,0,0,0,1.508-.646c.215-.323.323-.646,0-.862-.323-.323-.646-.108-.862.108C127.656,163.79,127.44,164.328,127.117,164.759Z" transform="translate(-40.723 -46.91)"/><path d="M146.217,165.509c-.108.646-.215,1.293.431,1.616.754.431,1.4,0,2.154-.539,0,.215.108.431,0,.539a2.709,2.709,0,0,1-3.124.97,1.764,1.764,0,0,1-1.077-1.616,3.632,3.632,0,0,1,2.047-3.663,2.649,2.649,0,0,1,1.831-.108,1.112,1.112,0,0,1,.539,1.939,2.872,2.872,0,0,1-1.508.754A6.182,6.182,0,0,0,146.217,165.509Zm0-.754.108.108a1.656,1.656,0,0,0,1.508-.646.8.8,0,0,0,0-.969.652.652,0,0,0-.862.108A8.9,8.9,0,0,1,146.217,164.755Z" transform="translate(-39.247 -46.906)"/><path d="M160.715,165.522c-.215.754-.108,1.4.431,1.616.754.431,1.4,0,2.047-.539.215.108.323.215.108.431a2.957,2.957,0,0,1-3.016.969,1.668,1.668,0,0,1-1.077-1.293,3.514,3.514,0,0,1,2.478-4.2,2.2,2.2,0,0,1,1.185,0,1.086,1.086,0,0,1,.539,1.939,6.581,6.581,0,0,1-1.508.754A3.819,3.819,0,0,1,160.715,165.522Zm0-.646a1.849,1.849,0,0,0,1.616-.646.8.8,0,0,0,0-.969.652.652,0,0,0-.862.108A3.979,3.979,0,0,0,160.715,164.876Z" transform="translate(-38.125 -46.918)"/><path d="M134.587,161.062a.814.814,0,0,0-.431-.108.215.215,0,1,1,0-.431c.539-.108,1.185-.215,1.831-.323.323,0,.431.108.323.431-.431,2.262-.862,4.524-1.293,6.679v.215h.646c.108.323,0,.431-.215.539a5.344,5.344,0,0,1-1.4.323c-.539,0-.754-.215-.646-.754.323-1.508.646-3.124.862-4.632Z" transform="translate(-40.113 -47.09)"/><path d="M131.916,167.425h.646c.108.323,0,.431-.215.539a5.681,5.681,0,0,1-1.293.323c-.539.108-.754-.215-.754-.754l.646-3.232c.215-1.077.431-2.154.646-3.339-.215,0-.323-.108-.539-.108a.215.215,0,0,1,0-.431c.646-.108,1.185-.215,1.831-.323.323,0,.431.108.323.431l-1.293,6.463C132.024,167.1,131.916,167.21,131.916,167.425Z" transform="translate(-40.351 -47.098)"/><path d="M80,161.071c-.215,0-.323-.108-.431-.108l-.323-.323c.108-.108.215-.215.323-.215.539-.108,1.077-.215,1.508-.323s.539.108.431.539c-.431,2.262-.862,4.417-1.293,6.679v.215h.646c.108.323,0,.431-.215.539a5.344,5.344,0,0,1-1.4.323c-.539,0-.754-.215-.646-.754a16.724,16.724,0,0,1,.431-2.262C79.464,163.98,79.679,162.58,80,161.071Z" transform="translate(-44.346 -47.1)"/><path d="M156.359,163.439h-.754c-.215-.431.108-.539.431-.646a.8.8,0,0,0,.646-.646.463.463,0,0,1,.431-.431c.323-.108.754-.108,1.077-.215a2.982,2.982,0,0,1-.108.969v.215h1.185c.108.646.108.754-.539.754-.862,0-.862,0-.97.862-.108.646-.323,1.4-.431,2.047-.215.969.108,1.293,1.077.969h.431c-.108.108-.108.323-.215.431a2.641,2.641,0,0,1-1.724.646c-.862,0-1.185-.323-1.077-1.185a12.708,12.708,0,0,1,.431-2.154A2.114,2.114,0,0,1,156.359,163.439Z" transform="translate(-38.402 -46.99)"/><path d="M125.118,167.118a1.073,1.073,0,0,0-.108.431,2.715,2.715,0,0,1-2.154.646c-.539-.108-.862-.431-.754-.97a23.821,23.821,0,0,1,.539-2.693c.108-.323.108-.754.215-1.185h-.646c-.215-.431.108-.646.323-.646.431-.108.539-.323.646-.754a.463.463,0,0,1,.431-.431c1.185-.431,1.185-.323.97.862v.215h1.077c.108.646,0,.754-.539.754-.862,0-.862,0-.97.754s-.323,1.4-.431,2.154c0,.323-.108.754.108.862a2.674,2.674,0,0,0,.97.108C124.795,167.334,124.9,167.226,125.118,167.118Z" transform="translate(-40.986 -47.006)"/><path d="M103.785,164.227c-.215-.323-.431-.539-.539-.754-.215-.323-.431-.323-.646-.108a1.916,1.916,0,0,0-.754.862,6.387,6.387,0,0,0-.431,1.831c-.108,1.185.754,1.616,1.724,1.077a2.253,2.253,0,0,0,.646-.431c.215.108.323.215.108.431a2.642,2.642,0,0,1-2.693.97,1.6,1.6,0,0,1-1.293-1.293,3.758,3.758,0,0,1,1.939-4.093,3.278,3.278,0,0,1,2.262-.108q.646.162.323.646Z" transform="translate(-42.706 -46.916)"/><path d="M114.518,167.232h.646c.108.323,0,.431-.215.539a5.681,5.681,0,0,1-1.293.323c-.646.108-.862-.215-.754-.862.215-1.077.431-2.262.754-3.339.108-.323.108-.539-.323-.539a.215.215,0,0,1,0-.431l1.616-.323c.323,0,.539,0,.431.431C115.164,164.431,114.841,165.832,114.518,167.232Z" transform="translate(-41.697 -46.905)"/><path d="M137.91,167.332h.862a2.355,2.355,0,0,1-.323.539,5.681,5.681,0,0,1-1.293.323c-.539.108-.862-.215-.754-.754.215-1.077.431-2.262.754-3.339a4.665,4.665,0,0,0,.108-.539c-.108,0-.323-.108-.431-.108a.215.215,0,0,1,0-.431c.539-.108,1.185-.215,1.724-.323.323,0,.431.108.323.431-.323,1.293-.539,2.693-.862,3.986C137.91,167.009,137.91,167.117,137.91,167.332Z" transform="translate(-39.881 -46.897)"/><path d="M77.318,167.248h.754c-.108.215-.215.431-.323.431a7.547,7.547,0,0,1-1.508.323c-.431,0-.646-.215-.539-.646a22.063,22.063,0,0,1,.539-2.585c.108-.539.215-.969.323-1.508-.215,0-.323-.108-.431-.108a.215.215,0,1,1,0-.431c.646-.108,1.185-.215,1.831-.323.431,0,.323.215.215.431-.323,1.293-.539,2.585-.862,3.986C77.318,167.032,77.318,167.14,77.318,167.248Z" transform="translate(-44.57 -46.92)"/><path d="M114.862,160.2a.87.87,0,0,1,.97.754.768.768,0,0,1-.862.754.87.87,0,0,1-.97-.754C114,160.523,114.323,160.308,114.862,160.2Z" transform="translate(-41.61 -47.09)"/><path d="M78.531,161.056c0,.539-.323.754-.97.754a.761.761,0,1,1,0-1.508C78.208,160.194,78.531,160.517,78.531,161.056Z" transform="translate(-44.491 -47.084)"/><path d="M138.27,160.2a.761.761,0,1,1,0,1.508.87.87,0,0,1-.97-.754C137.408,160.523,137.731,160.308,138.27,160.2Z" transform="translate(-39.81 -47.09)"/></g></g></svg>