<svg xmlns="http://www.w3.org/2000/svg" width="265" height="259.614" viewBox="0 0 265 259.614"><defs><style>.a{fill:#fff;}.b{fill:#111;}</style></defs><g transform="translate(-677 -1643)"><rect class="a" width="265" height="259.614" transform="translate(677 1643)"/><g transform="translate(714.688 1726.527)"><path class="b" d="M199.389,187a75.071,75.071,0,0,1,21.868,3.124,50.444,50.444,0,0,1,13.358,6.248,30.232,30.232,0,0,1,8.618,8.726,18.616,18.616,0,0,1,2.909,9.8,20.056,20.056,0,0,1-4.094,12.28,33.423,33.423,0,0,1-11.311,9.587,59.022,59.022,0,0,1-18.959,6.463,71.566,71.566,0,0,1-10.772,1.077,70.432,70.432,0,0,1-17.128-1.508,54.622,54.622,0,0,1-19.283-7.756,29.456,29.456,0,0,1-9.587-9.7,19.419,19.419,0,0,1-2.693-12.927,19.838,19.838,0,0,1,4.417-9.8,36.52,36.52,0,0,1,12.065-9.372,61.143,61.143,0,0,1,18.313-5.6A93.817,93.817,0,0,1,199.389,187Zm.97,51.492a66.046,66.046,0,0,0,13.789-1.616,51.607,51.607,0,0,0,15.62-6.248,27.347,27.347,0,0,0,8.4-8.079,12.883,12.883,0,0,0,1.4-11.2,17.907,17.907,0,0,0-4.524-6.787,35.319,35.319,0,0,0-12.5-7.541,62.35,62.35,0,0,0-20.791-3.878,67.767,67.767,0,0,0-16.159,1.293,51.88,51.88,0,0,0-17.344,6.463,24.172,24.172,0,0,0-7.325,6.679c-3.339,4.74-3.663,9.587-.862,14.65a22.49,22.49,0,0,0,6.248,6.894,44.381,44.381,0,0,0,12.927,6.571,77.334,77.334,0,0,0,21.114,2.8Z" transform="translate(-104.477 -186.981)"/><path class="b" d="M133.625,267.52h-2.37c-.108,0-.215-.215-.323-.323-.323-1.724-.646-3.339-.97-5.063,0-.108-.108-.215-.108-.323a.463.463,0,0,0-.431-.431h-.108c-.323,0-.323.215-.323.431v5.171c0,.323-.108.431-.431.431h-1.724c-.431,0-.539-.108-.539-.539V253.839c0-.431.108-.539.539-.539,1.293.108,2.585,0,3.878.108a2.874,2.874,0,0,1,2.693,2.478,5.347,5.347,0,0,1-.108,2.909,4.518,4.518,0,0,1-.969,1.508,1.033,1.033,0,0,0-.215.97c.431,1.939.862,3.77,1.293,5.709A.7.7,0,0,1,133.625,267.52ZM129.1,257.5h0v1.616a.344.344,0,0,0,.323.323,1.225,1.225,0,0,0,1.508-.862v-.108a10.45,10.45,0,0,0,.108-1.831c-.108-.862-.539-1.185-1.4-1.185-.323,0-.431.108-.431.431A8.154,8.154,0,0,0,129.1,257.5Z" transform="translate(-106.471 -181.858)"/><path class="b" d="M186.447,259.75v7.217c0,.431-.108.646-.539.539h-1.077c-.431,0-.431-.108-.431-.431V254.148c0-.431.108-.646.646-.646h1.185c.323-.108.646.108.754.539h0c.646,1.939,1.4,3.878,2.047,5.925.108.108.108.215.215.323,0-.215.108-.323.108-.431v-5.709c0-.431.108-.539.539-.539h.97c.431,0,.539.108.539.539v13.035c0,.431-.108.539-.539.539h-.215c-1.293,0-1.293,0-1.616-1.185-.754-2.047-1.4-3.986-2.154-6.033a3.466,3.466,0,0,0-.431-.754Z" transform="translate(-101.984 -181.845)"/><path class="b" d="M216.6,260.4v-6.463c0-.431.108-.539.539-.539h2.693a8.391,8.391,0,0,1,2.262.431,2.625,2.625,0,0,1,1.616,2.154A5.742,5.742,0,0,1,223.6,259a5.932,5.932,0,0,1-.969,1.508c-.215.215-.323.431-.215.646.431,1.831.862,3.77,1.293,5.709.108.539.108.646-.431.646h-1.508c-.323,0-.431-.108-.539-.431-.323-1.724-.646-3.447-1.077-5.171a.817.817,0,0,0-.215-.431.328.328,0,0,0-.431,0c-.108.108-.108.215-.108.431v5.171c0,.431-.108.539-.539.539h-1.616c-.431,0-.539-.108-.539-.539-.108-2.262-.108-4.524-.108-6.679Zm2.693-2.909V259c0,.323.108.431.431.431a1.217,1.217,0,0,0,1.4-.97v-.108a4.08,4.08,0,0,0,0-1.616,1.31,1.31,0,0,0-1.293-1.293h-.108c-.323,0-.431.108-.431.431v1.616Z" transform="translate(-99.497 -181.851)"/><path class="b" d="M194.1,260.4v-6.356c0-.539.108-.646.646-.539h2.478c2.154,0,3.555,1.077,3.77,3.232a18.073,18.073,0,0,1-.215,7.972,3.394,3.394,0,0,1-3.555,2.8h-2.585c-.431,0-.539-.108-.539-.539V260.4Zm2.693,0h0v4.417c0,.539.215.646.646.539a1.4,1.4,0,0,0,.969-1.508c.108-1.4.108-2.8.108-4.2a20.756,20.756,0,0,0-.108-2.585,1.62,1.62,0,0,0-1.077-1.508c-.431-.108-.539,0-.539.431V260.4Z" transform="translate(-101.235 -181.846)"/><path class="b" d="M156.354,259.763v7.217c0,.323-.108.539-.539.431h-1.185c-.323,0-.431-.108-.431-.431V254.593c0-1.185,0-1.185,1.185-1.185,1.4,0,1.077-.215,1.508,1.077.646,1.831,1.293,3.663,1.939,5.386,0,.108.108.108.108.215v-6.248c0-.431.108-.539.539-.539h1.077c.431,0,.431.108.431.539v13.035c0,.431-.108.646-.539.539h-.215c-1.293,0-1.293,0-1.616-1.185-.754-2.154-1.508-4.2-2.262-6.356,0-.108-.108-.108-.108-.215Z" transform="translate(-104.317 -181.858)"/><path class="b" d="M245.647,259.756v7.217c0,.431-.108.646-.539.539h-1.077c-.323,0-.431-.108-.431-.431V253.939c0-.323.108-.539.539-.431h1.508c.215,0,.539.108.539.323.646,1.939,1.4,3.878,2.047,5.817a.817.817,0,0,0,.215.431v-6.14c0-.431.108-.539.539-.539h.97c.431,0,.646.108.646.539v12.927c0,.431-.108.539-.539.539H249.2c-.431.108-.646-.108-.862-.539-.754-2.262-1.616-4.524-2.37-6.787a.817.817,0,0,0-.215-.431Z" transform="translate(-97.412 -181.851)"/><path class="b" d="M212.227,266.568c-.108.108-.215.108-.323.215-1.616,1.616-3.878,1.077-4.848-1.077a11.552,11.552,0,0,1-.754-4.2,17.612,17.612,0,0,1,.539-5.278,3.964,3.964,0,0,1,4.848-2.909,2.5,2.5,0,0,1,1.508,1.616,6.534,6.534,0,0,1,.323,3.232l-.323.323h-1.724c-.323,0-.431-.108-.431-.431a8.153,8.153,0,0,0-.108-1.616,1.531,1.531,0,0,0-.215-.646,2.253,2.253,0,0,0-.646-.431.886.886,0,0,0-.646.431,2.029,2.029,0,0,0-.215.862c0,2.37-.108,4.74-.108,7.11a2.869,2.869,0,0,0,.323,1.293.787.787,0,0,0,1.077.431,1.488,1.488,0,0,0,.431-.323,2.684,2.684,0,0,0,.323-1.831c0-.108-.215-.215-.323-.215-.431,0-.539-.108-.539-.539V261.4a.344.344,0,0,1,.323-.323H213.2a.486.486,0,0,1,.323.323v5.709c0,.108-.215.323-.215.323-.323,0-.754.215-.969-.215C212.334,267,212.227,266.783,212.227,266.568Z" transform="translate(-100.295 -181.876)"/><path class="b" d="M141.725,266.672c-.108.108-.215.108-.323.215a2.788,2.788,0,0,1-4.74-.97,8.31,8.31,0,0,1-.754-2.8,21.033,21.033,0,0,1,.323-6.356,12.838,12.838,0,0,1,.862-2.154,2.972,2.972,0,0,1,3.339-1.4,2.741,2.741,0,0,1,2.37,2.262,20.918,20.918,0,0,1,.215,2.585c0,.323-.108.431-.431.431h-1.724c-.323,0-.431-.108-.431-.431a8.153,8.153,0,0,0-.108-1.616.978.978,0,0,0-.323-.754.7.7,0,0,0-.969-.215c-.108.108-.215.108-.215.215a2.172,2.172,0,0,0-.323,1.185v7.325a2.029,2.029,0,0,0,.215.862.889.889,0,0,0,1.077.539,1.076,1.076,0,0,0,.539-.431,4.466,4.466,0,0,0,.323-1.724c0-.108-.215-.215-.431-.215-.431,0-.539-.215-.539-.539V261.5c0-.323.108-.431.431-.431h2.262c.323,0,.431.108.431.431v5.6a.752.752,0,0,1-.215.431c-.323,0-.754.215-.969-.215C141.833,267,141.833,266.888,141.725,266.672Z" transform="translate(-105.738 -181.873)"/><path class="b" d="M276.651,267.5c-1.185,0-1.185,0-1.293-1.077-.108-.539-.108-.969-.215-1.508,0-.323-.108-.431-.539-.431h-1.293c-.323,0-.431.108-.431.431l-.323,2.262a.4.4,0,0,1-.431.431h-1.4c-.323,0-.431-.108-.323-.431.539-3.878,1.185-7.756,1.724-11.634.108-.539.108-1.077.215-1.616a.4.4,0,0,1,.431-.431h2.8c.431,0,.539.215.539.539.323,2.478.646,5.063.862,7.541.215,1.831.431,3.555.646,5.386.108.646.108.646-.539.646C277.082,267.5,276.866,267.5,276.651,267.5Zm-2.478-11.311h-.108c0,.108-.108.215-.108.323-.215,1.508-.323,3.124-.539,4.632-.108,1.185-.108,1.185.97,1.185.323,0,.431-.108.431-.431-.108-1.077-.215-2.047-.323-3.124l-.323-2.585Z" transform="translate(-95.345 -181.843)"/><path class="b" d="M181.728,267.512h-2.154a.481.481,0,0,1-.323-.431,13.261,13.261,0,0,1-.215-2.154c0-.431-.108-.539-.539-.539h-1.077c-.431,0-.646.108-.646.539a13.2,13.2,0,0,0-.215,2.047c0,.323-.108.431-.431.431h-1.293c-.431,0-.539-.108-.431-.431.539-3.447.97-6.787,1.508-10.234.108-.969.323-1.939.431-2.909,0-.323.108-.431.539-.431h2.8c.323,0,.431.108.431.431.431,3.986.97,7.864,1.4,11.85C181.62,266.219,181.62,266.758,181.728,267.512Zm-3.663-11.419h-.108c0,.215-.108.431-.108.646-.215,1.508-.323,3.016-.539,4.524-.108,1.185-.108,1.185,1.077,1.077.323,0,.431-.108.431-.431-.108-1.185-.323-2.37-.431-3.555A8.809,8.809,0,0,1,178.065,256.093Z" transform="translate(-102.759 -181.851)"/><path class="b" d="M124.133,267.512h-2.154a.481.481,0,0,1-.323-.431,13.2,13.2,0,0,1-.215-2.047c0-.431-.215-.646-.646-.539h-1.185c-.323,0-.431.108-.539.431a16.19,16.19,0,0,0-.215,2.154c0,.323-.108.431-.431.431h-1.185c-.431,0-.539-.108-.539-.539.215-1.185.323-2.262.539-3.447.431-3.232.97-6.463,1.4-9.7,0-.323.108-.431.539-.431h2.8c.323,0,.431.108.539.431l1.616,13.25Zm-3.77-11.419h0a.334.334,0,0,0-.108.215l-.646,4.848c-.108,1.077-.108,1.077.97,1.077.323,0,.539-.108.431-.431-.108-.646-.108-1.4-.215-2.047-.108-1.185-.215-2.478-.431-3.663Z" transform="translate(-107.213 -181.851)"/><path class="b" d="M107.9,263.453h2.047a.486.486,0,0,1,.323.323c.108.323,0,.646.108.97a.914.914,0,0,0,.862.754,1.165,1.165,0,0,0,1.185-.754,1.882,1.882,0,0,0-.323-1.831l-1.293-1.293a6.9,6.9,0,0,1-2.262-2.693,4.468,4.468,0,0,1,.323-4.632A3.261,3.261,0,0,1,111.994,253a2.9,2.9,0,0,1,2.478,2.047c.108.539.215,1.077.323,1.724,0,.323-.108.431-.431.431h-1.508c-.323,0-.323-.108-.431-.431a3.873,3.873,0,0,0-.215-1.185.867.867,0,0,0-1.185-.323.841.841,0,0,0-.431.431,1.653,1.653,0,0,0,0,1.724,9.3,9.3,0,0,0,1.4,1.508,22.5,22.5,0,0,1,2.154,2.37,4.618,4.618,0,0,1,.108,4.848,3.422,3.422,0,0,1-3.878,1.508,3.334,3.334,0,0,1-2.478-3.339C107.9,264.1,107.9,263.776,107.9,263.453Z" transform="translate(-107.893 -181.885)"/><path class="b" d="M262.4,260.4v-6.463c0-.431.108-.539.539-.539h4.955c.431,0,.539.108.539.539v1.185c0,.323-.108.431-.431.431h-2.37c-.431,0-.539.108-.539.539v2.585c0,.431.108.431.539.431h1.508c.323,0,.431.108.431.431v1.508c0,.323-.108.431-.431.431h-1.616c-.323,0-.431.108-.431.431v3.232c0,.323.108.431.431.431H268c.323,0,.539.108.431.539V267.3c0,.323-.108.431-.431.431h-5.171c-.431,0-.431-.215-.431-.539V260.4Z" transform="translate(-95.96 -181.851)"/><path class="b" d="M234.908,260.51v-6.571c0-.431.108-.539.539-.539h5.063c.323,0,.539.108.431.431v1.185c0,.323-.108.431-.431.431h-2.37c-.323,0-.431.108-.431.431v2.8c0,.323.108.431.431.431h1.616c.323,0,.431.108.431.431v1.508c0,.323-.108.431-.431.431h-1.616c-.323,0-.431.108-.431.431v3.124c0,.323.108.431.431.431H240.4c.431,0,.646.108.539.646V267.3c0,.323-.108.431-.431.431h-5.171c-.431,0-.539-.108-.539-.539.108-2.37.108-4.524.108-6.679Z" transform="translate(-98.091 -181.851)"/><path class="b" d="M226.208,260.4v-6.463c0-.431.108-.539.539-.539h4.848c.431,0,.646.108.539.539v1.077c0,.323-.108.431-.431.431h-2.37c-.323,0-.539.108-.539.431v2.693c0,.323.108.431.431.431h1.616c.323,0,.431.108.431.431v1.508c0,.323-.108.431-.431.431h-1.508c-.323,0-.539.108-.539.431v3.124c0,.323.108.431.431.431h2.262c.646,0,.646,0,.646.646v.969c0,.323-.108.431-.431.431h-5.063c-.431,0-.539-.108-.539-.539.108-2.047.108-4.309.108-6.463Z" transform="translate(-98.763 -181.851)"/><path class="b" d="M145.6,260.51v-6.463c0-.431.108-.646.646-.646h4.848c.431,0,.539.108.539.539v1.185c0,.323-.108.431-.431.431h-2.37c-.323,0-.539.108-.539.431v2.693c0,.323.108.431.431.431h1.616c.323,0,.539.108.431.539v1.293c0,.323-.108.539-.539.539h-1.508c-.323,0-.431.108-.431.431v3.124c0,.323.108.431.539.431h2.37c.323,0,.539.108.539.431v1.293c0,.323-.108.323-.323.323h-5.278c-.431,0-.323-.215-.323-.539C145.6,264.819,145.6,262.664,145.6,260.51Z" transform="translate(-104.981 -181.851)"/><path class="b" d="M280.3,260.51v-6.571c0-.323.108-.539.431-.539h5.063c.323,0,.431.108.431.431v1.185c0,.323-.108.431-.431.431h-2.262c-.323,0-.431.108-.431.431v2.8c0,.323.108.431.431.431h1.616c.323,0,.431.108.431.323v1.508q0,.485-.323.323h-1.616c-.323,0-.431.108-.431.431v5.063c0,.323-.108.539-.539.539h-1.724c-.323,0-.539-.108-.431-.431a61.591,61.591,0,0,1-.215-6.356Z" transform="translate(-94.577 -181.851)"/><path class="b" d="M168.248,261.472v5.494c0,.323-.108.539-.539.539h-1.724c-.323,0-.539-.108-.431-.431V256.409c0-.97.108-.862-.754-.862h-1.077a.344.344,0,0,1-.323-.323v-1.4a.344.344,0,0,1,.323-.323h6.571c.215,0,.431.108.323.431v1.293c0,.323-.108.431-.431.431h-1.4c-.431,0-.539.108-.539.539,0,1.616,0,3.447,0,5.278Z" transform="translate(-103.606 -181.843)"/><path class="b" d="M253.7,260.4v-6.356c0-.646,0-.646.646-.646h1.508c.431,0,.539.108.539.539v10.772c0,.646,0,.646.646.646H259.3c.323,0,.431.108.431.431v1.185c0,.323-.108.431-.431.431h-5.063c-.323,0-.539-.108-.431-.431-.108-2.154-.215-4.309-.108-6.571Z" transform="translate(-96.635 -181.851)"/><path class="b" d="M192.19,221.007h-3.339c-3.555-.108-7.11-.108-10.557-.323a11.589,11.589,0,0,1-3.339-.754,2.925,2.925,0,0,1-2.047-3.663,17.224,17.224,0,0,1,.539-2.262c.108-.215.215-.323.431-.323h8.079a.4.4,0,0,1,.323.108c-.108.323-.108.646-.215.97a.965.965,0,0,0,.646,1.293h0a4.879,4.879,0,0,0,1.724.323c1.831,0,3.77.108,5.6,0a6.291,6.291,0,0,0,1.939-.431,2.718,2.718,0,0,0,1.831-2.047,1.061,1.061,0,0,0-.862-1.508c-.754-.108-1.4-.215-2.154-.323-3.016-.215-6.14-.323-9.156-.539a14.642,14.642,0,0,1-3.77-.754,2.92,2.92,0,0,1-2.047-3.447,11.9,11.9,0,0,1,1.616-4.632,8.184,8.184,0,0,1,5.063-3.339,27.351,27.351,0,0,1,6.571-.754c3.232,0,6.571,0,9.8.108a11.405,11.405,0,0,1,3.339.539c2.693.646,3.663,2.478,2.909,5.063-.431,1.293-.431,1.293-1.831,1.293h-7.433a4.665,4.665,0,0,1,.108-.539c.323-.969,0-1.508-.97-1.724a13.2,13.2,0,0,0-2.047-.215c-1.724,0-3.447.108-5.171.215a2.631,2.631,0,0,0-2.37,2.154.951.951,0,0,0,.539,1.293h.108a5.407,5.407,0,0,0,1.293.215c3.232.215,6.463.323,9.587.539,1.293.215,2.585.431,3.77.646a.911.911,0,0,0,.754,0,27.278,27.278,0,0,1,8.4-1.077h8.187a16.464,16.464,0,0,1,5.6.862,3.3,3.3,0,0,1,2.37,3.878,10.883,10.883,0,0,1-.323,1.831c0,.323-.215.431-.539.431h-8.51c-.323,0-.431-.108-.431-.431a1.113,1.113,0,0,0-.969-1.293,5.407,5.407,0,0,0-1.293-.215,30.486,30.486,0,0,0-7,.215,4.616,4.616,0,0,0-3.986,3.339c-.539,1.831-1.185,3.77-1.831,5.6a2.372,2.372,0,0,0-.108.862c-.108,1.185.323,1.939,1.508,2.047a38.275,38.275,0,0,0,4.955.323,22.466,22.466,0,0,0,3.77-.431,3.612,3.612,0,0,0,2.693-2.693v-.431h-6.356c.215-.754.431-1.293.646-1.939a8.073,8.073,0,0,0,.539-1.724.591.591,0,0,1,.646-.431h15.081a13.394,13.394,0,0,0-.431,1.724c-.431,1.4-.862,2.8-1.4,4.2a8.72,8.72,0,0,1-5.709,5.6,22.92,22.92,0,0,1-6.14,1.077q-5.817.162-11.634,0a12.561,12.561,0,0,1-4.848-.97,4.892,4.892,0,0,1-3.232-4.309,27.063,27.063,0,0,1,.431-2.909C192.083,221.33,192.083,221.114,192.19,221.007Z" transform="translate(-102.88 -186.083)"/></g></g></svg>