<svg xmlns="http://www.w3.org/2000/svg" width="151.08" height="34.613" viewBox="0 0 151.08 34.613"><g transform="translate(-12448.297 -2363.08)"><path d="M72.736,20.706h-6.5V14.2H62V30.812h4.231V24.492h6.5v6.317h4.231V14.2H72.736Z" transform="translate(12425.457 2357.848)" fill="#fff"/><path d="M126.5,14.2h12.885v3.727h-8.906v2.839h7.958v3.727h-7.958v6.317H126.5Z" transform="translate(12401.695 2357.848)" fill="#fff"/><path d="M161.027,17.427a4.247,4.247,0,0,1,3.79,2.906H169.3A8.367,8.367,0,0,0,161.09,13.7h-.126a8.479,8.479,0,0,0-8.464,8.59,8.5,8.5,0,0,0,8.464,8.653h.19a8.289,8.289,0,0,0,8.148-6.566h-4.484a4.225,4.225,0,0,1-3.79,2.779c-2.653-.063-4.231-2.463-4.231-4.926,0-2.274,1.515-4.737,4.231-4.8" transform="translate(12392.118 2358.032)" fill="#fff"/><path d="M201.416,22.39a8.518,8.518,0,0,1-8.527,8.653h-.126a8.445,8.445,0,0,1-8.464-8.4,9.126,9.126,0,0,1,.632-3.537,8.366,8.366,0,0,1,7.832-5.306h.19a8.374,8.374,0,0,1,8.464,8.59m-8.464,4.863c2.839-.063,4.231-2.779,4.231-4.863,0-2.147-1.389-4.863-4.231-4.926a4.634,4.634,0,0,0-4.358,4.863c0,2.526,1.642,4.863,4.358,4.926" transform="translate(12380.403 2357.996)" fill="#fff"/><path d="M-385.362-311.387h0v-16.3l3.348,1.326v9.982l7.832-3.095v-18.509l-7.832-3.095v9.98l-3.346,1.326V-346l14.527,5.746v23.117l-14.527,5.748Z" transform="translate(12848.187 2709.079)" fill="#fff"/><g transform="translate(12507.843 2372.048)"><path d="M104.972,14.2v8.717A12.262,12.262,0,0,1,104.846,25a2.716,2.716,0,0,1-1.2,1.831,3.151,3.151,0,0,1-1.831.444,2.857,2.857,0,0,1-2.839-1.705,7.264,7.264,0,0,1-.444-2.653V14.2H94.3v8.59a11.191,11.191,0,0,0,.379,3.537,7.159,7.159,0,0,0,1.579,2.59A7.943,7.943,0,0,0,101.878,31a7.211,7.211,0,0,0,5.495-2.147c1.263-1.263,1.9-2.653,1.9-6.064V14.2Z" transform="translate(-94.282 -14.2)" fill="#fff"/></g><path d="M227.916,25.19h0a4.525,4.525,0,0,0,1.579-1.011,5.883,5.883,0,0,0,1.768-4.358,5.583,5.583,0,0,0-1.958-4.421c-.887-.758-2.021-1.2-5.053-1.2H218V30.811h4.042V25.569H224l3.158,5.242h4.231Zm-5.874-7.263h2.4c.887,0,2.779,0,2.779,1.958,0,2.021-1.831,2.021-2.653,2.021h-2.526Z" transform="translate(12367.987 2357.848)" fill="#fff"/><path d="M0,5.748V28.8L14.527,34.55V18.317L11.18,19.643v9.979L3.348,26.53V8.022l7.832-3.1v9.98l3.348,1.326V0Z" transform="translate(12448.297 2363.08)" fill="#fff" opacity="0.71"/></g></svg>